<svg width="36" height="36" viewBox="0 0 36 36" fill="none" xmlns="http://www.w3.org/2000/svg">
<path d="M18 0C8.05922 0 0 8.05922 0 18C0 27.9408 8.05922 36 18 36C27.9408 36 36 27.9408 36 18C36 8.05922 27.9408 0 18 0ZM28.2157 17.6217C27.7594 18.8599 27.0802 19.973 26.2983 21.0277C25.2773 22.4037 24.1038 23.6412 22.8572 24.8112C21.3525 26.2245 19.7501 27.5203 18.0977 28.7557L18.0541 28.7859L18.0366 28.7986L18 28.7691C17.5184 28.3781 17.0388 27.9914 16.5635 27.6012C15.1432 26.4375 13.751 25.2387 12.4418 23.9513C11.2584 22.789 10.1426 21.5662 9.20742 20.1909C8.61187 19.3155 8.10844 18.393 7.77164 17.3848C7.49461 16.553 7.34977 15.6973 7.41234 14.824C7.53328 13.23 8.10422 11.8378 9.33469 10.7691C10.1173 10.0905 11.0405 9.71437 12.06 9.55898C12.538 9.486 13.0225 9.46549 13.5049 9.49781C15.2374 9.61734 16.6085 10.3852 17.5936 11.8181C17.7377 12.0291 17.8657 12.2484 18 12.4692L18.0464 12.5459C18.0464 12.5416 18.0513 12.536 18.0541 12.5318C18.128 12.4024 18.2011 12.2688 18.2791 12.1395C18.8255 11.2331 19.5342 10.4934 20.4841 10.0062C21.3778 9.54633 22.3313 9.39867 23.3269 9.48656C24.1959 9.5632 25.0298 9.76781 25.8061 10.1721C27.353 10.9723 28.2734 12.2414 28.6045 13.9402C28.8506 15.2072 28.6552 16.4285 28.2157 17.6217Z" fill="white"/>
</svg>
