<svg width="36" height="36" viewBox="0 0 36 36" fill="none" xmlns="http://www.w3.org/2000/svg">
<path d="M11.1494 1.36028C17.6642 -1.33225 25.4389 -0.027822 30.7334 5.27238C37.2777 11.8238 37.7226 22.1689 32.0684 29.2363L32.0537 29.2206C31.2216 30.2666 30.2755 31.2181 29.2344 32.0556L29.2432 32.0644C27.8885 33.1505 26.413 34.0119 24.8672 34.6484C23.3333 35.2856 21.6922 35.7165 19.9785 35.9062V35.8935C18.6508 36.0383 17.3096 36.0353 15.9824 35.8847V35.9062C6.99254 34.9112 0.000242256 27.2813 0 18.0165C0 10.4963 4.60679 4.05236 11.1494 1.36028ZM18.2168 8.01555C14.2239 8.01565 10.7759 10.2656 9.09863 13.5322C8.40048 14.8821 8.00001 16.3989 8 18.0155C8 19.6322 8.40047 21.1489 9.09863 22.4989C10.7759 25.7655 14.2238 28.0154 18.2168 28.0155C19.4383 28.0155 20.572 27.8209 21.6084 27.4638C24.0097 26.7049 25.5443 25.2718 26.752 23.3739L23.168 21.3329C22.6044 22.2339 21.7476 22.9168 20.8848 23.4345V23.4364C20.0829 23.8478 19.1831 24.0575 18.2168 24.0575C15.552 24.0574 13.2961 22.2987 12.4873 19.9238C12.4602 19.844 12.4342 19.7637 12.4102 19.6825H27.8379C27.94 19.0743 28 18.4491 28 17.7909C28 14.7493 26.893 12.182 24.9688 10.4404C23.283 8.91548 20.9753 8.01555 18.2168 8.01555ZM18.2168 11.9736C19.5961 11.9736 20.7631 12.3404 21.6826 12.9404C22.7553 13.6488 23.4786 14.6905 23.7256 15.9238H12.5527C13.413 13.6423 15.6211 11.9737 18.2168 11.9736Z" fill="white"/>
</svg>
