<svg width="22" height="32" viewBox="0 0 22 32" fill="none" xmlns="http://www.w3.org/2000/svg">
<path d="M7.59353 32C7.4691 32 7.34303 31.9751 7.22266 31.9232C6.80135 31.7415 6.57347 31.2816 6.6841 30.8363L9.85434 18.0752H1.3125C1.00331 18.0752 0.713997 17.9228 0.539186 17.6677C0.364374 17.4127 0.326624 17.0879 0.438124 16.7995L6.70447 0.59931C6.84416 0.238124 7.19153 0 7.57885 0H16.2014C16.5182 0 16.8136 0.159999 16.9867 0.425373C17.1597 0.690747 17.1871 1.02556 17.0594 1.31549L13.3488 9.73796H20.6875C21.0304 9.73796 21.3459 9.92515 21.5102 10.226C21.6746 10.5269 21.6616 10.8935 21.4763 11.182L8.38278 31.569C8.20572 31.8447 7.90466 32 7.59353 32Z" fill="white"/>
</svg>
