<svg width="32" height="32" viewBox="0 0 32 32" fill="none" xmlns="http://www.w3.org/2000/svg">
<path d="M19.4245 19.4485C17.9459 19.2161 16.9066 17.8481 17.0716 16.3982C17.0939 16.2017 17.1385 16.0084 17.2047 15.822C17.3753 15.3296 17.1997 14.7596 16.7772 14.4047C15.8835 13.6333 14.8703 13.0124 13.7774 12.5661C13.5386 12.4651 13.2729 12.4468 13.0225 12.5139C12.7721 12.581 12.5512 12.7298 12.3949 12.9367C12.1876 13.2109 11.9274 13.4407 11.6297 13.6126C11.3321 13.7846 11.0029 13.8951 10.6618 13.9377C10.3207 13.9803 9.97451 13.9541 9.6437 13.8606C9.31288 13.7671 9.00416 13.6083 8.73577 13.3935C8.57005 13.2604 8.4218 13.1069 8.29455 12.9367C8.13838 12.7302 7.91786 12.5817 7.66784 12.5146C7.41782 12.4475 7.15257 12.4656 6.914 12.5661C5.90506 12.9768 4.96356 13.5367 4.12103 14.2272C3.6773 14.5878 3.49169 15.1783 3.6723 15.687C4.17603 17.0238 3.49606 18.5905 2.11364 19.1617C1.86727 19.264 1.6076 19.3307 1.34244 19.3598C1.07217 19.3919 0.818325 19.5064 0.615388 19.6877C0.412452 19.8691 0.270259 20.1085 0.208124 20.3734C-0.0449349 21.4969 -0.0674714 22.66 0.141878 23.7925C0.1958 24.0657 0.335257 24.3147 0.540074 24.5035C0.744891 24.6922 1.00445 24.8109 1.28119 24.8424C2.76048 24.998 3.86042 26.3054 3.76605 27.7602C3.74701 28.053 3.67811 28.3405 3.56231 28.6101C3.34357 29.1151 3.51294 29.7281 3.96479 30.1012C4.85295 30.8601 5.85684 31.4719 6.93837 31.9136C7.07265 31.9653 7.21456 31.9944 7.35835 31.9998C7.55313 32.0035 7.74568 31.9578 7.9181 31.8672C8.09052 31.7765 8.23721 31.6437 8.34454 31.4811C8.5747 31.1353 8.88537 30.8505 9.24986 30.6513C9.61436 30.452 10.0218 30.3442 10.4371 30.3371C10.8525 30.3301 11.2633 30.4239 11.6344 30.6107C12.0055 30.7974 12.3256 31.0715 12.5674 31.4092C12.7235 31.6306 12.9521 31.7904 13.2136 31.8609C13.4752 31.9313 13.7531 31.9079 13.9992 31.7948C14.9888 31.3569 15.9092 30.7771 16.7316 30.0737C17.1622 29.71 17.3359 29.1282 17.1534 28.6295C16.6335 27.3003 17.2959 25.7273 18.6721 25.1423C18.9049 25.0431 19.15 24.9757 19.4008 24.9417C19.6672 24.903 19.9153 24.7834 20.1116 24.5993C20.308 24.4151 20.4431 24.1752 20.4989 23.9118C20.6174 23.3593 20.6817 22.7964 20.6907 22.2314C20.69 21.6357 20.6272 21.0417 20.5032 20.4591C20.4468 20.2013 20.3135 19.9667 20.1209 19.7862C19.9283 19.6058 19.6855 19.4881 19.4245 19.4485ZM13.793 22.2314C13.7931 22.9134 13.591 23.5802 13.2121 24.1474C12.8332 24.7146 12.2947 25.1566 11.6646 25.4177C11.0344 25.6788 10.341 25.7472 9.67203 25.6142C9.00304 25.4812 8.38851 25.1529 7.90615 24.6706C7.4238 24.1884 7.0953 23.5739 6.96218 22.905C6.82907 22.236 6.89733 21.5427 7.15832 20.9125C7.41931 20.2823 7.86133 19.7437 8.42845 19.3648C8.99558 18.9859 9.66234 18.7836 10.3444 18.7836C11.2575 18.7884 12.1318 19.1531 12.7774 19.7986C13.4231 20.4442 13.7881 21.3184 13.793 22.2314Z" fill="white"/>
<path d="M30.9789 5.62051C29.7871 5.43303 28.949 4.33064 29.0828 3.16201C29.1001 3.00359 29.136 2.84775 29.1896 2.69768C29.3271 2.30084 29.1859 1.84276 28.8453 1.55529C28.1245 0.933163 27.3072 0.432689 26.4254 0.0735609C26.2326 -0.00767231 26.0182 -0.0220871 25.8163 0.0326108C25.6143 0.0873087 25.4365 0.207976 25.3111 0.375406C25.1439 0.596274 24.9341 0.781413 24.6942 0.919897C24.4543 1.05838 24.1891 1.14741 23.9142 1.18171C23.6393 1.21602 23.3603 1.19492 23.0937 1.11966C22.8271 1.04439 22.5782 0.91649 22.3619 0.743495C22.2292 0.635898 22.1104 0.512257 22.0082 0.375406C21.8824 0.20893 21.7047 0.0891551 21.5032 0.0350479C21.3017 -0.0190592 21.0879 -0.00440659 20.8957 0.0766856C20.0828 0.407476 19.3244 0.858738 18.6458 1.4153C18.2884 1.7059 18.1384 2.1821 18.284 2.59206C18.6902 3.66883 18.1421 4.93183 17.0278 5.39241C16.8291 5.47468 16.6197 5.52854 16.406 5.5524C16.1888 5.57792 15.9847 5.66953 15.8213 5.81483C15.6579 5.96014 15.543 6.15212 15.4923 6.36482C15.2879 7.27036 15.2697 8.20797 15.4385 9.1208C15.4827 9.34077 15.5954 9.54113 15.7604 9.69313C15.9254 9.84514 16.1344 9.941 16.3572 9.96696C17.549 10.092 18.4359 11.1468 18.3571 12.3199C18.3424 12.5566 18.2875 12.7891 18.1946 13.0073C18.0184 13.4147 18.1552 13.9085 18.5196 14.209C19.2354 14.8201 20.0443 15.3128 20.9157 15.6683C21.0241 15.7097 21.1385 15.7332 21.2544 15.7376C21.4114 15.7405 21.5666 15.7036 21.7055 15.6305C21.8445 15.5575 21.9628 15.4505 22.0494 15.3196C22.2348 15.0408 22.4852 14.8112 22.779 14.6506C23.0728 14.4899 23.4011 14.403 23.7359 14.3973C24.0707 14.3916 24.4019 14.4672 24.701 14.6178C25 14.7683 25.2581 14.9892 25.453 15.2614C25.5787 15.4389 25.7623 15.5671 25.9722 15.6241C26.1821 15.6811 26.4053 15.6634 26.6035 15.5739C27.4015 15.2208 28.1438 14.7535 28.8071 14.1865C29.154 13.8935 29.294 13.4241 29.1465 13.0223C28.7278 11.9518 29.2615 10.6838 30.3708 10.2101C30.5585 10.1302 30.7561 10.0758 30.9583 10.0482C31.173 10.0168 31.3729 9.92051 31.5312 9.77214C31.6896 9.62377 31.7986 9.43049 31.8438 9.21829C31.9394 8.77279 31.9911 8.319 31.9982 7.86342C31.9976 7.38414 31.9474 6.90622 31.8482 6.43731C31.8022 6.23 31.6946 6.04146 31.5394 5.89646C31.3842 5.75146 31.1889 5.65679 30.9789 5.62489V5.62051ZM26.4398 7.86342C26.4398 8.41307 26.2768 8.95039 25.9714 9.40741C25.666 9.86443 25.232 10.2206 24.7241 10.431C24.2163 10.6413 23.6575 10.6964 23.1184 10.5891C22.5792 10.4819 22.084 10.2172 21.6954 9.82854C21.3067 9.43988 21.042 8.94469 20.9347 8.4056C20.8275 7.8665 20.8825 7.30772 21.0929 6.7999C21.3032 6.29209 21.6595 5.85805 22.1165 5.55268C22.5735 5.24731 23.1109 5.08432 23.6606 5.08432C24.3965 5.08809 25.1012 5.3821 25.6216 5.90247C26.142 6.42284 26.436 7.12752 26.4398 7.86342Z" fill="white"/>
<path d="M31.7514 23.3044C31.4632 23.0574 31.2807 22.7095 31.2412 22.3321C31.2016 21.9547 31.3082 21.5765 31.5389 21.2752C31.6037 21.1929 31.6777 21.1183 31.7595 21.0527C31.8651 20.9611 31.9407 20.8398 31.9766 20.7047C32.0125 20.5695 32.007 20.4267 31.9607 20.2947C31.7723 19.6981 31.488 19.1363 31.1189 18.6311C31.0393 18.5194 30.9247 18.4375 30.7933 18.3982C30.6619 18.359 30.5211 18.3646 30.3933 18.4143C30.2236 18.4803 30.0423 18.5116 29.8603 18.5064C29.6782 18.5011 29.4991 18.4593 29.3334 18.3836C29.1678 18.3078 29.0191 18.1996 28.8961 18.0653C28.773 17.931 28.6782 17.7734 28.6172 17.6018C28.5795 17.4959 28.5554 17.3857 28.5453 17.2737C28.5323 17.1372 28.4742 17.0089 28.3802 16.9091C28.2861 16.8092 28.1615 16.7436 28.0259 16.7225C27.4569 16.6271 26.8767 16.6176 26.3048 16.6944C26.161 16.7105 26.0256 16.7703 25.9169 16.8658C25.8082 16.9612 25.7313 17.0877 25.6967 17.2281C25.5523 17.9706 24.8099 18.488 24.0274 18.3605C23.8879 18.3386 23.7523 18.2965 23.6249 18.2355C23.4942 18.1749 23.348 18.1559 23.2061 18.1812C23.0643 18.2064 22.9336 18.2747 22.8319 18.3768C22.4053 18.8129 22.0718 19.331 21.8513 19.8997C21.7996 20.0379 21.7933 20.1889 21.8332 20.3309C21.8731 20.4729 21.9571 20.5986 22.0731 20.6897C22.3717 20.9211 22.5701 21.2582 22.6274 21.6315C22.6848 22.0049 22.5966 22.386 22.3813 22.6963C22.2916 22.8232 22.1809 22.9338 22.0538 23.0232C21.9354 23.1119 21.8487 23.2364 21.8067 23.3783C21.7647 23.5201 21.7696 23.6717 21.8207 23.8106C22.0104 24.3994 22.2931 24.9541 22.6581 25.4536C22.7042 25.5141 22.76 25.5667 22.8231 25.6092C22.9099 25.665 23.0093 25.698 23.1123 25.7051C23.2152 25.7122 23.3182 25.6932 23.4118 25.6498C23.6118 25.558 23.831 25.516 24.0508 25.5276C24.2705 25.5391 24.4842 25.6038 24.6734 25.7161C24.8626 25.8284 25.0218 25.9849 25.1372 26.1722C25.2526 26.3595 25.3209 26.5721 25.3361 26.7916C25.3447 26.9343 25.4029 27.0695 25.5005 27.1739C25.5982 27.2783 25.7292 27.3453 25.8711 27.3634C26.439 27.4412 27.0152 27.436 27.5816 27.3478C27.7233 27.3292 27.8559 27.2678 27.9617 27.1717C28.0675 27.0757 28.1414 26.9496 28.1734 26.8103C28.3084 26.0673 29.0446 25.5417 29.8277 25.661C29.9604 25.6807 30.0897 25.7186 30.2121 25.7735C30.343 25.8301 30.4882 25.8452 30.628 25.8167C30.7678 25.7882 30.8955 25.7175 30.9939 25.6142C31.201 25.3983 31.3865 25.1626 31.5476 24.9105C31.7131 24.6422 31.8501 24.3574 31.9563 24.0606C32.0027 23.9286 32.0079 23.7857 31.9713 23.6506C31.9347 23.5156 31.858 23.3949 31.7514 23.3044ZM28.439 22.9919C28.2494 23.2994 27.9728 23.5438 27.6442 23.6941C27.3156 23.8444 26.9499 23.8939 26.5932 23.8364C26.2365 23.7788 25.9049 23.6168 25.6403 23.3708C25.3757 23.1247 25.19 22.8058 25.1067 22.4542C25.0233 22.1026 25.0462 21.7342 25.1722 21.3957C25.2983 21.0571 25.522 20.7635 25.8149 20.552C26.1079 20.3405 26.4569 20.2206 26.818 20.2075C27.1791 20.1944 27.536 20.2887 27.8435 20.4784C28.254 20.7346 28.5468 21.1425 28.6584 21.6133C28.7699 22.0842 28.6911 22.5801 28.439 22.9932V22.9919Z" fill="white"/>
</svg>
