<svg width="36" height="36" viewBox="0 0 36 36" fill="none" xmlns="http://www.w3.org/2000/svg">
<path fill-rule="evenodd" clip-rule="evenodd" d="M18 36C8.06046 36 0 27.9395 0 18C0 8.06046 8.06046 0 18 0C27.9395 0 36 8.06046 36 18C36 27.9395 27.9395 36 18 36ZM18 6.29206C22.9241 6.29206 26.9157 10.2837 26.9157 15.2077C26.9157 20.1317 18 29.7078 18 29.7078C18 29.7078 9.08433 20.1317 9.08433 15.2077C9.08433 10.2837 13.0759 6.29206 18 6.29206ZM18 11.6654C19.8669 11.6654 21.3809 13.1794 21.3809 15.0464C21.3809 16.9133 19.8669 18.4273 18 18.4273C16.1331 18.4273 14.6191 16.9133 14.6191 15.0464C14.6191 13.1794 16.1331 11.6654 18 11.6654Z" fill="white"/>
</svg>
