<svg width="28" height="33" viewBox="0 0 28 33" fill="none" xmlns="http://www.w3.org/2000/svg">
<path d="M25.0523 9.91416H21.0333C19.408 9.91416 18.0858 8.59188 18.0858 6.96661V2.94655C18.0858 1.31653 16.7665 0 15.1392 0H10.9858C9.34241 0 8.03821 1.3336 8.03821 2.94755V21.0332C8.03821 22.6766 9.37181 23.9808 10.9858 23.9808H25.0524C26.6995 23.9808 28 22.6431 28 21.0332V12.8618C27.9999 11.2364 26.6776 9.91416 25.0523 9.91416ZM21.8138 13.5155L17.7948 19.544C17.4403 20.0965 16.5882 20.0963 16.2338 19.544L14.2242 16.5297C13.9368 16.0987 14.0533 15.5163 14.4844 15.2289C14.9154 14.9415 15.4978 15.058 15.7852 15.4891L17.0143 17.3326L20.2528 12.4748C20.5401 12.0437 21.1226 11.9273 21.5536 12.2146C21.9848 12.502 22.1013 13.0845 21.8138 13.5155Z" fill="white"/>
<path d="M2.14295 25.0523V8.151C0.923607 8.49802 0 9.61299 0 10.9856V29.0713C0 30.6965 1.32228 32.0188 2.94755 32.0188H17.0142C18.3605 32.0188 19.4981 31.1112 19.8492 29.8759H6.96661C4.30685 29.8759 2.14295 27.712 2.14295 25.0523Z" fill="white"/>
<path d="M6.16218 21.0333V4.13208C4.94283 4.47916 4.01929 5.59425 4.01929 6.96669V25.0524C4.01929 26.6776 5.34157 27.9999 6.96684 27.9999H21.0335C22.3798 27.9999 23.5173 27.0922 23.8685 25.857H10.9859C8.32614 25.857 6.16218 23.6931 6.16218 21.0333Z" fill="white"/>
<path d="M19.9618 6.96653C19.9618 7.55732 20.4425 8.03797 21.0333 8.03797H25.0523C25.9647 8.03797 26.8186 8.29269 27.547 8.73464C27.2601 8.05461 26.842 7.42962 26.3045 6.89205L21.1078 1.69542C20.5704 1.15798 19.9456 0.740044 19.2659 0.453125C19.7074 1.18118 19.9619 2.03462 19.9619 2.94647V6.96653H19.9618Z" fill="white"/>
</svg>
