<svg width="60" height="60" viewBox="0 0 60 60" fill="none" xmlns="http://www.w3.org/2000/svg">
<circle cx="30" cy="30" r="30" fill="url(#paint0_linear_1363_642)"/>
<path d="M34.2188 38H25.4297V36.1348L29.3066 32.375C30.2962 31.418 31.0026 30.6237 31.4258 29.9922C31.849 29.3542 32.0605 28.6738 32.0605 27.9512C32.0605 27.209 31.8392 26.6361 31.3965 26.2324C30.9603 25.8223 30.3353 25.6172 29.5215 25.6172C28.3301 25.6172 27.1908 26.151 26.1035 27.2188V25.041C27.2559 24.1882 28.5938 23.7617 30.1172 23.7617C31.4323 23.7617 32.4674 24.0938 33.2227 24.7578C33.9779 25.4154 34.3555 26.3691 34.3555 27.6191C34.3555 28.459 34.1211 29.2826 33.6523 30.0898C33.1836 30.8906 32.2819 31.9421 30.9473 33.2441L28.0664 36.0078V36.0566H34.2188V38Z" fill="white"/>
<path d="M30 4.35C30 3.60442 30.6048 2.99648 31.3495 3.03374C35.5725 3.24505 39.6936 4.44578 43.3774 6.54695C47.4526 8.87142 50.8518 12.2177 53.24 16.2559C55.6282 20.2941 56.923 24.8849 56.9967 29.5759C57.0704 34.2669 55.9205 38.8961 53.6603 43.0073C51.4001 47.1186 48.1077 50.5699 44.1075 53.0213C40.1073 55.4726 35.5373 56.8393 30.8481 56.9867C26.1589 57.134 21.5121 56.057 17.3659 53.8617C13.618 51.8773 10.3959 49.041 7.95472 45.5886C7.52425 44.9799 7.71347 44.1435 8.34299 43.744C8.97251 43.3445 9.80367 43.5334 10.2375 44.1398C12.425 47.1972 15.2961 49.7107 18.6293 51.4755C22.3609 53.4513 26.543 54.4206 30.7633 54.288C34.9836 54.1554 39.0965 52.9254 42.6967 50.7192C46.2969 48.513 49.2601 45.4067 51.2943 41.7066C53.3284 38.0065 54.3633 33.8402 54.297 29.6183C54.2307 25.3964 53.0654 21.2647 50.916 17.6303C48.7667 13.9959 45.7074 10.9843 42.0396 8.89226C38.7635 7.02358 35.1029 5.94623 31.3494 5.73749C30.6049 5.69609 30 5.09559 30 4.35Z" fill="white"/>
<defs>
<linearGradient id="paint0_linear_1363_642" x1="30" y1="47" x2="8" y2="-1.72456e-06" gradientUnits="userSpaceOnUse">
<stop stop-color="#212529"/>
<stop offset="1" stop-color="#73818F"/>
</linearGradient>
</defs>
</svg>
