<svg width="60" height="60" viewBox="0 0 60 60" fill="none" xmlns="http://www.w3.org/2000/svg">
<circle cx="30" cy="30" r="30" fill="url(#paint0_linear_1363_647)"/>
<path d="M25.791 37.4824V35.3535C26.7025 36.0762 27.7311 36.4375 28.877 36.4375C29.8079 36.4375 30.5501 36.2259 31.1035 35.8027C31.6634 35.3796 31.9434 34.8066 31.9434 34.084C31.9434 32.4954 30.7292 31.7012 28.3008 31.7012H27.2168V29.8848H28.252C30.4069 29.8848 31.4844 29.1361 31.4844 27.6387C31.4844 26.2585 30.6445 25.5684 28.9648 25.5684C28.0273 25.5684 27.1452 25.9036 26.3184 26.5742V24.5625C27.2689 24.0286 28.3919 23.7617 29.6875 23.7617C30.931 23.7617 31.9271 24.0742 32.6758 24.6992C33.4245 25.3242 33.7988 26.125 33.7988 27.1016C33.7988 28.944 32.8613 30.1289 30.9863 30.6562V30.6953C31.9954 30.793 32.793 31.1478 33.3789 31.7598C33.9648 32.3652 34.2578 33.1237 34.2578 34.0352C34.2578 35.2917 33.7858 36.3073 32.8418 37.082C31.8978 37.8503 30.6543 38.2344 29.1113 38.2344C27.7246 38.2344 26.6178 37.9837 25.791 37.4824Z" fill="white"/>
<path d="M30 4.35C30 3.60442 30.6048 2.99648 31.3495 3.03374C35.5725 3.24505 39.6936 4.44578 43.3774 6.54695C47.4526 8.87142 50.8518 12.2177 53.24 16.2559C55.6282 20.2941 56.923 24.8849 56.9967 29.5759C57.0704 34.2669 55.9205 38.8961 53.6603 43.0073C51.4001 47.1186 48.1077 50.5699 44.1075 53.0213C40.1073 55.4726 35.5373 56.8393 30.8481 56.9867C26.1589 57.134 21.5121 56.057 17.3659 53.8617C13.618 51.8773 10.3959 49.041 7.95472 45.5886C7.52425 44.9799 7.71347 44.1435 8.34299 43.744C8.97251 43.3445 9.80367 43.5334 10.2375 44.1398C12.425 47.1972 15.2961 49.7107 18.6293 51.4755C22.3609 53.4513 26.543 54.4206 30.7633 54.288C34.9836 54.1554 39.0965 52.9254 42.6967 50.7192C46.2969 48.513 49.2601 45.4067 51.2943 41.7066C53.3284 38.0065 54.3633 33.8402 54.297 29.6183C54.2307 25.3964 53.0654 21.2647 50.916 17.6303C48.7667 13.9959 45.7074 10.9843 42.0396 8.89226C38.7635 7.02358 35.1029 5.94623 31.3494 5.73749C30.6049 5.69609 30 5.09559 30 4.35Z" fill="white"/>
<defs>
<linearGradient id="paint0_linear_1363_647" x1="30" y1="47" x2="8" y2="-1.72456e-06" gradientUnits="userSpaceOnUse">
<stop stop-color="#212529"/>
<stop offset="1" stop-color="#73818F"/>
</linearGradient>
</defs>
</svg>
