<svg width="60" height="60" viewBox="0 0 60 60" fill="none" xmlns="http://www.w3.org/2000/svg">
<circle cx="30" cy="30" r="30" fill="url(#paint0_linear_1363_637)"/>
<path d="M34.4727 38H26.1328V36.125H29.1797V26.2227L26.0547 27.0527V25.0801L31.4453 23.7324V36.125H34.4727V38Z" fill="white"/>
<path d="M30 4.35C30 3.60442 30.6048 2.99648 31.3495 3.03374C35.5725 3.24505 39.6936 4.44578 43.3774 6.54695C47.4526 8.87142 50.8518 12.2177 53.24 16.2559C55.6282 20.2941 56.923 24.8849 56.9967 29.5759C57.0633 33.8162 56.1301 38.0061 54.2808 41.8085C53.9547 42.479 53.1306 42.7162 52.4773 42.357C51.8239 41.9978 51.5891 41.1784 51.9115 40.5061C53.5368 37.1163 54.3562 33.3895 54.297 29.6183C54.2307 25.3964 53.0654 21.2647 50.916 17.6303C48.7667 13.9959 45.7074 10.9843 42.0396 8.89226C38.7635 7.02358 35.1029 5.94623 31.3494 5.73749C30.6049 5.69609 30 5.09559 30 4.35Z" fill="white"/>
<defs>
<linearGradient id="paint0_linear_1363_637" x1="30" y1="47" x2="8" y2="-1.72456e-06" gradientUnits="userSpaceOnUse">
<stop stop-color="#212529"/>
<stop offset="1" stop-color="#73818F"/>
</linearGradient>
</defs>
</svg>
