<svg width="195" height="30" viewBox="0 0 195 30" fill="none" xmlns="http://www.w3.org/2000/svg">
<g clip-path="url(#clip0_119_252)">
<mask id="mask0_119_252" style="mask-type:luminance" maskUnits="userSpaceOnUse" x="0" y="0" width="195" height="30">
<path d="M195 0H0V30H195V0Z" fill="white"/>
</mask>
<g mask="url(#mask0_119_252)">
<path d="M31.9757 11.1279L38.3694 7.39714L19.1836 3.69824L31.9757 11.1279Z" fill="url(#paint0_linear_119_252)"/>
<path d="M12.7937 7.42967L19.1857 3.69887L0 0L12.7937 7.42967Z" fill="url(#paint1_linear_119_252)"/>
<path d="M25.5945 22.3125L31.9866 18.5801L12.8008 14.8828L25.5945 22.3125Z" fill="url(#paint2_linear_119_252)"/>
<path d="M38.3686 7.39746L31.9845 18.5819L31.9766 11.1283L38.3686 7.39746Z" fill="#005CB9"/>
<path d="M31.9858 18.5811L25.6017 29.7671L25.5938 22.3135L31.9858 18.5811Z" fill="#758592"/>
<path d="M19.1851 3.69824L12.8009 14.8827L12.793 7.42908L19.1851 3.69824Z" fill="#8A1E41"/>
<path d="M47.3021 26.6768H42.4961L41.6769 29.3643C41.6357 29.5049 41.5755 29.6072 41.4979 29.6711C41.4202 29.735 41.284 29.767 41.089 29.767H38.633C38.4793 29.767 38.3842 29.7254 38.3493 29.6407C38.3145 29.556 38.3113 29.457 38.3383 29.3451L42.7037 16.0739C42.7734 15.8342 42.8542 15.6393 42.9446 15.4923C43.0348 15.3438 43.141 15.2271 43.2599 15.1424C43.3787 15.0577 43.5182 14.9986 43.6798 14.9618C43.8398 14.9267 44.0268 14.9092 44.2359 14.9092H45.4957C45.7333 14.9092 45.9362 14.9203 46.1042 14.9411C46.2721 14.9618 46.4195 15.0146 46.5446 15.0993C46.6698 15.184 46.7792 15.3038 46.8695 15.4588C46.9598 15.6138 47.0485 15.8183 47.1325 16.0723L51.498 29.3435C51.5265 29.4282 51.5265 29.5209 51.498 29.6184C51.4695 29.7174 51.3791 29.767 51.2254 29.767H48.7282C48.5745 29.767 48.4446 29.7494 48.34 29.7142C48.2354 29.679 48.1609 29.5832 48.1197 29.4282L47.3021 26.6768ZM43.2519 24.0724H46.5478L45.7508 21.3738L44.9744 18.3364H44.8492L44.0522 21.3738L43.2519 24.0724Z" fill="white"/>
<path d="M59.3957 27.0793C60.0676 27.0793 60.6618 26.9978 61.1799 26.8364C61.6981 26.6751 62.1798 26.5089 62.6282 26.3395C62.8247 26.2548 62.9642 26.2373 63.0481 26.2868C63.1321 26.3363 63.2082 26.4386 63.2795 26.5935L63.9925 28.1179C64.0908 28.316 64.1256 28.4645 64.0971 28.562C64.0686 28.6611 63.9925 28.7458 63.8658 28.8161C63.11 29.2811 62.3161 29.5958 61.4826 29.7572C60.6507 29.9185 59.8283 30.0001 59.017 30.0001C57.8698 30.0001 56.8794 29.8275 56.0476 29.4807C55.2141 29.1356 54.5296 28.6371 53.9909 27.9884C53.4521 27.3397 53.0528 26.5456 52.7945 25.6077C52.5346 24.6698 52.4062 23.6153 52.4062 22.4441C52.4062 21.2873 52.5711 20.236 52.8991 19.2901C53.227 18.3442 53.6866 17.5341 54.2745 16.8567C54.8623 16.1792 55.5722 15.6567 56.4057 15.2909C57.2375 14.9233 58.1582 14.7412 59.166 14.7412C59.879 14.7412 60.5794 14.8019 61.2655 14.9217C61.9516 15.0416 62.6219 15.2845 63.2811 15.6519C63.4348 15.7366 63.5251 15.8213 63.5536 15.906C63.5821 15.9907 63.5457 16.1537 63.449 16.3933L62.7978 17.8537C62.7281 18.0518 62.6536 18.1717 62.5775 18.2132C62.4999 18.2547 62.3636 18.2419 62.1687 18.1701C61.6648 17.9863 61.1958 17.8489 60.7616 17.7578C60.3274 17.6667 59.8442 17.6204 59.3134 17.6204C58.7397 17.6204 58.2327 17.7435 57.7922 17.9911C57.3517 18.2387 56.9809 18.5775 56.6798 19.0073C56.3787 19.4387 56.1522 19.9452 55.9968 20.5316C55.8432 21.1179 55.7656 21.7555 55.7656 22.4473C55.7656 23.1391 55.8257 23.7671 55.9446 24.3311C56.0634 24.8951 56.2663 25.3825 56.5531 25.7915C56.8399 26.2005 57.2138 26.5185 57.6765 26.7437C58.136 26.9659 58.7096 27.0793 59.3957 27.0793Z" fill="white"/>
<path d="M74.9683 19.8615L73.1006 23.0362L69.5528 28.8362C69.4274 29.0343 69.3147 29.1925 69.2165 29.3123C69.1184 29.4321 69.0136 29.528 68.9015 29.5983C68.7887 29.6687 68.6607 29.715 68.5134 29.7357C68.3655 29.7565 68.1885 29.7677 67.9775 29.7677H67.1378C66.5926 29.7677 66.2282 29.6367 66.046 29.3763C65.8638 29.1158 65.7734 28.7595 65.7734 28.3073V15.3333C65.7734 15.0649 65.9208 14.9307 66.2139 14.9307H68.4591C68.6561 14.9307 68.7774 14.9594 68.8272 15.0153C68.8763 15.0713 68.8995 15.1783 68.8995 15.3333V24.8577H69.0248L70.809 21.8938L74.4424 15.8829C74.5677 15.6848 74.6805 15.5235 74.7787 15.3956C74.8768 15.2694 74.981 15.1703 75.0937 15.1001C75.2065 15.0297 75.3312 14.9834 75.4711 14.9626C75.6104 14.9419 75.7862 14.9307 75.9951 14.9307H76.856C77.374 14.9307 77.7302 15.0409 77.9272 15.2582C78.1235 15.4771 78.2203 15.8622 78.2203 16.4118V29.3651C78.2203 29.6335 78.0724 29.7677 77.7799 29.7677H75.5341C75.3378 29.7677 75.2124 29.7389 75.1574 29.683C75.1017 29.6271 75.0731 29.5217 75.0731 29.3651V19.8615H74.9683Z" fill="white"/>
<path d="M97.5746 28.1792C98.1907 28.1792 98.7771 28.1089 99.3382 27.9683C99.8973 27.8277 100.422 27.6439 100.913 27.4186C101.067 27.3484 101.179 27.342 101.249 27.3978C101.319 27.4538 101.368 27.5177 101.396 27.588L101.796 28.4764C101.88 28.6458 101.908 28.7624 101.88 28.8263C101.851 28.8902 101.788 28.9573 101.691 29.0276C101.355 29.2257 100.996 29.3871 100.61 29.5149C100.225 29.6412 99.8403 29.7402 99.4549 29.8105C99.0702 29.8808 98.6902 29.9304 98.3115 29.9591C97.9341 29.9879 97.5759 30.0006 97.2403 30.0006C96.2606 30.0006 95.3831 29.852 94.6065 29.5565C93.8298 29.2593 93.1758 28.8087 92.6432 28.2016C92.1106 27.5944 91.702 26.8258 91.4155 25.8944C91.1283 24.9628 90.9844 23.8556 90.9844 22.571C90.9844 21.3854 91.1382 20.3101 91.4453 19.3434C91.7524 18.3768 92.1869 17.5523 92.746 16.8669C93.3058 16.183 93.9803 15.6574 94.7716 15.2898C95.5622 14.9224 96.4338 14.7402 97.3842 14.7402C97.9865 14.7402 98.6093 14.793 99.2526 14.8984C99.896 15.0038 100.575 15.2403 101.289 15.6078C101.372 15.651 101.428 15.7069 101.457 15.7772C101.485 15.8475 101.463 15.953 101.393 16.0952L100.91 17.0682C100.868 17.1529 100.823 17.2136 100.774 17.2488C100.724 17.2839 100.644 17.2743 100.533 17.2168C99.5538 16.779 98.5317 16.5601 97.4685 16.5601C96.6712 16.5601 95.988 16.7294 95.421 17.0682C94.8539 17.4069 94.3849 17.8543 94.0142 18.4119C93.6434 18.9696 93.3735 19.6118 93.2057 20.3372C93.0378 21.0642 92.9536 21.8088 92.9536 22.571C92.9536 23.3475 93.0266 24.0745 93.1738 24.7504C93.3217 25.4278 93.5731 26.0206 93.9299 26.5287C94.2861 27.0368 94.7617 27.4394 95.3573 27.735C95.9536 28.0322 96.6918 28.1792 97.5746 28.1792Z" fill="white"/>
<path d="M116.064 18.3802H115.959C115.93 18.4233 115.861 18.5879 115.748 18.8771C115.636 19.1663 115.514 19.481 115.381 19.8198C115.247 20.1585 115.125 20.4764 115.013 20.772C114.9 21.0676 114.837 21.237 114.824 21.2802C114.783 21.3936 114.697 21.6013 114.572 21.9049C114.445 22.2084 114.303 22.5616 114.142 22.9626C113.98 23.3652 113.809 23.7919 113.626 24.2424C113.444 24.6946 113.268 25.1212 113.1 25.5223C112.932 25.9249 112.785 26.2764 112.658 26.58C112.531 26.8836 112.448 27.0849 112.406 27.184C112.294 27.5083 112.168 27.7304 112.028 27.8502C111.886 27.9701 111.655 28.0308 111.333 28.0308H110.64C110.316 28.0308 110.082 27.9701 109.934 27.8502C109.787 27.7304 109.657 27.5083 109.544 27.184C109.503 27.0705 109.414 26.8628 109.282 26.5592C109.148 26.2556 109.001 25.9074 108.839 25.5111C108.678 25.1164 108.502 24.693 108.313 24.2408C108.125 23.7887 107.949 23.3668 107.787 22.9706C107.626 22.576 107.478 22.226 107.345 21.9225C107.212 21.6189 107.125 21.4112 107.082 21.2977L106.009 18.5879H105.884V29.4033C105.884 29.5583 105.855 29.6573 105.802 29.6989C105.747 29.7404 105.643 29.7628 105.491 29.7628H104.453C104.315 29.7628 104.214 29.7421 104.152 29.6989C104.09 29.6573 104.059 29.5583 104.059 29.4033V15.9851C104.059 15.6608 104.128 15.4035 104.268 15.2118C104.407 15.0216 104.68 14.9258 105.085 14.9258H105.651C105.959 14.9258 106.193 14.9785 106.353 15.084C106.513 15.1894 106.664 15.4195 106.803 15.7726L109.695 23.0106C109.724 23.0665 109.796 23.2534 109.915 23.5714C110.034 23.8893 110.166 24.2344 110.313 24.6084C110.459 24.9822 110.592 25.3274 110.71 25.6453C110.83 25.9632 110.903 26.1502 110.931 26.2061H111.015C111.03 26.1502 111.099 25.9664 111.224 25.6565C111.349 25.3465 111.483 25.011 111.622 24.6515C111.761 24.292 111.891 23.9564 112.01 23.6465C112.129 23.3365 112.202 23.1528 112.231 23.0968C112.286 22.9562 112.391 22.691 112.544 22.3027C112.698 21.9145 112.875 21.4671 113.078 20.959C113.281 20.4509 113.498 19.9108 113.728 19.3404C113.959 18.7684 114.171 18.2364 114.366 17.7426C114.561 17.249 114.729 16.8223 114.87 16.4628C115.011 16.1033 115.101 15.8732 115.143 15.7742C115.282 15.4211 115.436 15.1926 115.604 15.0856C115.772 14.9801 116.001 14.9274 116.296 14.9274H116.862C117.282 14.9274 117.557 15.0232 117.689 15.2134C117.822 15.4035 117.889 15.6608 117.889 15.9867V29.4049C117.889 29.5599 117.86 29.6589 117.807 29.7005C117.751 29.742 117.648 29.7644 117.496 29.7644H116.458C116.32 29.7644 116.219 29.7436 116.157 29.7005C116.095 29.6574 116.064 29.5599 116.064 29.4049V18.3802Z" fill="white"/>
<path d="M130.588 29.767C130.463 29.767 130.36 29.7526 130.284 29.7254C130.206 29.6966 130.14 29.6056 130.084 29.4506L129.036 26.3397H123.115L122.067 29.4506C121.996 29.6631 121.849 29.7685 121.626 29.7685H120.198C120.059 29.7685 119.97 29.7302 119.935 29.6519C119.9 29.5752 119.897 29.4793 119.924 29.3659L124.668 15.756C124.781 15.4172 124.906 15.1952 125.045 15.0897C125.185 14.9842 125.416 14.9235 125.738 14.9092H126.367C126.744 14.9092 127.001 14.973 127.132 15.0993C127.265 15.2255 127.387 15.446 127.5 15.756L132.223 29.3659C132.264 29.465 132.27 29.556 132.235 29.6407C132.199 29.7254 132.113 29.767 131.971 29.767H130.588ZM127.083 20.1994L126.096 17.0885H125.991L125.047 20.094L123.619 24.6237H128.488L127.083 20.1994Z" fill="white"/>
<path d="M134.241 15.9874C134.241 15.6198 134.317 15.3482 134.471 15.1725C134.625 14.9967 134.897 14.9072 135.289 14.9072H140.169C140.825 14.9072 141.429 15.0127 141.98 15.2252C142.532 15.4377 143.007 15.7365 143.405 16.1248C143.803 16.513 144.113 16.978 144.336 17.5212C144.56 18.0645 144.672 18.6604 144.672 19.3092C144.672 19.6894 144.609 20.1416 144.484 20.6641C144.358 21.1866 144.124 21.6802 143.782 22.1452C143.44 22.6102 142.966 23.0064 142.357 23.3308C141.75 23.6551 140.972 23.8181 140.023 23.8181H136.129V29.4056C136.129 29.5605 136.1 29.6596 136.044 29.7012C135.989 29.7427 135.883 29.765 135.729 29.765H134.638C134.498 29.765 134.397 29.7443 134.333 29.7012C134.269 29.658 134.238 29.5605 134.238 29.4056V15.9874H134.241ZM142.7 19.4162C142.7 19.1206 142.654 18.8122 142.564 18.4959C142.471 18.1779 142.315 17.8887 142.091 17.6283C141.868 17.3678 141.559 17.149 141.167 16.9716C140.776 16.7958 140.287 16.7064 139.698 16.7064H136.15V22.1037H139.739C140.733 22.1037 141.474 21.8672 141.965 21.3942C142.455 20.9229 142.7 20.263 142.7 19.4162Z" fill="white"/>
<path d="M150.171 16.6646H146.078C145.953 16.6646 145.872 16.6407 145.838 16.5911C145.802 16.5416 145.785 16.4537 145.785 16.3259V15.2889C145.785 15.1755 145.802 15.0908 145.838 15.0349C145.872 14.9789 145.953 14.9502 146.078 14.9502H156.364C156.489 14.9502 156.569 14.9789 156.604 15.0349C156.639 15.0908 156.657 15.1755 156.657 15.2889V16.3259C156.657 16.4521 156.639 16.5416 156.604 16.5911C156.569 16.6407 156.489 16.6646 156.364 16.6646H152.144V29.4069C152.144 29.5619 152.115 29.661 152.06 29.7025C152.005 29.7441 151.906 29.7665 151.766 29.7665H150.571C150.431 29.7665 150.33 29.7457 150.266 29.7025C150.203 29.661 150.171 29.5619 150.171 29.4069V16.6646Z" fill="white"/>
<path d="M168.342 29.6606C168.293 29.7309 168.184 29.7661 168.017 29.7661H162.181C161.495 29.7661 160.924 29.667 160.469 29.4705C160.014 29.2724 159.65 29.0119 159.378 28.6876C159.105 28.3632 158.912 27.9813 158.801 27.5451C158.689 27.1074 158.633 26.6424 158.633 26.1487V18.572C158.633 18.0927 158.696 17.6293 158.821 17.1851C158.947 16.7409 159.154 16.3527 159.441 16.0203C159.728 15.6896 160.095 15.4244 160.544 15.2263C160.992 15.0281 161.537 14.9307 162.181 14.9307H167.911C168.064 14.9307 168.166 14.9658 168.215 15.0361C168.264 15.1064 168.287 15.2199 168.287 15.3749V16.2632C168.287 16.4182 168.262 16.5285 168.215 16.5907C168.166 16.6547 168.064 16.6866 167.911 16.6866H162.201C161.614 16.6866 161.19 16.8177 160.932 17.0781C160.674 17.3401 160.544 17.7443 160.544 18.2956V21.047H167.218C167.372 21.047 167.473 21.0821 167.523 21.1524C167.572 21.2227 167.595 21.3362 167.595 21.4911V22.2949C167.595 22.4355 167.57 22.5425 167.523 22.6128C167.473 22.6831 167.372 22.7183 167.218 22.7183H160.544V26.4011C160.544 26.8805 160.669 27.2655 160.921 27.5547C161.173 27.8439 161.599 27.9893 162.201 27.9893H168.015C168.183 27.9893 168.291 28.0245 168.34 28.0948C168.389 28.1651 168.413 28.2785 168.413 28.4335V29.3219C168.415 29.4769 168.391 29.5903 168.342 29.6606Z" fill="white"/>
<path d="M178.173 21.8286C178.537 21.942 178.837 22.0826 179.077 22.252C179.314 22.4214 179.514 22.6195 179.676 22.8448C179.835 23.0701 179.965 23.3177 180.064 23.5862C180.162 23.8546 180.252 24.1502 180.336 24.4745L181.659 29.3845C181.688 29.4548 181.688 29.5363 181.659 29.6274C181.631 29.72 181.541 29.7648 181.387 29.7648H180.107C180.036 29.7648 179.959 29.7504 179.875 29.7232C179.791 29.6945 179.736 29.6178 179.707 29.49L178.447 24.7701C178.335 24.3611 178.202 24.0256 178.048 23.7651C177.895 23.5047 177.704 23.2954 177.481 23.1404C177.257 22.9854 177.005 22.88 176.725 22.8224C176.445 22.7665 176.123 22.7378 175.76 22.7378H172.78V29.4468C172.78 29.5874 172.754 29.6769 172.707 29.712C172.658 29.7472 172.57 29.7648 172.443 29.7648H171.227C171.114 29.7648 171.03 29.7472 170.975 29.712C170.919 29.6769 170.891 29.589 170.891 29.4468V15.2681C170.891 15.1275 170.919 15.0396 170.975 15.0028C171.03 14.9677 171.114 14.9502 171.227 14.9502H172.466C172.591 14.9502 172.679 14.9677 172.729 15.0028C172.778 15.038 172.796 15.1259 172.781 15.2681V20.9834H175.573C175.796 20.9834 176.034 20.9594 176.286 20.9099C176.538 20.8604 176.779 20.7613 177.01 20.6143C177.241 20.4657 177.454 20.2516 177.651 19.9688C177.847 19.686 178.007 19.3121 178.133 18.8471L179.078 15.185C179.106 15.0588 179.159 14.9805 179.235 14.9517C179.311 14.923 179.386 14.9102 179.455 14.9102H180.61C180.779 14.9102 180.873 14.9597 180.894 15.0588C180.915 15.1578 180.911 15.2425 180.883 15.3128L179.959 19.1012C179.806 19.7084 179.588 20.234 179.308 20.6782C179.028 21.1224 178.65 21.4723 178.175 21.7264V21.8286H178.173Z" fill="white"/>
<path d="M193.327 29.767C193.201 29.767 193.099 29.7526 193.022 29.7254C192.945 29.6966 192.878 29.6056 192.823 29.4506L191.773 26.3397H185.854L184.804 29.4506C184.735 29.6631 184.588 29.7685 184.364 29.7685H182.937C182.797 29.7685 182.709 29.7302 182.673 29.6519C182.639 29.5752 182.636 29.4793 182.662 29.3659L187.406 15.756C187.519 15.4172 187.645 15.1952 187.784 15.0897C187.923 14.9842 188.155 14.9235 188.476 14.9092H189.105C189.482 14.9092 189.739 14.973 189.87 15.0993C190.004 15.2255 190.126 15.446 190.238 15.756L194.962 29.3659C195.003 29.465 195.007 29.556 194.973 29.6407C194.938 29.7254 194.851 29.767 194.71 29.767H193.327ZM189.821 20.1994L188.834 17.0885H188.73L187.785 20.094L186.358 24.6237H191.227L189.821 20.1994Z" fill="white"/>
</g>
</g>
<defs>
<linearGradient id="paint0_linear_119_252" x1="19.1832" y1="7.41294" x2="38.3689" y2="7.41294" gradientUnits="userSpaceOnUse">
<stop stop-color="#C2E4F3"/>
<stop offset="0.1352" stop-color="#BEE2F2"/>
<stop offset="0.279" stop-color="#B1DBEE"/>
<stop offset="0.4267" stop-color="#9CD1E8"/>
<stop offset="0.5771" stop-color="#7EC2E0"/>
<stop offset="0.7296" stop-color="#58AED5"/>
<stop offset="0.8816" stop-color="#2997C9"/>
<stop offset="1" stop-color="#0082BD"/>
</linearGradient>
<linearGradient id="paint1_linear_119_252" x1="0" y1="3.71487" x2="19.1854" y2="3.71487" gradientUnits="userSpaceOnUse">
<stop stop-color="#F6BDBD"/>
<stop offset="1" stop-color="#E20613"/>
</linearGradient>
<linearGradient id="paint2_linear_119_252" x1="12.8006" y1="18.5972" x2="28.8119" y2="18.5972" gradientUnits="userSpaceOnUse">
<stop stop-color="#EAEAEA"/>
<stop offset="1" stop-color="#E0DFE0"/>
</linearGradient>
<clipPath id="clip0_119_252">
<rect width="195" height="30" fill="white"/>
</clipPath>
</defs>
</svg>
