<svg width="206" height="58" viewBox="0 0 206 58" fill="none" xmlns="http://www.w3.org/2000/svg">
<path d="M14.4939 0.000976562C6.48966 0.000976562 0 6.49237 0 14.5008V43.5015C0 51.5095 6.48966 58.001 14.4939 58.001H43.4826C51.4872 58.001 57.9768 51.5095 57.9768 43.5015V0.000976562H14.4939Z" fill="#B1EC52"/>
<path d="M15.8457 23.1609C15.3715 21.0866 17.4403 19.2511 20.1162 19.2511C22.5266 19.2511 24.9427 19.7918 25.8621 23.1539H28.952V28.2848C25.0996 25.1168 16.7476 27.1045 15.8457 23.1609ZM47.9072 21.7404H40.9466L34.3248 28.9957V14.5003H28.952V18.0125C28.7767 17.7862 28.5918 17.5612 28.3848 17.3416C26.431 15.2725 23.6162 14.2234 20.0173 14.2234C15.8553 14.2234 13.4891 16.0869 12.2366 17.6499C10.6811 19.5903 9.9866 22.2388 10.4672 24.3967C11.7123 29.9831 16.8938 30.8753 20.7003 31.3704C23.7055 31.7614 26.5805 32.3072 26.5042 34.9869C26.4246 37.7679 23.2911 38.4517 21.2343 38.4517C15.8775 38.4517 15.6967 34.4904 15.6967 34.4904H9.93555C10.0197 35.978 10.4691 38.3662 12.2996 40.4155C14.304 42.661 17.3102 43.7988 21.2343 43.7988C24.2445 43.7988 26.9866 42.8179 28.952 41.0757V43.4698H34.3248V36.6273L36.2258 34.5471L41.6526 43.4698H47.9053L40.0083 30.4013L47.9072 21.7404Z" fill="#424B52"/>
<path d="M82.2052 27.4772C82.0552 27.2062 81.845 26.9353 81.6343 26.6647C81.3933 26.424 81.1229 26.1834 80.7623 25.9727C80.4311 25.7619 80.0103 25.6119 79.5292 25.4614C79.0476 25.3408 78.5068 25.2806 77.845 25.2806C77.5746 25.2806 77.2438 25.311 76.8828 25.3708C76.5217 25.4615 76.1308 25.5815 75.7399 25.7619C75.3489 25.9727 74.958 26.2437 74.5671 26.5749C74.2064 26.9053 73.8454 27.3572 73.5745 27.8982C73.2442 28.4702 73.0032 29.1314 72.8225 29.9136C72.6427 30.6958 72.5525 31.6284 72.5525 32.7117C72.5525 33.885 72.6726 34.9078 72.9131 35.8404C73.1537 36.7736 73.5147 37.5558 73.9654 38.1871C74.417 38.8193 74.9883 39.3001 75.6497 39.6315C76.2812 39.9622 77.0327 40.1427 77.845 40.1427C78.8076 40.1427 79.5591 39.9921 80.1608 39.7216C80.7623 39.4207 81.2434 39.0595 81.604 38.6385C81.9651 38.218 82.236 37.7661 82.3859 37.3147C82.5662 36.8638 82.717 36.4424 82.8067 36.1115H87.2874C87.0473 37.4651 86.6563 38.6385 86.0847 39.6315C85.5134 40.624 84.8216 41.436 84.0099 42.0981C83.1976 42.7602 82.2957 43.2415 81.2733 43.5724C80.2504 43.9036 79.1682 44.0537 78.0257 44.0537C76.4316 44.0537 74.9883 43.7831 73.7552 43.2415C72.5222 42.7298 71.4698 41.9482 70.6277 40.9856C69.7855 39.9921 69.1541 38.7889 68.7029 37.375C68.2521 35.9913 68.0415 34.4269 68.0415 32.7117C68.0415 31.3883 68.162 30.1847 68.4324 29.1015C68.673 28.0184 69.0341 27.0558 69.4848 26.2138C69.936 25.3707 70.4768 24.6792 71.1088 24.047C71.7104 23.4452 72.3717 22.934 73.1238 22.5429C73.8454 22.1517 74.5974 21.8509 75.4091 21.6405C76.221 21.4597 77.0327 21.3696 77.845 21.3696C79.0177 21.3696 80.0706 21.4906 80.9725 21.7307C81.8749 22.0018 82.6867 22.3026 83.378 22.7237C84.0697 23.1447 84.6414 23.5961 85.1225 24.1372C85.6036 24.6792 86.0244 25.2208 86.3257 25.7619C86.6265 26.3338 86.8367 26.9053 87.0174 27.4468C87.1673 28.0184 87.2575 28.53 87.2874 29.0113H82.7768L82.5662 28.2894C82.4761 28.0184 82.356 27.7782 82.2052 27.4772Z" fill="#424B52"/>
<path d="M99.2988 27.5072H104.833L98.2165 34.156L105.103 43.5122H99.6897L94.9984 36.7428L93.3145 38.4582V43.5122H89.165V27.5072H93.3145V33.5846L99.2988 27.5072Z" fill="#424B52"/>
<path d="M108.874 37.2846C108.995 37.8859 109.205 38.4275 109.536 38.8789C109.837 39.3602 110.228 39.7513 110.709 40.0223C111.19 40.2933 111.791 40.4433 112.513 40.4433C113.265 40.4433 113.896 40.2933 114.378 40.0223C114.859 39.7513 115.25 39.3602 115.55 38.9093C115.851 38.4579 116.062 37.9467 116.182 37.3444C116.302 36.7425 116.362 36.1412 116.362 35.5095C116.362 34.8776 116.302 34.2758 116.182 33.6744C116.062 33.0726 115.851 32.531 115.55 32.0801C115.25 31.6282 114.859 31.2675 114.378 30.9666C113.896 30.6955 113.265 30.5755 112.513 30.5755C111.791 30.5755 111.19 30.7259 110.709 30.997C110.228 31.2675 109.837 31.6581 109.536 32.11C109.205 32.5913 108.995 33.1025 108.874 33.7043C108.754 34.3057 108.664 34.9075 108.664 35.5095C108.664 36.1113 108.754 36.7126 108.874 37.2846ZM104.905 32.11C105.266 31.0568 105.807 30.1545 106.528 29.4022C107.25 28.6503 108.093 28.0784 109.115 27.657C110.137 27.2359 111.25 27.0256 112.513 27.0256C113.806 27.0256 114.949 27.2359 115.971 27.657C116.994 28.0784 117.836 28.6503 118.527 29.4022C119.219 30.1545 119.761 31.0568 120.152 32.11C120.512 33.1334 120.692 34.2758 120.692 35.5095C120.692 36.7425 120.512 37.8859 120.152 38.9093C119.761 39.962 119.219 40.8644 118.527 41.6166C117.836 42.3386 116.994 42.9405 115.971 43.3619C114.949 43.7829 113.806 43.9937 112.513 43.9937C111.25 43.9937 110.137 43.7829 109.115 43.3619C108.093 42.9405 107.25 42.3386 106.528 41.6166C105.807 40.8644 105.266 39.962 104.905 38.9093C104.544 37.8859 104.333 36.7425 104.333 35.5095C104.333 34.2758 104.544 33.1334 104.905 32.11Z" fill="#424B52"/>
<path d="M128.512 30.876L128.453 33.8548C128.392 35.5393 128.272 37.0135 128.121 38.2771C127.941 39.541 127.67 40.5938 127.31 41.4358C126.919 42.2787 126.408 42.9101 125.775 43.3619C125.144 43.7829 124.302 43.9937 123.31 43.9937C122.828 43.9937 122.437 43.9633 122.077 43.9333C121.716 43.873 121.445 43.7829 121.205 43.6922V40.2026C121.355 40.2625 121.535 40.3233 121.746 40.3835C121.956 40.4134 122.197 40.4433 122.497 40.4433C122.828 40.4433 123.099 40.3532 123.339 40.1424C123.581 39.962 123.791 39.6312 123.972 39.12C124.152 38.6079 124.272 37.9158 124.392 37.0135C124.483 36.1113 124.543 34.9679 124.573 33.5544L124.693 27.5069H137.564V43.5119H133.444V30.876H128.512Z" fill="#424B52"/>
<path d="M150.727 27.5072H156.26L149.644 34.156L156.531 43.5122H151.118L146.426 36.7428L144.743 38.4582V43.5122H140.593V27.5072H144.743V33.5846L150.727 27.5072Z" fill="#424B52"/>
<path d="M160.302 37.2846C160.422 37.8859 160.633 38.4275 160.964 38.8789C161.264 39.3602 161.655 39.7513 162.137 40.0223C162.618 40.2933 163.219 40.4433 163.942 40.4433C164.693 40.4433 165.324 40.2933 165.805 40.0223C166.287 39.7513 166.678 39.3602 166.978 38.9093C167.28 38.4579 167.489 37.9467 167.609 37.3444C167.73 36.7425 167.791 36.1412 167.791 35.5095C167.791 34.8776 167.73 34.2758 167.609 33.6744C167.489 33.0726 167.28 32.531 166.978 32.0801C166.678 31.6282 166.287 31.2675 165.805 30.9666C165.324 30.6955 164.693 30.5755 163.942 30.5755C163.219 30.5755 162.618 30.7259 162.137 30.997C161.655 31.2675 161.264 31.6581 160.964 32.11C160.633 32.5913 160.422 33.1025 160.302 33.7043C160.182 34.3057 160.091 34.9075 160.091 35.5095C160.091 36.1113 160.182 36.7126 160.302 37.2846ZM156.333 32.11C156.693 31.0568 157.235 30.1545 157.957 29.4022C158.678 28.6503 159.52 28.0784 160.542 27.657C161.565 27.2359 162.678 27.0256 163.942 27.0256C165.234 27.0256 166.378 27.2359 167.4 27.657C168.422 28.0784 169.263 28.6503 169.956 29.4022C170.647 30.1545 171.189 31.0568 171.579 32.11C171.94 33.1334 172.12 34.2758 172.12 35.5095C172.12 36.7425 171.94 37.8859 171.579 38.9093C171.189 39.962 170.647 40.8644 169.956 41.6166C169.263 42.3386 168.422 42.9405 167.4 43.3619C166.378 43.7829 165.234 43.9937 163.942 43.9937C162.678 43.9937 161.565 43.7829 160.542 43.3619C159.52 42.9405 158.678 42.3386 157.957 41.6166C157.235 40.8644 156.693 39.962 156.333 38.9093C155.972 37.8859 155.761 36.7425 155.761 35.5095C155.761 34.2758 155.972 33.1334 156.333 32.11Z" fill="#424B52"/>
<path d="M182.875 40.3838C183.236 40.2329 183.507 40.0825 183.718 39.8722C183.898 39.6917 184.049 39.4807 184.109 39.2404C184.169 38.9994 184.198 38.789 184.198 38.5783C184.198 38.1872 184.169 37.8563 184.049 37.5859C183.958 37.3447 183.807 37.134 183.567 36.9839C183.356 36.8036 183.056 36.7129 182.695 36.6527C182.334 36.5929 181.913 36.5625 181.402 36.5625H178.214V40.5638H181.402C182.003 40.5638 182.514 40.5039 182.875 40.3838ZM182.605 33.6747C182.905 33.5846 183.145 33.4939 183.327 33.3439C183.507 33.223 183.656 33.043 183.718 32.8318C183.807 32.6215 183.838 32.3505 183.838 32.0804C183.838 31.8393 183.807 31.6285 183.718 31.4183C183.656 31.2375 183.507 31.0571 183.327 30.9071C183.176 30.7861 182.935 30.6659 182.634 30.5758C182.334 30.4851 181.973 30.4552 181.522 30.4552H178.214V33.7949H181.402C181.882 33.7949 182.273 33.735 182.605 33.6747ZM184.469 27.6876C185.131 27.8381 185.732 28.0493 186.273 28.3493C186.785 28.6806 187.205 29.1016 187.507 29.6436C187.807 30.1848 187.958 30.8763 187.958 31.7192C187.958 32.2005 187.927 32.6215 187.807 32.9529C187.717 33.3136 187.567 33.6145 187.387 33.8552C187.205 34.1261 186.996 34.3365 186.785 34.4869C186.544 34.6672 186.334 34.8181 186.063 34.9383C186.876 35.2093 187.476 35.6602 187.898 36.2919C188.318 36.9236 188.529 37.6461 188.529 38.5181C188.529 39.2703 188.409 39.9623 188.168 40.5638C187.898 41.166 187.536 41.7072 187.056 42.1282C186.574 42.5795 186.002 42.9104 185.311 43.1515C184.62 43.3917 183.867 43.5122 183.025 43.5122H174.064V27.5072H182.334C183.085 27.5072 183.778 27.5671 184.469 27.6876Z" fill="#424B52"/>
<path d="M194.183 37.2846C194.303 37.8859 194.514 38.4275 194.845 38.8789C195.145 39.3602 195.536 39.7513 196.017 40.0223C196.499 40.2933 197.099 40.4433 197.822 40.4433C198.574 40.4433 199.205 40.2933 199.686 40.0223C200.168 39.7513 200.559 39.3602 200.859 38.9093C201.16 38.4579 201.37 37.9467 201.49 37.3444C201.611 36.7425 201.671 36.1412 201.671 35.5095C201.671 34.8776 201.611 34.2758 201.49 33.6744C201.37 33.0726 201.16 32.531 200.859 32.0801C200.559 31.6282 200.168 31.2675 199.686 30.9666C199.205 30.6955 198.574 30.5755 197.822 30.5755C197.099 30.5755 196.499 30.7259 196.017 30.997C195.536 31.2675 195.145 31.6581 194.845 32.11C194.514 32.5913 194.303 33.1025 194.183 33.7043C194.063 34.3057 193.972 34.9075 193.972 35.5095C193.972 36.1113 194.063 36.7126 194.183 37.2846ZM190.214 32.11C190.574 31.0568 191.116 30.1545 191.838 29.4022C192.559 28.6503 193.401 28.0784 194.423 27.657C195.445 27.2359 196.559 27.0256 197.822 27.0256C199.115 27.0256 200.257 27.2359 201.28 27.657C202.302 28.0784 203.144 28.6503 203.835 29.4022C204.528 30.1545 205.069 31.0568 205.46 32.11C205.821 33.1334 206.001 34.2758 206.001 35.5095C206.001 36.7425 205.821 37.8859 205.46 38.9093C205.069 39.962 204.528 40.8644 203.835 41.6166C203.144 42.3386 202.302 42.9405 201.28 43.3619C200.257 43.7829 199.115 43.9937 197.822 43.9937C196.559 43.9937 195.445 43.7829 194.423 43.3619C193.401 42.9405 192.559 42.3386 191.838 41.6166C191.116 40.8644 190.574 39.962 190.214 38.9093C189.852 37.8859 189.642 36.7425 189.642 35.5095C189.642 34.2758 189.852 33.1334 190.214 32.11Z" fill="#424B52"/>
</svg>
