<svg width="179" height="54" viewBox="0 0 179 54" fill="none" xmlns="http://www.w3.org/2000/svg">
<g clip-path="url(#clip0_105_193)">
<path d="M0 27.0001V53.9907L0.86031 53.493C1.32284 53.2112 11.5726 47.2102 23.6262 40.1573C35.6797 33.0951 45.5502 27.3382 45.5594 27.3476C45.5687 27.3664 40.046 31.5173 33.2838 36.5792C26.5216 41.6412 20.9527 45.8297 20.8972 45.886C20.8417 45.9518 20.8232 47.5295 20.8325 49.99L20.8602 53.9813L43.8666 40.4954C57.7425 32.3626 66.8359 26.9813 66.7619 26.9344C66.7064 26.8968 56.3457 20.83 43.7556 13.4485L20.8602 0.0189018L20.814 15.8996L20.7677 31.7709L18.9823 20.9333C18.0018 14.9792 17.1877 10.0958 17.1784 10.0864C17.1599 10.0676 8.72336 5.11838 2.10915 1.23977L0 0.00951385V27.0001Z" fill="#DC0032"/>
<path d="M89.824 6.15147V9.5793H91.9516H94.0793V12.2183C94.0793 14.3219 94.0515 14.8384 93.9683 14.7727C93.9035 14.7163 93.6075 14.4816 93.3207 14.2468C91.5446 12.8005 89.0654 12.0868 86.5862 12.3122C83.404 12.5939 80.9248 14.3031 79.5557 17.1393C79.084 18.1254 78.8434 18.8673 78.5659 20.1915C78.4179 20.9146 78.3994 21.5908 78.3994 27.7515C78.3994 33.9122 78.4179 34.5977 78.5752 35.4993C79.306 39.7066 81.4984 42.4207 84.8934 43.2941C87.9183 44.083 90.8045 43.5007 93.293 41.6036L94.033 41.0402L94.0608 46.4871L94.0793 51.9341H98.057H102.035V46.4402C102.035 43.4162 102.053 40.9463 102.081 40.9463C102.109 40.9463 102.349 41.1247 102.618 41.3501C104.718 43.0875 107.16 43.8482 109.741 43.5758C112.534 43.2847 114.616 42.1014 115.985 40.0165C116.864 38.6923 117.391 37.2179 117.733 35.1424C117.881 34.2409 117.9 33.4708 117.9 27.7984C117.9 20.877 117.881 20.6329 117.335 18.7828C116.198 14.9793 113.469 12.669 109.667 12.3122C107.086 12.0586 104.412 12.9038 102.562 14.5567C102.331 14.7633 102.118 14.9323 102.09 14.9323C102.063 14.9323 102.035 12.1807 102.035 8.82799V2.72364H95.9294H89.824V6.15147ZM91.5353 19.6749C92.3124 19.844 92.9969 20.1727 93.6167 20.6704L94.0793 21.0367V28.0238V35.011L93.5335 35.3866C92.6547 35.9783 91.8499 36.2694 90.8878 36.3163C88.9174 36.429 87.4465 35.6308 86.7157 34.0436C86.2347 33.02 86.1977 32.5316 86.2347 27.5918C86.2625 23.2249 86.2717 23.1403 86.4752 22.5393C86.9748 21.1118 87.9368 20.1351 89.1764 19.7783C90.12 19.5153 90.6565 19.4871 91.5353 19.6749ZM106.429 19.628C108.14 19.8816 109.389 21.0649 109.852 22.8774C110.055 23.6944 110.055 32.3814 109.852 33.1984C109.334 35.2176 107.807 36.3445 105.606 36.3445C104.579 36.3445 103.441 35.9313 102.433 35.1894L102.035 34.9076V28.0238V21.1306L102.525 20.7456C103.376 20.0506 104.551 19.5904 105.55 19.5435C105.68 19.5435 106.077 19.581 106.429 19.628Z" fill="#002333"/>
<path d="M136.355 12.3685C133.894 12.6221 131.47 13.7115 129.796 15.2986C129.352 15.7212 129.269 15.7588 129.148 15.6367C129.065 15.5616 128.566 14.9323 128.029 14.2374L127.058 12.9696L124.819 12.9602H122.571V32.4471V51.9341H126.549H130.527V46.5904V41.2468L131.147 41.6694C132.34 42.477 133.7 43.0593 135.245 43.3974C136.531 43.6885 139.028 43.7167 140.24 43.4537C144.958 42.4301 147.798 39.2183 148.297 34.3723C148.362 33.7243 148.381 31.3483 148.353 27.4697C148.316 21.0837 148.307 20.9522 147.779 19.1866C146.623 15.3268 143.829 12.9696 139.75 12.4061C139.074 12.3122 137.095 12.2934 136.355 12.3685ZM137.687 19.8158C138.815 20.1727 139.676 21.0179 140.166 22.2482C140.379 22.7647 140.379 22.8304 140.407 27.7045C140.434 32.5035 140.425 32.6443 140.231 33.2923C139.639 35.2833 138.196 36.3445 136.068 36.3445C135.134 36.3445 134.125 36.1097 133.247 35.6871C132.525 35.3303 131.304 34.4099 130.851 33.884L130.527 33.4896V27.9299V22.3609L131.017 21.8819C132.247 20.6704 133.829 19.844 135.383 19.5998C135.892 19.5153 137.076 19.628 137.687 19.8158Z" fill="#002333"/>
<path d="M153.561 27.9861V43.0122L157.566 42.9934L161.562 42.9653L161.59 31.3858L161.609 19.8157H166.326H171.044V31.4139V43.0122H175.022H179V27.9861V12.96H166.28H153.561V27.9861Z" fill="#002333"/>
</g>
<defs>
<clipPath id="clip0_105_193">
<rect width="179" height="54" fill="white"/>
</clipPath>
</defs>
</svg>
