<svg width="163" height="26" viewBox="0 0 163 26" fill="none" xmlns="http://www.w3.org/2000/svg">
<g clip-path="url(#clip0_119_230)">
<path d="M27.8765 19.8418H13.9786C13.5769 19.9178 13.1752 19.9938 12.8539 20.2219C12.4522 20.45 12.1309 20.754 11.8898 21.0581L9.07812 25.6955H31.4916L27.8765 19.8418Z" fill="white"/>
<path d="M20.0821 18.0175C20.4837 18.2456 20.9658 18.3976 21.3675 18.3976H26.9909L15.744 0L12.1289 5.85378L18.9574 17.0292C19.2787 17.4093 19.6001 17.7894 20.0821 18.0175Z" fill="white"/>
<path d="M14.38 13.1516C14.38 12.6955 14.2997 12.2393 14.0586 11.8592L11.2469 7.29785L0 25.6955H7.14984L13.898 14.5961C14.2997 14.1399 14.38 13.6838 14.38 13.1516Z" fill="white"/>
<path d="M47.4765 12.088C47.4765 11.8599 47.7175 3.11724 47.7175 3.11724L45.2271 12.088H43.2991L40.8087 3.11724C40.8087 3.11724 41.0497 11.7079 41.0497 12.088H38.9609V1.14062H42.0941L44.3435 9.2751L46.5928 1.14062H49.7258V12.088H47.4765Z" fill="white"/>
<path d="M61.6984 12.088H59.5293V4.94179L54.3879 10.7956V12.088H52.2188V1.14062H54.3879V8.21078L59.5293 2.357V1.14062H61.6984V12.088Z" fill="white"/>
<path d="M71.4193 12.088V7.14646H66.4386V12.088H64.2695V1.14062H66.4386V5.24587H71.4193V1.14062H73.5884V12.088H71.4193Z" fill="white"/>
<path d="M85.3965 1.14062V12.088H83.2278V3.04121H78.4073V12.088H76.2383V1.14062H85.3965Z" fill="white"/>
<path d="M92.4655 1.14062C94.876 1.14062 96.563 2.50904 96.563 4.78973C96.563 6.76634 95.3578 8.36281 92.3049 8.36281H90.1362V12.088H88.0469V1.14062H92.4655ZM90.1362 6.69031H92.0641C93.5905 6.69031 94.3934 6.0061 94.3934 4.71371C94.3934 2.96517 92.867 2.88915 91.8232 2.88915H90.1362V6.69031Z" fill="white"/>
<path d="M103.231 0.835938C106.766 0.835938 108.774 3.57277 108.774 6.53768C108.774 9.04647 107.328 12.3154 103.231 12.3154C99.8571 12.3154 97.7678 9.65464 97.7678 6.61369C97.6875 3.42071 99.8571 0.835938 103.231 0.835938ZM103.231 10.4148C104.918 10.4148 106.525 9.19849 106.525 6.68972C106.525 4.71311 105.48 2.73651 103.151 2.73651C101.223 2.73651 99.8571 4.18096 99.8571 6.53768C99.8571 8.21019 100.74 10.4148 103.231 10.4148Z" fill="white"/>
<path d="M119.376 12.088C119.376 11.8599 119.616 3.11724 119.616 3.11724L117.126 12.088H115.198L112.707 3.11724C112.707 3.11724 112.949 11.7079 112.949 12.088H110.859V1.14062H113.993L116.242 9.2751L118.491 1.14062H121.625V12.088H119.376Z" fill="white"/>
<path d="M128.373 2.96517V12.0119H126.203V2.96517H123.07V1.14062H131.586V2.96517H128.373Z" fill="white"/>
<path d="M138.258 0.835938C141.792 0.835938 143.8 3.57277 143.8 6.53768C143.8 9.04647 142.354 12.3154 138.258 12.3154C134.884 12.3154 132.795 9.65464 132.795 6.61369C132.714 3.42071 134.964 0.835938 138.258 0.835938ZM138.258 10.4148C139.945 10.4148 141.632 9.19849 141.632 6.68972C141.632 4.71311 140.587 2.73651 138.258 2.73651C136.33 2.73651 134.964 4.18096 134.964 6.53768C134.964 8.21019 135.847 10.4148 138.258 10.4148Z" fill="white"/>
<path d="M150.386 1.14062C152.796 1.14062 154.483 2.50904 154.483 4.78973C154.483 6.76634 153.278 8.36281 150.225 8.36281H148.056V12.088H145.887V1.14062H150.386ZM148.056 6.69031H149.984C151.511 6.69031 152.314 6.0061 152.314 4.71371C152.314 2.96517 150.787 2.88915 149.743 2.88915H148.056V6.69031Z" fill="white"/>
<path d="M162.998 1.14048V2.96504H158.259V12.0118H156.09V1.06445H162.998" fill="white"/>
<path d="M43.3794 14.748C45.7894 14.748 47.4765 16.1165 47.4765 18.3971C47.4765 20.3738 46.2714 21.9703 43.2991 21.9703H41.13V25.6954H38.9609V14.748H43.3794ZM41.0497 20.2977H42.9777C44.5041 20.2977 45.3074 19.6136 45.3074 18.3211C45.3074 16.5726 43.7811 16.4966 42.7368 16.4966H41.0497V20.2977Z" fill="white"/>
<path d="M54.0665 14.4443C57.6012 14.4443 59.6096 17.1811 59.6096 20.1461C59.6096 22.6548 58.1636 25.9238 54.0665 25.9238C50.6924 25.9238 48.6036 23.263 48.6036 20.2221C48.5233 17.0291 50.7727 14.4443 54.0665 14.4443ZM54.0665 24.0233C55.7535 24.0233 57.3602 22.8069 57.3602 20.2981C57.3602 18.3215 56.3159 16.3449 53.9862 16.3449C52.0581 16.3449 50.6924 17.7893 50.6924 20.1461C50.7727 21.8946 51.6564 24.0233 54.0665 24.0233Z" fill="white"/>
<path d="M71.3398 22.655C70.9381 23.5672 69.6527 26 66.359 26C63.6276 26 60.9766 24.2515 60.9766 20.1462C60.9766 17.7135 62.4226 14.5205 66.4393 14.5205C69.4118 14.5205 70.6168 16.345 71.0988 17.8655L68.9298 18.3976C68.7691 17.1813 67.7247 16.345 66.4393 16.345C64.5916 16.345 63.226 17.7135 63.226 20.1462C63.226 21.6667 63.8686 24.0234 66.4393 24.0234C67.9657 24.0234 68.9298 22.959 69.2511 21.8187L71.3398 22.655Z" fill="white"/>
<path d="M82.9061 22.655C82.5046 23.5672 81.2191 26 77.9254 26C75.194 26 72.543 24.2515 72.543 20.1462C72.543 17.7135 73.9889 14.5205 78.0057 14.5205C80.9782 14.5205 82.1834 16.345 82.6652 17.8655L80.4964 18.3976C80.3358 17.1813 79.2911 16.345 78.0057 16.345C76.158 16.345 74.7923 17.7135 74.7923 20.1462C74.7923 21.6667 75.435 24.0234 78.0057 24.0234C79.5321 24.0234 80.4964 22.959 80.8176 21.8187L82.9061 22.655Z" fill="white"/>
<path d="M93.9914 25.6954H91.8218V18.5492L86.6805 24.403V25.6954H84.5117V14.748H86.6805V21.8182L91.8218 15.9645V14.748H93.9914V25.6954Z" fill="white"/>
<path d="M106.042 25.6954H103.873V18.5492L98.7313 24.403V25.6954H96.5625V14.748H98.7313V21.8182L103.873 15.9645V14.748H106.042V25.6954Z" fill="white"/>
</g>
<defs>
<clipPath id="clip0_119_230">
<rect width="163" height="26" fill="white"/>
</clipPath>
</defs>
</svg>
