<svg width="149" height="32" viewBox="0 0 149 32" fill="none" xmlns="http://www.w3.org/2000/svg">
<mask id="mask0_119_306" style="mask-type:luminance" maskUnits="userSpaceOnUse" x="0" y="0" width="31" height="31">
<path d="M31 0H0V31H31V0Z" fill="white"/>
</mask>
<g mask="url(#mask0_119_306)">
<path d="M21.2269 10.4097C20.7423 9.98684 20.0453 9.9964 19.6454 10.1194C19.9074 9.7991 20.5175 9.53657 20.6973 9.50473C20.8342 9.55581 21.2269 9.95746 21.2269 10.4097ZM22.7743 8.65843C22.4556 6.96124 18.4932 8.08577 16.4979 7.36489C16.4596 7.85966 17.1122 8.65236 17.7364 8.94576C16.6694 9.86743 15.7114 11.7245 15.5183 13.9933C15.3255 11.7245 14.3677 9.86743 13.3007 8.94576C13.9249 8.65236 14.5779 7.85966 14.5392 7.36489C12.5438 8.08577 8.58151 6.96124 8.26221 8.65843C8.19504 9.01758 8.36864 9.56492 8.55619 9.72231C8.58978 9.60845 8.76493 9.23613 9.31724 9.15262C12.1088 8.73276 14.4395 13.0155 12.3355 14.747C12.3036 14.7734 12.3216 14.8219 12.365 14.8219H18.6726C18.7154 14.8219 18.7335 14.7734 18.702 14.747C16.5976 13.0155 18.9283 8.73276 21.7198 9.15262C22.2726 9.23613 22.4473 9.60845 22.4809 9.72231C22.6685 9.56492 22.8421 9.01758 22.7743 8.65843ZM23.4532 4.76324C23.4032 4.60288 25.04 4.59883 25.04 5.61867C25.04 6.30209 24.0608 6.62586 24.0608 7.33505C24.0608 7.6654 24.4178 7.90771 24.5274 7.90771C24.2752 6.76898 25.3179 7.36489 25.5995 7.57788C25.04 6.04662 26.2995 6.05624 26.1755 5.35409C26.0893 4.8634 24.9945 5.01161 24.5982 4.76324C23.895 4.32263 23.0632 2.60824 22.515 4.32263C23.5369 5.26708 22.9422 6.65719 21.6448 6.65719C21.6448 6.65719 21.6377 6.86107 21.6496 6.87729C23.197 6.80192 23.7364 5.66976 23.4532 4.76324ZM5.3999 7.57788C5.68147 7.36489 6.72409 6.76898 6.47248 7.90771C6.58149 7.90771 6.93851 7.6654 6.93851 7.33505C6.93851 6.62586 5.95944 6.30209 5.95944 5.61867C5.95944 4.59883 7.59623 4.60288 7.54611 4.76324C7.26349 5.66976 7.80289 6.80192 9.35031 6.87729C9.36168 6.86107 9.35444 6.65719 9.35444 6.65719C8.05761 6.65719 7.46293 5.26708 8.48438 4.32263C7.93619 2.60824 7.10436 4.32263 6.40119 4.76324C6.00491 5.01161 4.9101 4.8634 4.82381 5.35409C4.70033 6.05624 5.95944 6.04662 5.3999 7.57788ZM9.79355 10.4097C10.2787 9.98684 10.9757 9.9964 11.3751 10.1194C11.1141 9.7991 10.503 9.53657 10.3237 9.50473C10.1868 9.55581 9.79355 9.95746 9.79355 10.4097ZM16.2546 0.916127L15.4997 0L14.7448 0.916127L15.4997 1.8803L16.2546 0.916127ZM20.5636 3.68625L20.0267 3.0352L19.4904 3.68625L20.0267 4.32263L20.5636 3.68625ZM24.9175 22.5055L24.237 21.7887L23.5566 22.5055L24.237 23.1343L24.9175 22.5055ZM11.5095 3.68625L10.9726 3.0352L10.4363 3.68625L10.9726 4.32263L11.5095 3.68625ZM9.9718 6.87729H11.9739C13.6572 6.87729 14.4147 5.84883 14.6436 4.95698H16.3562C16.5852 5.84883 17.342 6.87729 19.0259 6.87729H21.028C21.028 6.87729 21.3782 6.40427 21.4661 6.17006C21.7823 5.32729 21.3783 4.93422 20.7888 4.93422L20.0267 5.6217L19.2647 4.93422C18.6751 4.93422 18.2711 5.32729 18.5873 6.17006C18.6276 6.2778 18.7242 6.43614 18.8156 6.57523C18.1052 6.47816 17.1985 5.99401 16.9995 4.95698C16.9995 4.95698 17.5245 4.12686 17.6562 3.79096C18.1294 2.58296 17.5249 2.08923 16.641 2.08923L15.4997 3.42472L14.3583 2.08923C13.4743 2.08923 12.8698 2.58296 13.3437 3.79096C13.4749 4.12686 14.0002 4.95698 14.0002 4.95698C13.8009 5.99401 12.8942 6.47816 12.1837 6.57523C12.2757 6.43614 12.3718 6.2778 12.4121 6.17006C12.7278 5.32729 12.3248 4.93422 11.7348 4.93422L10.9726 5.6217L10.2105 4.93422C9.62053 4.93422 9.21753 5.32729 9.53321 6.17006C9.62104 6.40427 9.9718 6.87729 9.9718 6.87729ZM30.6711 13.0549C30.2845 13.2497 28.0175 14.3069 25.1133 13.9159C25.1438 13.7778 25.1686 13.6386 25.1898 13.4995C27.1226 13.2694 28.6938 12.9431 29.6951 12.3886C30.8363 11.7564 31.3354 10.2469 30.7594 9.12382C30.7444 9.09546 30.703 9.09043 30.6824 9.11419C30.3667 9.47586 28.3818 11.6253 25.2543 12.2935C25.2461 12.1311 25.2315 11.9708 25.2098 11.8115C26.7288 10.954 28.2117 9.96611 28.9181 9.06259C29.9855 7.69678 29.8873 5.95456 28.8716 5.06625C28.8499 5.04703 28.8147 5.05259 28.7997 5.07637C28.4783 5.60399 25.4703 10.4436 22.1678 12.5328C22.1347 12.5542 22.0903 12.5815 22.0458 12.6082C21.9513 12.6654 21.9409 12.7878 22.0215 12.8607C22.4023 13.2042 22.639 13.6821 22.639 14.2128C22.639 15.1356 21.9245 15.9029 20.98 16.0693C20.5 16.1619 19.8071 16.1351 19.1416 15.9161C19.1117 15.9065 19.0807 15.9261 19.0807 15.956V18.8784C19.0807 18.9255 19.1525 18.9371 19.1696 18.892C19.5741 17.8252 20.7852 17.5986 21.3148 17.5986C21.5054 18.7388 21.8459 19.6833 22.2881 20.1917C23.0084 21.0177 24.1844 21.0061 24.6943 20.435C24.7118 20.4152 24.7067 20.3844 24.6828 20.3713C24.3832 20.1998 22.6689 19.1521 22.3259 17.4352C22.4612 17.3887 22.5934 17.336 22.7201 17.2738C23.2734 18.1854 24.0789 18.9973 24.7273 19.3074C25.8165 19.8274 26.8136 19.5745 27.2558 18.8131C27.2719 18.7864 27.2523 18.7529 27.2197 18.75C26.5459 18.6963 24.4783 18.1065 23.5979 16.6693C23.6987 16.5772 23.7973 16.4811 23.8893 16.379C24.8106 17.0771 26.113 17.6942 27.0457 17.8202C28.1369 17.9679 29.3731 17.6214 29.4032 16.3582C29.4037 16.3329 29.381 16.3122 29.3541 16.3136C28.9661 16.337 26.3978 16.4482 24.5677 15.4026C24.6312 15.2827 24.6901 15.1604 24.7454 15.0354C24.7454 15.0354 27.5107 15.6859 28.8209 15.4704C30.1229 15.2565 30.8855 14.2902 30.7382 13.0883C30.734 13.0584 30.699 13.0407 30.6711 13.0549ZM6.25394 15.0354C6.30922 15.1604 6.36864 15.2827 6.43219 15.4026C4.60267 16.4477 2.03536 16.3375 1.6458 16.3136C1.61841 16.3122 1.59569 16.3339 1.5962 16.3587C1.62669 17.6214 2.86255 17.9679 3.95375 17.8202C4.88581 17.6942 6.18884 17.0771 7.11004 16.379C7.20253 16.4811 7.30069 16.5772 7.40144 16.6693C6.52053 18.1065 4.45336 18.6963 3.77963 18.75C3.74708 18.7529 3.72796 18.7864 3.74346 18.8131C4.18572 19.5745 5.1829 19.8274 6.27254 19.3074C6.92043 18.9973 7.72591 18.1854 8.27926 17.2738C8.40636 17.336 8.53863 17.3887 8.67348 17.4352C8.33041 19.1521 6.61611 20.1998 6.31646 20.3713C6.29321 20.3844 6.28753 20.4152 6.30509 20.435C6.81503 21.0061 7.99148 21.0177 8.71171 20.1917C9.15398 19.6833 9.49394 18.7388 9.68459 17.5986C10.2147 17.5986 11.4252 17.8252 11.8298 18.892C11.8474 18.9371 11.9192 18.9255 11.9192 18.8784V15.956C11.9192 15.9261 11.8877 15.9065 11.8577 15.9161C11.1923 16.1351 10.4994 16.1619 10.0198 16.0693C9.07493 15.9029 8.36038 15.1356 8.36038 14.2128C8.36038 13.6821 8.59753 13.2035 8.97779 12.8602C9.05891 12.7878 9.04806 12.6654 8.95403 12.6082C8.90908 12.5815 8.86464 12.5542 8.83106 12.5328C5.53061 10.4446 2.52412 5.60854 2.20019 5.07738C2.1852 5.05259 2.14904 5.04754 2.12681 5.06676C1.1126 5.95556 1.01391 7.69724 2.08135 9.06259C2.78762 9.96611 4.27046 10.954 5.78894 11.8115C5.76776 11.9708 5.75277 12.1311 5.74502 12.2935C2.62022 11.6258 0.63675 9.47993 0.317967 9.11574C0.296784 9.09094 0.254417 9.09598 0.23995 9.12433C-0.3351 10.2478 0.164001 11.7564 1.30429 12.3886C2.30559 12.9431 3.87676 13.2694 5.80961 13.4995C5.8308 13.6386 5.85559 13.7778 5.88608 13.9159C2.985 14.3064 0.718897 13.2517 0.329333 13.0553C0.3004 13.0407 0.265267 13.0589 0.26165 13.0893C0.114917 14.2912 0.877003 15.2565 2.179 15.4704C3.48875 15.6859 6.25394 15.0354 6.25394 15.0354ZM24.237 24.0574L23.2296 23.2683C22.8276 23.5066 22.532 23.885 22.4173 24.3286C21.8113 24.4131 20.159 24.0479 20.3196 23.8055C22.1306 21.2701 20.7454 19.7607 19.0807 19.8446V21.5475C19.0807 22.0942 18.6012 22.5374 18.0107 22.5374H16.8611C16.0365 22.5374 15.4997 23.3625 15.4997 23.3625C15.4997 23.3625 14.9629 22.5374 14.1383 22.5374H12.9887C12.3975 22.5374 11.9192 22.0942 11.9192 21.5475V19.8446C10.2545 19.7607 8.86826 21.2701 10.6797 23.8055C10.8389 24.0453 9.14054 24.4292 8.34384 24.3322C8.13408 24.1157 7.83131 23.9791 7.49238 23.9791C7.34306 23.9791 7.20098 24.0064 7.07026 24.0545C7.07026 24.0545 3.9398 21.1042 3.88245 21.0755L3.90827 21.0157C4.08652 20.6838 3.81373 20.3221 3.64116 20.3474C3.84163 20.1081 3.85092 19.0605 2.73906 18.8183C2.77161 19.0287 2.78815 19.4581 2.78815 19.4581C2.78815 19.4581 1.92996 18.9963 1.49906 19.395C1.12035 19.841 1.6458 20.6505 1.6458 20.6505C1.6458 20.6505 1.20664 20.6611 0.990147 20.6429C1.30841 21.7143 2.37585 21.6385 2.6068 21.427C2.59181 21.5975 2.97776 21.8403 3.30481 21.6456L3.44845 21.5762C3.47376 21.6101 6.52259 24.4774 6.52259 24.4774C6.38259 24.6843 6.31594 24.9382 6.36193 25.2088C6.43426 25.6318 6.78816 25.9824 7.24024 26.0733C7.55954 26.1371 7.85973 26.0754 8.10049 25.9353L8.90753 26.6809C8.97934 26.7456 9.07648 26.7861 9.18498 26.7786C9.38234 26.7654 9.53011 26.6061 9.51513 26.4234C9.50893 26.341 9.46656 26.2702 9.40818 26.2165C9.39526 26.2024 8.58616 25.4547 8.58616 25.4547C9.25369 24.9888 10.4972 24.6605 11.5295 24.6605C11.7109 24.6605 11.7961 24.5077 11.7337 24.3579C11.266 23.2384 12.2715 22.4277 13.3116 23.0878C13.7653 23.3755 14.2261 23.9427 14.5733 24.8886C12.8667 25.2999 10.7241 26.433 10.2906 27.67C10.1237 28.1474 10.675 28.7985 11.3446 28.9295C11.3699 28.935 11.3942 28.9184 11.3989 28.8946C11.7487 27.0482 13.7435 25.6723 14.7814 25.4385C14.8337 25.5776 14.8166 25.5326 14.8689 25.6712C13.7384 26.2033 12.642 27.3259 12.3289 28.6603C12.1852 29.2714 12.8698 29.8224 13.4351 29.9731C13.4635 29.9807 13.4914 29.9609 13.4929 29.9336C13.6003 28.246 14.349 26.813 15.0197 26.1609C15.0378 26.2864 15.0517 26.4148 15.061 26.5448C15.061 26.5448 14.3744 28.4493 14.3744 29.839C14.3744 30.4855 15.3394 30.9367 15.482 31C15.6603 30.9367 16.625 30.4855 16.625 29.839C16.625 28.4493 15.9383 26.5448 15.9383 26.5448C15.9481 26.4148 15.9616 26.2864 15.9802 26.1609C16.6503 26.813 17.3995 28.2456 17.5064 29.9331C17.508 29.9605 17.5364 29.9807 17.5643 29.9731C18.13 29.8224 18.8141 29.2714 18.671 28.6603C18.3574 27.3259 17.2614 26.2033 16.131 25.6712C16.1826 25.5326 16.1656 25.5776 16.2178 25.4385C17.2563 25.6723 19.2507 27.0482 19.6005 28.8946C19.6051 28.9184 19.6299 28.935 19.6547 28.9295C20.3238 28.7985 20.876 28.1474 20.7082 27.67C20.2757 26.433 18.1326 25.2999 16.4261 24.8886C16.7738 23.9427 17.2346 23.3755 17.6883 23.0878C18.7277 22.4277 19.7332 23.2384 19.2657 24.3579C19.2031 24.5077 19.2879 24.6605 19.4697 24.6605C20.6373 24.6605 22.0757 25.0804 22.6452 25.6434C23.0089 26.1867 23.6811 26.5343 24.4395 26.4599C25.3013 26.3759 26.004 25.7314 26.1011 24.9347C26.1859 24.2366 25.8232 23.6098 25.245 23.2683L24.237 24.0574ZM16.811 18.972C17.1701 18.8395 17.7326 18.9467 17.7136 19.4626C17.7089 19.5796 17.8738 19.5796 17.8856 19.4602C17.9931 18.6877 17.4687 18.4651 16.92 18.5558C16.8518 18.2901 16.796 18.0579 16.7324 17.8277C16.6817 17.6416 16.6632 17.292 16.8797 17.292C16.9965 17.292 16.9494 17.6173 16.9386 17.7574C16.9288 17.8803 16.9732 17.9547 17.0734 17.9583C17.136 17.9608 17.214 17.8814 17.2605 17.8288C17.5746 17.4752 17.6474 16.9278 17.2796 16.6637C16.9716 16.4422 16.2008 16.6071 15.9889 16.9227C15.9569 16.8038 15.804 16.6075 15.7307 16.5221C15.6594 16.4386 15.6408 16.3814 15.7394 16.3081C15.7859 16.2727 15.9264 16.1336 15.9264 15.9899C15.9264 15.9049 15.8602 15.7481 15.65 15.7481C15.4842 15.7481 15.2997 15.8624 15.2997 16.1174C15.2997 16.1741 15.3137 16.2348 15.3503 16.3C15.2455 16.2828 14.9608 16.2899 14.8146 16.3259L16.8363 21.8484C17.415 21.5641 17.8391 21.1138 17.8391 20.6308C17.8391 20.219 17.23 20.3556 16.9339 20.6768C16.8389 20.1547 16.7541 19.6726 16.6617 19.1921C16.6363 19.0596 16.7041 19.012 16.811 18.972ZM13.9522 15.2205L14.377 16.3951C14.0133 16.4811 13.4283 16.7452 13.4283 17.0948C13.4283 17.5601 14.2555 17.8632 14.734 17.8267C14.7102 17.9329 14.7376 18.0276 14.812 18.1141C14.6384 18.1141 14.3108 18.1945 14.2033 18.3098C13.9497 18.0746 13.5529 17.9891 13.3643 18.1323C13.1747 18.2764 13.169 18.5208 13.3669 18.7969C13.5049 18.9881 13.5565 19.1769 13.4015 19.3984C13.9781 19.3984 13.7657 18.6523 13.9915 18.6523C13.9621 18.7969 13.9802 18.9644 14.0458 19.1501C14.0892 19.2735 14.0892 19.361 14.0148 19.4799C13.8288 19.7759 13.5394 20.4557 13.5786 21.0703C13.3895 21.0693 13.2934 21.0233 13.3601 20.7663C13.3849 20.6707 13.3255 20.6024 13.247 20.7203C13.1602 20.8503 13.1184 21.0723 13.1184 21.1674C13.1184 21.7148 13.7735 21.825 14.0235 21.7093C14.7469 22.406 16.1678 22.2202 16.6436 21.9864L14.1419 15.1538C14.0907 15.0247 13.9072 15.0865 13.9522 15.2205ZM13.8655 20.8487C13.8138 20.5675 14.207 20.0647 14.7071 19.5796C14.6007 19.8957 14.6668 20.4406 14.8755 20.6282C14.5128 20.6282 14.0819 20.696 13.8655 20.8487Z" fill="white"/>
</g>
<path d="M43.8301 10.4453V14H42.21V4.19727H45.1836C46.3092 4.19727 47.182 4.45931 47.8018 4.9834C48.4215 5.50749 48.7314 6.24577 48.7314 7.19824C48.7314 8.15072 48.4079 8.93001 47.7607 9.53613C47.1136 10.1423 46.2386 10.4453 45.1357 10.4453H43.8301ZM43.8301 5.53711V9.11914H44.8828C45.5801 9.11914 46.111 8.95736 46.4756 8.63379C46.8402 8.31022 47.0225 7.85449 47.0225 7.2666C47.0225 6.11361 46.3525 5.53711 45.0127 5.53711H43.8301Z" fill="white"/>
<path d="M55.6699 10.9307H50.8984C50.9167 11.5778 51.1149 12.0768 51.4932 12.4277C51.876 12.7786 52.4001 12.9541 53.0654 12.9541C53.8128 12.9541 54.4987 12.7308 55.123 12.2842V13.5625C54.485 13.9635 53.6419 14.1641 52.5938 14.1641C51.5638 14.1641 50.7549 13.8473 50.167 13.2139C49.5837 12.5758 49.292 11.6803 49.292 10.5273C49.292 9.43815 49.6133 8.55176 50.2559 7.86816C50.903 7.18001 51.7051 6.83594 52.6621 6.83594C53.6191 6.83594 54.3597 7.14355 54.8838 7.75879C55.4079 8.37402 55.6699 9.22852 55.6699 10.3223V10.9307ZM54.1387 9.80957C54.1341 9.23991 53.9997 8.79785 53.7354 8.4834C53.471 8.16439 53.1064 8.00488 52.6416 8.00488C52.1859 8.00488 51.7985 8.17122 51.4795 8.50391C51.165 8.83659 50.9714 9.27181 50.8984 9.80957H54.1387Z" fill="white"/>
<path d="M63.1074 10.9307H58.3359C58.3542 11.5778 58.5524 12.0768 58.9307 12.4277C59.3135 12.7786 59.8376 12.9541 60.5029 12.9541C61.2503 12.9541 61.9362 12.7308 62.5605 12.2842V13.5625C61.9225 13.9635 61.0794 14.1641 60.0312 14.1641C59.0013 14.1641 58.1924 13.8473 57.6045 13.2139C57.0212 12.5758 56.7295 11.6803 56.7295 10.5273C56.7295 9.43815 57.0508 8.55176 57.6934 7.86816C58.3405 7.18001 59.1426 6.83594 60.0996 6.83594C61.0566 6.83594 61.7972 7.14355 62.3213 7.75879C62.8454 8.37402 63.1074 9.22852 63.1074 10.3223V10.9307ZM61.5762 9.80957C61.5716 9.23991 61.4372 8.79785 61.1729 8.4834C60.9085 8.16439 60.5439 8.00488 60.0791 8.00488C59.6234 8.00488 59.236 8.17122 58.917 8.50391C58.6025 8.83659 58.4089 9.27181 58.3359 9.80957H61.5762Z" fill="white"/>
<path d="M69.6289 13.6787C69.0684 14.0023 68.4053 14.1641 67.6396 14.1641C66.6006 14.1641 65.762 13.8405 65.124 13.1934C64.486 12.5417 64.167 11.6986 64.167 10.6641C64.167 9.51107 64.5088 8.58594 65.1924 7.88867C65.8805 7.18685 66.7988 6.83594 67.9473 6.83594C68.5853 6.83594 69.1481 6.94759 69.6357 7.1709V8.64746C69.1481 8.28288 68.6286 8.10059 68.0771 8.10059C67.4072 8.10059 66.8581 8.32845 66.4297 8.78418C66.0013 9.23535 65.7871 9.8278 65.7871 10.5615C65.7871 11.2861 65.9876 11.8581 66.3887 12.2773C66.7943 12.6966 67.3366 12.9062 68.0156 12.9062C68.5853 12.9062 69.123 12.7035 69.6289 12.2979V13.6787Z" fill="white"/>
<path d="M75.9795 8.26465H73.9834V14H72.3906V8.26465H70.3809V7H75.9795V8.26465Z" fill="white"/>
<path d="M78.8506 12.9678H78.8232V17.2197H77.2373V7H78.8232V8.23047H78.8506C79.3929 7.30078 80.1859 6.83594 81.2295 6.83594C82.1182 6.83594 82.8109 7.14811 83.3076 7.77246C83.8044 8.39681 84.0527 9.23535 84.0527 10.2881C84.0527 11.4548 83.7725 12.389 83.2119 13.0908C82.6514 13.7926 81.8857 14.1436 80.915 14.1436C80.0218 14.1436 79.3337 13.7516 78.8506 12.9678ZM78.8096 10.2061V11.0742C78.8096 11.5846 78.9714 12.0176 79.2949 12.373C79.623 12.7285 80.0378 12.9062 80.5391 12.9062C81.127 12.9062 81.5872 12.6784 81.9199 12.2227C82.2572 11.7624 82.4258 11.1221 82.4258 10.3018C82.4258 9.61361 82.2686 9.07585 81.9541 8.68848C81.6442 8.29655 81.2227 8.10059 80.6895 8.10059C80.1243 8.10059 79.6686 8.30111 79.3223 8.70215C78.9805 9.10319 78.8096 9.60449 78.8096 10.2061Z" fill="white"/>
<path d="M43.6455 26.9678H43.6182V31.2197H42.0322V21H43.6182V22.2305H43.6455C44.1878 21.3008 44.9808 20.8359 46.0244 20.8359C46.9131 20.8359 47.6058 21.1481 48.1025 21.7725C48.5993 22.3968 48.8477 23.2354 48.8477 24.2881C48.8477 25.4548 48.5674 26.389 48.0068 27.0908C47.4463 27.7926 46.6807 28.1436 45.71 28.1436C44.8167 28.1436 44.1286 27.7516 43.6455 26.9678ZM43.6045 24.2061V25.0742C43.6045 25.5846 43.7663 26.0176 44.0898 26.373C44.418 26.7285 44.8327 26.9062 45.334 26.9062C45.9219 26.9062 46.3822 26.6784 46.7148 26.2227C47.0521 25.7624 47.2207 25.1221 47.2207 24.3018C47.2207 23.6136 47.0635 23.0758 46.749 22.6885C46.4391 22.2965 46.0176 22.1006 45.4844 22.1006C44.9193 22.1006 44.4635 22.3011 44.1172 22.7021C43.7754 23.1032 43.6045 23.6045 43.6045 24.2061Z" fill="white"/>
<path d="M53.5713 28.1641C52.4912 28.1641 51.6276 27.8382 50.9805 27.1865C50.3379 26.5303 50.0166 25.6621 50.0166 24.582C50.0166 23.4062 50.3516 22.488 51.0215 21.8271C51.696 21.1663 52.6029 20.8359 53.7422 20.8359C54.8359 20.8359 55.6882 21.1572 56.2988 21.7998C56.9095 22.4424 57.2148 23.3333 57.2148 24.4727C57.2148 25.5892 56.8844 26.4847 56.2236 27.1592C55.5674 27.8291 54.6833 28.1641 53.5713 28.1641ZM53.6465 22.1006C53.0267 22.1006 52.5368 22.3171 52.1768 22.75C51.8167 23.1829 51.6367 23.7799 51.6367 24.541C51.6367 25.2747 51.819 25.8535 52.1836 26.2773C52.5482 26.6966 53.0358 26.9062 53.6465 26.9062C54.2708 26.9062 54.7493 26.6989 55.082 26.2842C55.4193 25.8695 55.5879 25.2793 55.5879 24.5137C55.5879 23.7435 55.4193 23.1488 55.082 22.7295C54.7493 22.3102 54.2708 22.1006 53.6465 22.1006Z" fill="white"/>
<path d="M63.8457 27.6787C63.2852 28.0023 62.6221 28.1641 61.8564 28.1641C60.8174 28.1641 59.9788 27.8405 59.3408 27.1934C58.7028 26.5417 58.3838 25.6986 58.3838 24.6641C58.3838 23.5111 58.7256 22.5859 59.4092 21.8887C60.0973 21.1868 61.0156 20.8359 62.1641 20.8359C62.8021 20.8359 63.3649 20.9476 63.8525 21.1709V22.6475C63.3649 22.2829 62.8454 22.1006 62.2939 22.1006C61.624 22.1006 61.0749 22.3285 60.6465 22.7842C60.2181 23.2354 60.0039 23.8278 60.0039 24.5615C60.0039 25.2861 60.2044 25.8581 60.6055 26.2773C61.0111 26.6966 61.5534 26.9062 62.2324 26.9062C62.8021 26.9062 63.3398 26.7035 63.8457 26.2979V27.6787Z" fill="white"/>
<path d="M70.4355 27.6787C69.875 28.0023 69.2119 28.1641 68.4463 28.1641C67.4072 28.1641 66.5687 27.8405 65.9307 27.1934C65.2926 26.5417 64.9736 25.6986 64.9736 24.6641C64.9736 23.5111 65.3154 22.5859 65.999 21.8887C66.6872 21.1868 67.6055 20.8359 68.7539 20.8359C69.3919 20.8359 69.9548 20.9476 70.4424 21.1709V22.6475C69.9548 22.2829 69.4352 22.1006 68.8838 22.1006C68.2139 22.1006 67.6647 22.3285 67.2363 22.7842C66.8079 23.2354 66.5938 23.8278 66.5938 24.5615C66.5938 25.2861 66.7943 25.8581 67.1953 26.2773C67.6009 26.6966 68.1432 26.9062 68.8223 26.9062C69.3919 26.9062 69.9297 26.7035 70.4355 26.2979V27.6787Z" fill="white"/>
<path d="M78.3721 28H76.9365V22.8662C76.8454 23.0485 76.7064 23.3014 76.5195 23.625L73.5732 28H72.0146V21H73.4707V26.0312C73.5208 25.9128 73.6279 25.7077 73.792 25.416L76.7793 21H78.3721V28Z" fill="white"/>
<path d="M86.8076 28H85.3721V22.8662C85.2809 23.0485 85.1419 23.3014 84.9551 23.625L82.0088 28H80.4502V21H81.9062V26.0312C81.9564 25.9128 82.0635 25.7077 82.2275 25.416L85.2148 21H86.8076V28ZM86.3496 17.6299C86.2767 18.3135 85.9941 18.8535 85.502 19.25C85.0143 19.6419 84.4014 19.8379 83.6631 19.8379C82.9066 19.8379 82.2891 19.6419 81.8105 19.25C81.3366 18.8535 81.0768 18.3135 81.0312 17.6299H82.3506C82.4144 18.4593 82.8587 18.874 83.6836 18.874C84.0482 18.874 84.349 18.7646 84.5859 18.5459C84.8275 18.3271 84.9756 18.0218 85.0303 17.6299H86.3496Z" fill="white"/>
<path d="M93.8965 27.6787C93.3359 28.0023 92.6729 28.1641 91.9072 28.1641C90.8682 28.1641 90.0296 27.8405 89.3916 27.1934C88.7536 26.5417 88.4346 25.6986 88.4346 24.6641C88.4346 23.5111 88.7764 22.5859 89.46 21.8887C90.1481 21.1868 91.0664 20.8359 92.2148 20.8359C92.8529 20.8359 93.4157 20.9476 93.9033 21.1709V22.6475C93.4157 22.2829 92.8962 22.1006 92.3447 22.1006C91.6748 22.1006 91.1257 22.3285 90.6973 22.7842C90.2689 23.2354 90.0547 23.8278 90.0547 24.5615C90.0547 25.2861 90.2552 25.8581 90.6562 26.2773C91.0618 26.6966 91.6042 26.9062 92.2832 26.9062C92.8529 26.9062 93.3906 26.7035 93.8965 26.2979V27.6787Z" fill="white"/>
<path d="M101.833 28H99.8164L97.0957 24.5889H97.0684V28H95.4756V21H97.0684V24.2197H97.0957L99.666 21H101.607L98.6953 24.3359L101.833 28Z" fill="white"/>
<path d="M105.675 28.1641C104.595 28.1641 103.731 27.8382 103.084 27.1865C102.441 26.5303 102.12 25.6621 102.12 24.582C102.12 23.4062 102.455 22.488 103.125 21.8271C103.799 21.1663 104.706 20.8359 105.846 20.8359C106.939 20.8359 107.792 21.1572 108.402 21.7998C109.013 22.4424 109.318 23.3333 109.318 24.4727C109.318 25.5892 108.988 26.4847 108.327 27.1592C107.671 27.8291 106.787 28.1641 105.675 28.1641ZM105.75 22.1006C105.13 22.1006 104.64 22.3171 104.28 22.75C103.92 23.1829 103.74 23.7799 103.74 24.541C103.74 25.2747 103.923 25.8535 104.287 26.2773C104.652 26.6966 105.139 26.9062 105.75 26.9062C106.374 26.9062 106.853 26.6989 107.186 26.2842C107.523 25.8695 107.691 25.2793 107.691 24.5137C107.691 23.7435 107.523 23.1488 107.186 22.7295C106.853 22.3102 106.374 22.1006 105.75 22.1006Z" fill="white"/>
<path d="M115.136 22.2646H112.531V28H110.938V21H115.136V22.2646Z" fill="white"/>
<path d="M119.347 28.1641C118.267 28.1641 117.403 27.8382 116.756 27.1865C116.113 26.5303 115.792 25.6621 115.792 24.582C115.792 23.4062 116.127 22.488 116.797 21.8271C117.471 21.1663 118.378 20.8359 119.518 20.8359C120.611 20.8359 121.464 21.1572 122.074 21.7998C122.685 22.4424 122.99 23.3333 122.99 24.4727C122.99 25.5892 122.66 26.4847 121.999 27.1592C121.343 27.8291 120.459 28.1641 119.347 28.1641ZM119.422 22.1006C118.802 22.1006 118.312 22.3171 117.952 22.75C117.592 23.1829 117.412 23.7799 117.412 24.541C117.412 25.2747 117.594 25.8535 117.959 26.2773C118.324 26.6966 118.811 26.9062 119.422 26.9062C120.046 26.9062 120.525 26.6989 120.857 26.2842C121.195 25.8695 121.363 25.2793 121.363 24.5137C121.363 23.7435 121.195 23.1488 120.857 22.7295C120.525 22.3102 120.046 22.1006 119.422 22.1006Z" fill="white"/>
<path d="M136.553 28H134.919V19.6533H130.271V28H128.644V18.1973H136.553V28Z" fill="white"/>
<path d="M142.992 28.1641C141.579 28.1641 140.447 27.7061 139.595 26.79C138.747 25.874 138.323 24.6823 138.323 23.2148C138.323 21.638 138.756 20.3802 139.622 19.4414C140.488 18.5026 141.664 18.0332 143.149 18.0332C144.526 18.0332 145.633 18.4889 146.472 19.4004C147.315 20.3118 147.736 21.5036 147.736 22.9756C147.736 24.5752 147.306 25.8398 146.444 26.7695C145.583 27.6992 144.432 28.1641 142.992 28.1641ZM143.067 19.4619C142.17 19.4619 141.438 19.7969 140.873 20.4668C140.312 21.1367 140.032 22.0186 140.032 23.1123C140.032 24.2015 140.306 25.0788 140.853 25.7441C141.399 26.4095 142.115 26.7422 142.999 26.7422C143.938 26.7422 144.678 26.4255 145.221 25.792C145.763 25.1585 146.034 24.2721 146.034 23.1328C146.034 21.9616 145.77 21.057 145.241 20.4189C144.717 19.7809 143.993 19.4619 143.067 19.4619Z" fill="white"/>
</svg>
