<svg width="127" height="38" viewBox="0 0 127 38" fill="none" xmlns="http://www.w3.org/2000/svg">
<g clip-path="url(#clip0_119_218)">
<path d="M9.37463 0C4.19962 0 0 4.25578 0 9.5V28.5C0 33.7442 4.19962 38 9.37463 38H28.1239C33.2989 38 37.4985 33.7442 37.4985 28.5V0H9.37463Z" fill="#B1EC52"/>
<path d="M10.2478 15.1748C9.94072 13.8111 11.2774 12.6122 13.0114 12.6122C14.5738 12.6122 16.1363 12.9691 16.7233 15.1656H18.7193V18.5245C16.2266 16.447 10.8258 17.7466 10.2388 15.1656M30.9749 14.2321H26.4773L22.1964 18.9821V9.50043H18.7193V11.7976C18.6109 11.6512 18.4844 11.5048 18.349 11.3583C17.0846 10.0038 15.2602 9.31738 12.9392 9.31738C10.2478 9.31738 8.72147 10.5346 7.90864 11.5597C6.90615 12.8318 6.45458 14.5708 6.76165 15.9802C7.56545 19.6411 10.9161 20.2268 13.3817 20.5472C15.3234 20.8034 17.1839 21.1604 17.1388 22.9176C17.0846 24.7389 15.0615 25.1873 13.7339 25.1873C10.2658 25.1873 10.1484 22.5881 10.1484 22.5881H6.41846C6.47265 23.5674 6.76165 25.1233 7.94477 26.4686C9.2453 27.9421 11.1871 28.6835 13.7249 28.6835C15.6757 28.6835 17.4458 28.0428 18.7193 26.8988V28.473H22.1964V23.9884L23.4246 22.6247L26.9379 28.473H30.984L25.8722 19.9065L30.984 14.2321H30.9749Z" fill="#4D5759"/>
<path d="M47.2422 26.102C47.4679 26.1844 47.7389 26.221 48.0369 26.221C48.4162 26.221 48.7233 26.102 48.9491 25.8641C49.1749 25.6261 49.3284 25.3149 49.4007 24.958L44.5869 14.3506H47.7931L50.8818 21.9561L53.5913 14.3506H56.6439L52.2998 24.7933C51.7308 26.1752 51.1437 27.2003 50.5025 27.8501C49.8613 28.5182 49.1568 28.8568 48.3801 28.8568C48.1182 28.8568 47.9105 28.8568 47.7389 28.8202C47.5492 28.8019 47.3957 28.7562 47.2602 28.7196L46.899 28.6006C46.8086 28.564 46.7093 28.5182 46.61 28.4999V25.8183C46.7816 25.9373 46.9893 26.038 47.2331 26.0929" fill="white"/>
<path d="M61.8656 24.5277C61.6759 24.5918 61.4682 24.6284 61.2424 24.6833C61.0166 24.7199 60.7638 24.7657 60.5199 24.784C60.2761 24.8206 60.0232 24.8206 59.7974 24.8206C59.2104 24.8206 58.7136 24.7565 58.2621 24.665C57.8285 24.546 57.4492 24.3904 57.1422 24.1525C56.8351 23.9145 56.6093 23.6034 56.4558 23.2098C56.3022 22.8346 56.23 22.3587 56.23 21.8095V18.0205H58.8491V21.2695C58.8491 21.5624 58.8852 21.8187 58.9665 22.0017C59.0207 22.2031 59.1381 22.3587 59.2916 22.4776C59.4452 22.5966 59.6168 22.679 59.8426 22.7156C60.0683 22.7522 60.3393 22.7705 60.6373 22.7705C61.0889 22.7705 61.4321 22.7339 61.703 22.6515C61.9649 22.5509 62.1817 22.4593 62.3262 22.3587V18.0205H64.9453V28.5089H62.3262V24.3721C62.2088 24.4088 62.0643 24.4728 61.8746 24.5277" fill="white"/>
<path d="M71.9095 23.6219C71.7379 23.7043 71.5302 23.7775 71.2683 23.8233L70.5638 23.9606C70.2568 24.0155 69.9949 24.0795 69.7691 24.1528C69.5433 24.2351 69.3536 24.3266 69.2001 24.4456C69.0466 24.5829 68.9382 24.7385 68.8569 24.9215C68.7846 25.0954 68.7395 25.3151 68.7395 25.5897C68.7395 25.8093 68.7756 26.0015 68.8298 26.1571C68.902 26.331 69.0014 26.45 69.1369 26.5689C69.2543 26.6696 69.3807 26.7703 69.5342 26.8069C69.7058 26.871 69.8774 26.8893 70.0671 26.8893C70.1574 26.8893 70.2929 26.871 70.4464 26.8527C70.6 26.8344 70.7535 26.7977 70.9432 26.7337C71.1148 26.6513 71.2864 26.5781 71.4579 26.4591C71.6295 26.3584 71.7831 26.2029 71.9095 26.029C72.0631 25.8551 72.1714 25.6354 72.2527 25.3608C72.325 25.1046 72.3882 24.8117 72.3882 24.4548V23.3931C72.2346 23.4938 72.063 23.567 71.9185 23.6311M75.0615 27.2187C75.0795 27.4201 75.1337 27.594 75.197 27.6947C75.2511 27.8319 75.3144 27.9143 75.3866 27.9692C75.4589 28.0333 75.5221 28.0699 75.6124 28.0882V28.5184H72.7133L72.5598 28.0241C72.4875 27.8319 72.4695 27.594 72.4695 27.292L71.8824 27.9052C71.6747 28.0791 71.467 28.2438 71.2231 28.3811C70.9793 28.5184 70.7083 28.6373 70.3922 28.7197C70.0761 28.8021 69.6878 28.8387 69.2543 28.8387C68.8208 28.8387 68.3782 28.7746 67.9989 28.6465C67.6196 28.5092 67.2945 28.2896 67.0145 28.0333C66.7526 27.7587 66.5177 27.4201 66.3732 27.0082C66.2197 26.6147 66.1475 26.1388 66.1475 25.608C66.1475 25.1778 66.2016 24.7843 66.3371 24.409C66.4726 24.0338 66.6623 23.7226 66.888 23.448C67.1319 23.1735 67.4209 22.9355 67.7551 22.7616C68.0982 22.5603 68.4776 22.4504 68.9111 22.3864L71.467 21.9928C71.5573 21.9745 71.6566 21.9745 71.774 21.9288C71.8915 21.9105 71.9818 21.8739 72.0721 21.7915C72.1714 21.7366 72.2437 21.6542 72.2979 21.5535C72.3521 21.4345 72.3882 21.2973 72.3882 21.1234C72.3882 20.9495 72.3521 20.7847 72.3159 20.6475C72.2617 20.4919 72.1624 20.3729 72.054 20.2722C71.9185 20.1532 71.774 20.0709 71.5663 20.016C71.3586 19.961 71.0877 19.9336 70.7896 19.9336C70.4284 19.9336 70.1664 19.9702 69.9587 20.0343C69.7329 20.1166 69.5613 20.2265 69.4439 20.3454C69.3085 20.4827 69.2181 20.6383 69.1549 20.7939L69.0375 21.3613H66.4184C66.4184 21.2424 66.4365 21.0685 66.4726 20.8305C66.5087 20.6108 66.59 20.3546 66.6984 20.08C66.7977 19.8238 66.9603 19.5492 67.15 19.2746C67.3396 19.0001 67.5835 18.7438 67.9267 18.5058C68.2337 18.2862 68.6311 18.094 69.0827 17.9567C69.5342 17.8194 70.0671 17.7371 70.7083 17.7188C71.6024 17.7188 72.334 17.8194 72.903 17.9933C73.4539 18.1947 73.8874 18.4418 74.2125 18.7438C74.5196 19.055 74.7273 19.3936 74.8357 19.7688C74.935 20.1441 74.9892 20.5193 74.9892 20.8946V26.45C74.9892 26.7703 75.0073 27.0174 75.0434 27.2187" fill="white"/>
<path d="M82.3694 20.9947C82.2971 20.7751 82.1797 20.6012 82.0442 20.4639C81.8907 20.3083 81.7191 20.2077 81.5294 20.1253C81.3217 20.0704 81.0779 20.0246 80.7889 20.0246C80.3554 20.0246 80.0122 20.1253 79.7503 20.3358C79.4883 20.5554 79.2716 20.8117 79.1451 21.1229C78.9916 21.4615 78.9194 21.8093 78.8561 22.1845C78.82 22.5598 78.7839 22.9167 78.7839 23.2462C78.7839 23.5757 78.802 23.9601 78.8381 24.3261C78.8742 24.7197 78.9555 25.0583 79.1 25.3695C79.2355 25.6807 79.4251 25.9644 79.7051 26.1566C79.967 26.3762 80.3283 26.4678 80.7889 26.4678C81.0959 26.4678 81.3579 26.4129 81.5836 26.2756C81.7914 26.1566 81.981 26.001 82.1346 25.818C82.2881 25.6166 82.3965 25.4244 82.4777 25.2048C82.5319 25.0034 82.5771 24.8112 82.5771 24.6373H85.3046C85.3046 24.8112 85.2865 25.0309 85.2323 25.3054C85.1601 25.5983 85.0607 25.8729 84.9253 26.1932C84.7898 26.4861 84.6001 26.8064 84.3924 27.1176C84.1486 27.4379 83.8776 27.7125 83.5435 27.9413C83.2003 28.1975 82.8209 28.3989 82.3694 28.5545C81.9178 28.7101 81.3849 28.7924 80.7979 28.7924C80.0393 28.7924 79.3529 28.6735 78.7658 28.4355C78.1788 28.1792 77.6821 27.8223 77.2847 27.3555C76.8873 26.8796 76.5802 26.3122 76.3725 25.5983C76.1648 24.9119 76.0474 24.1248 76.0474 23.237C76.0474 22.3493 76.1648 21.5439 76.3906 20.8483C76.6163 20.1802 76.9415 19.5853 77.3569 19.1185C77.7724 18.6426 78.2691 18.2857 78.8561 18.0569C79.4251 17.8006 80.0844 17.6816 80.7889 17.6816C81.0959 17.6816 81.412 17.7182 81.7552 17.764C82.0804 17.8006 82.3965 17.9013 82.7216 18.0203C83.0467 18.1576 83.3448 18.3131 83.6518 18.5145C83.9408 18.7158 84.2027 18.963 84.4466 19.265C84.6724 19.5578 84.862 19.9148 85.0156 20.3083C85.1691 20.7019 85.2594 21.1778 85.3046 21.7086H82.5771C82.5229 21.434 82.4597 21.1778 82.3694 20.9764" fill="white"/>
<path d="M94.4431 18.0205V20.2262H91.3905V28.5089H88.7714V20.2262H85.7188V18.0205H94.4431Z" fill="white"/>
<path d="M101.712 21.8004V18.0205H104.331V28.5089H101.712V24.0152H97.8645V28.5089H95.2544V18.0205H97.8645V21.8004H101.712Z" fill="white"/>
<path d="M108.74 24.482L112.416 18.0205H115.171V28.5089H112.551V22.1756H112.515L108.948 28.5089H106.085V18.0205H108.704V24.482H108.74Z" fill="white"/>
<path d="M123.345 18.0205H126.831L122.667 22.377L127.002 28.5089H123.589L120.635 24.0701L119.57 25.1958V28.5089H116.959V18.0205H119.57V22.0017L123.345 18.0205Z" fill="white"/>
</g>
<defs>
<clipPath id="clip0_119_218">
<rect width="127" height="38" fill="white"/>
</clipPath>
</defs>
</svg>
