<svg width="66" height="60" viewBox="0 0 66 60" fill="none" xmlns="http://www.w3.org/2000/svg">
<path d="M33 60C51.2254 60 66 46.5685 66 30C66 13.4315 51.2254 0 33 0C14.7746 0 0 13.4315 0 30C0 46.5685 14.7746 60 33 60Z" fill="#FEFEFE"/>
<path fill-rule="evenodd" clip-rule="evenodd" d="M54.2905 19.5634L54.0592 19.6228C41.0217 22.9679 25.6885 23.3709 12.2657 20.0118L12.0341 19.9538L12.1517 19.4971L12.3833 19.555C25.721 22.8929 40.9721 22.4938 53.9389 19.1668L54.1701 19.1074L54.2905 19.5634ZM9.1187 30.0463L56.8813 30.1954L56.8797 30.6666L9.11719 30.5175L9.1187 30.0463ZM12.7179 40.6527C26.1347 37.2954 39.9721 37.1769 53.0157 40.5236L53.247 40.5829L53.1266 41.0389L52.8953 40.9796C39.9346 37.6541 26.1791 37.7704 12.8355 41.1094L12.6038 41.1673L12.4863 40.7106L12.7179 40.6527ZM44.7541 49.0647C37.2721 44.7849 29.1791 45.038 21.6868 49.3239L21.4801 49.4421L21.2403 49.0346L21.447 48.9163C29.0768 44.5518 37.3531 44.2865 44.994 48.6571L45.2007 48.7754L44.9608 49.1829L44.7541 49.0647Z" fill="#2B2A29"/>
<path fill-rule="evenodd" clip-rule="evenodd" d="M32.0625 20.3604H34.4356L34.206 51.5589H32.7515L32.0625 20.3604Z" fill="#2F2483"/>
<path fill-rule="evenodd" clip-rule="evenodd" d="M36.6179 24.0269C36.612 23.6637 36.5483 23.1926 37.1646 23.0193C37.9852 22.7882 39.0266 23.4182 38.5942 24.5488C38.4637 24.89 38.3165 25.0349 38.1212 25.2794C37.9727 25.4648 38.0063 25.3968 37.9138 25.4963C37.4509 25.9942 36.631 26.4896 36.0359 26.8569C35.8409 26.9774 34.3151 27.9302 34.1523 28.0026L34.5803 28.9605C34.8019 29.0508 35.0668 30.5456 35.0924 30.5494C35.2181 30.5188 35.5799 30.3094 35.7225 30.2359C35.9386 30.1247 36.1432 30.0286 36.3648 29.916C38.3816 28.8901 40.6678 27.8268 41.6885 25.7501C42.2622 24.5831 42.3498 23.1875 41.5943 22.0295C41.5265 21.9258 41.4773 21.8499 41.4022 21.7538C41.3693 21.7115 41.3294 21.6621 41.2945 21.6158C41.0151 21.246 40.5882 20.9071 40.1509 20.6156C38.3151 19.3931 35.3701 20.021 35.0273 21.8554C34.9023 22.5249 35.2381 23.0165 35.5899 23.3612C35.8354 23.6015 36.2678 23.9576 36.6179 24.0269Z" fill="#2F2483"/>
<path fill-rule="evenodd" clip-rule="evenodd" d="M35.7758 49.3777L36.0549 49.2761C35.9701 49.3495 35.869 49.4319 35.7821 49.4992C36.1816 49.4189 37.22 48.7913 37.5735 48.5063C38.4941 47.7651 39.3251 46.925 39.3251 45.5805C39.3251 44.3294 38.6091 43.5079 37.9242 42.6674C37.6296 42.3059 36.8523 41.6381 36.4468 41.3319C35.5722 40.6713 34.0938 39.7711 33.0946 39.0697C32.6175 38.735 32.3699 38.5039 31.9842 38.2083L31.3582 37.6085C30.9369 37.1251 30.3282 36.467 30.2797 35.5197C30.2264 34.4733 30.9348 33.3853 31.5365 32.824C31.7851 32.5922 32.4381 31.9711 32.4406 31.5348C32.443 31.0459 31.8146 31.1619 31.7772 30.6902L30.4542 29.9727C30.3299 30.0472 30.2544 30.1296 30.1509 30.224C30.1 30.2703 30.0602 30.2937 30.0076 30.338C29.9504 30.3857 29.922 30.4276 29.8673 30.4777C29.6669 30.6627 29.5041 30.7994 29.3182 31.003C28.8456 31.5214 28.8279 31.5042 28.3498 32.1782C27.747 33.0276 27.3658 34.2567 27.4704 35.5458C27.6708 38.0088 29.6426 39.481 31.1114 40.4629C31.5327 40.7444 31.9718 41.0308 32.4402 41.289C33.2916 41.7576 35.0197 42.7776 35.7343 43.3795L36.2903 43.8979C36.8772 44.5231 37.7348 45.5252 37.5399 46.8628C37.4173 47.7043 37.0109 48.4328 36.451 48.9784C36.2519 49.1727 35.9884 49.2139 35.7758 49.3777Z" fill="#2F2483"/>
<path fill-rule="evenodd" clip-rule="evenodd" d="M24.4141 25.692C24.4934 26.0752 24.6 26.5819 24.9428 26.9839C25.5563 27.7039 25.2655 27.6685 25.5622 28.1042C25.7644 28.4008 25.8679 28.3638 26.1144 28.178C26.1757 28.132 26.2384 28.0706 26.2955 28.0009C26.6317 28.6243 27.0939 29.2444 27.7203 29.8232C28.7842 30.8055 29.8531 31.1595 31.0008 31.5292C30.8187 31.6995 30.7384 31.9762 30.843 32.2581C30.9056 31.3874 30.0982 31.3579 29.709 31.419C30.1366 31.5069 30.2938 31.406 30.2447 31.6672C30.1955 31.9285 29.4971 31.5642 29.0117 31.5608C29.6907 31.8039 30.2149 31.9079 30.262 32.2145C30.3094 32.5211 29.9819 32.5818 29.4743 32.6018C29.8351 32.6955 30.1031 32.713 30.566 32.6931C31.0289 32.6728 31.2671 32.8812 31.6192 32.7322C31.971 32.5829 31.6898 32.4088 31.9468 32.1699C32.0648 32.0603 32.1524 31.9944 32.1915 31.934C32.9688 32.2255 33.7891 32.6138 34.6713 33.2692C38.9369 36.437 34.0976 40.0114 32.9917 40.7341C31.8858 41.4564 29.8901 42.6066 28.8898 44.6075C28.6527 45.0243 27.6413 48.5073 31.1958 49.1651C28.8261 48.3868 28.7593 45.8321 30.1477 44.2916C30.8752 43.4844 32.0749 43.0302 33.197 42.4953C36.4617 40.939 37.8836 39.3271 38.3047 36.7707C38.726 34.214 37.696 32.404 35.6719 30.3235C35.3336 29.9757 34.9787 29.6533 34.6162 29.3549C34.8205 29.0298 35.1051 29.2609 34.9403 28.6189C34.7644 27.9343 35.1692 27.776 35.3613 27.3777C35.2284 27.4595 34.9773 28.0098 34.7308 27.8996C34.4843 27.7887 34.3164 27.2837 34.4116 26.781C34.0567 27.4389 34.6034 27.7722 34.3091 27.7629C34.0148 27.754 33.7482 27.0409 33.8261 26.5115C33.6703 26.8676 33.636 27.0509 33.8438 27.6006C34.0515 28.1502 34.2561 28.1677 34.2908 28.542C34.3122 28.7754 34.0744 28.7071 33.8808 28.7867C32.6887 27.9202 31.4752 27.282 30.5289 26.792C30.5362 26.7707 30.541 26.7484 30.5431 26.7251C30.5691 26.4329 30.344 26.2321 30.344 26.013C30.344 25.7936 30.8211 24.9697 30.8952 24.6624C30.6937 25.074 30.3787 25.611 30.1453 25.5104C29.9116 25.4101 30.1498 24.8018 30.2578 24.3599C29.9317 25.0215 30.0587 25.2639 29.7644 25.255C29.4701 25.2457 29.7385 24.4787 29.8164 23.949C29.6606 24.305 29.4615 24.9443 29.5048 25.4833C29.548 26.022 29.7731 25.7572 29.8077 26.1315C29.8184 26.2475 29.78 26.3176 29.7222 26.3704C29.5418 26.2733 29.3822 26.1833 29.2475 26.0992C28.089 25.3765 27.141 24.9322 27.7729 23.7649C28.4051 22.5976 28.9844 23.1535 29.6689 21.9862C30.3534 20.8192 30.2277 20.2016 30.2277 20.2016C30.2277 20.2016 28.9317 19.93 27.7729 20.319C26.6147 20.708 26.0351 22.0418 25.7194 22.9313C25.5366 23.4456 25.2966 24.8045 25.6699 26.3598C25.6494 26.412 25.6148 26.4521 25.5584 26.4679C25.3146 26.5369 25.0556 25.5626 24.9784 24.9247C24.8036 25.6985 25.4486 26.598 25.209 26.778C24.9691 26.9582 24.6547 26.1641 24.4141 25.692Z" fill="#6557A0" stroke="#2B2A29" stroke-width="0.1" stroke-miterlimit="22.9256" stroke-linecap="square"/>
<path fill-rule="evenodd" clip-rule="evenodd" d="M24.4023 25.6957C24.4816 26.0785 24.5879 26.5846 24.9297 26.9863C25.5421 27.7055 25.2517 27.6705 25.5477 28.1058C25.7495 28.4021 25.8527 28.365 26.0989 28.1796C26.3451 27.9939 26.6106 27.5637 26.4645 27.3145C26.3184 27.0652 26.0248 27.0484 25.8998 26.8736C25.7745 26.6992 25.6277 25.8897 25.6277 25.8897C25.6277 25.8897 25.7869 26.4019 25.5439 26.4709C25.3008 26.5396 25.0425 25.5663 24.9653 24.9287C24.7912 25.7019 25.4348 26.6007 25.1956 26.7806C24.9563 26.9608 24.6426 26.1671 24.4023 25.6957Z" fill="url(#paint0_linear_119_274)" stroke="#2B2A29" stroke-width="0.1" stroke-miterlimit="22.9256" stroke-linecap="square"/>
<path fill-rule="evenodd" clip-rule="evenodd" d="M31.1901 49.0969C28.826 48.3193 28.7591 45.7666 30.1444 44.2272C30.8701 43.4207 32.0671 42.9672 33.1868 42.4326C36.4442 40.8777 37.9063 39.2672 38.4998 36.7125C39.0936 34.1578 37.7491 32.1817 35.8293 29.9998C33.7425 27.6281 30.402 26.7715 29.2463 26.0495C28.0902 25.3275 27.1446 24.8833 27.7751 23.717C28.4056 22.5507 28.9835 23.1059 29.6666 21.94C30.3494 20.7737 30.2241 20.1567 30.2241 20.1567C30.2241 20.1567 28.9309 19.8852 27.7751 20.2738C26.6191 20.6624 26.0412 21.9956 25.7258 22.8841C25.4107 23.7726 24.926 27.1839 27.7225 29.7705C29.8242 31.714 31.9452 31.196 34.6579 33.2137C38.9135 36.3791 34.0853 39.9507 32.9818 40.6727C31.8787 41.3944 29.8875 42.5435 28.8893 44.543C28.6528 44.9595 27.6436 48.4398 31.1901 49.0969Z" fill="url(#paint1_linear_119_274)" stroke="#2B2A29" stroke-width="0.1" stroke-miterlimit="22.9256" stroke-linecap="square"/>
<path fill-rule="evenodd" clip-rule="evenodd" d="M31.0571 49.2339C27.664 47.864 28.8959 44.5606 30.9747 43.1516C32.9413 41.8181 35.2282 41.1284 37.0342 38.4219C38.6085 36.0626 37.2918 33.1176 35.1673 31.4446C33.0428 29.7716 30.4256 28.9974 28.9122 28.1308C27.0512 27.0655 25.9367 24.2059 26.8106 22.5532C27.6844 20.9004 28.5971 21.4978 29.2799 21.1648C29.963 20.8314 30.2258 20.2762 30.2258 20.2762C30.2258 20.2762 29.2581 19.9861 27.7222 20.4273C26.1863 20.8681 25.7829 23.1083 25.7597 23.7747C25.7369 24.4414 25.5575 26.6411 27.6097 28.4528C29.4994 30.1207 32.1003 30.7397 32.6429 31.0806C33.1854 31.4216 36.3289 32.8072 36.9293 35.7481C37.2738 37.4349 35.6257 39.5896 33.5559 40.932C31.4826 42.2768 28.2634 43.9234 28.7155 46.6174C29.0362 48.5284 30.0063 48.7869 31.0571 49.2339Z" fill="url(#paint2_linear_119_274)" stroke="#2B2A29" stroke-width="0.1" stroke-miterlimit="22.9256" stroke-linecap="square"/>
<path fill-rule="evenodd" clip-rule="evenodd" d="M29.8059 23.9707C29.6504 24.3267 29.452 24.9653 29.495 25.5036C29.5382 26.0423 29.7626 25.7776 29.7972 26.1518C29.8318 26.5257 29.3568 26.4255 29.3482 26.7904C29.3395 27.1554 29.443 27.1921 29.7453 27.201C30.0475 27.2103 30.5053 27.0369 30.5312 26.7448C30.5569 26.4529 30.3325 26.2521 30.3325 26.0331C30.3325 25.814 30.6777 25.0748 30.6777 25.0748C30.6777 25.0748 30.3671 25.6314 30.1338 25.5311C29.9007 25.4309 30.1511 24.8833 30.2463 24.3813C29.8921 25.0384 30.0475 25.2849 29.7539 25.2757C29.4603 25.2664 29.728 24.5001 29.8059 23.9707Z" fill="url(#paint3_linear_119_274)" stroke="#2B2A29" stroke-width="0.1" stroke-miterlimit="22.9256" stroke-linecap="square"/>
<path fill-rule="evenodd" clip-rule="evenodd" d="M29.3948 32.5985C29.7549 32.6922 30.0225 32.7097 30.4844 32.6898C30.9463 32.6695 31.1841 32.8779 31.5349 32.7289C31.8859 32.5799 31.6058 32.4055 31.862 32.1669C32.1183 31.9283 32.2322 31.8971 32.0134 31.677C31.2966 30.9553 30.5142 31.5905 30.7607 32.2552C30.8233 31.3852 30.2739 31.4144 29.7552 31.4126C29.7552 31.4126 30.2919 31.4068 30.2431 31.6677C30.1939 31.9287 29.418 31.5616 28.9336 31.5582C29.6112 31.8009 30.134 31.905 30.1811 32.2115C30.2282 32.5178 29.9013 32.5786 29.3948 32.5985Z" fill="url(#paint4_linear_119_274)" stroke="#2B2A29" stroke-width="0.1" stroke-miterlimit="22.9256" stroke-linecap="square"/>
<path fill-rule="evenodd" clip-rule="evenodd" d="M33.8184 26.5586C33.6633 26.9146 33.6287 27.0976 33.8361 27.6469C34.0435 28.1962 34.2474 28.2134 34.282 28.5876C34.3166 28.9619 33.6858 28.5598 33.638 29.2376C33.6193 29.5047 33.8049 30.1161 34.1072 30.1254C34.4091 30.1343 34.4357 29.9743 34.4821 29.745C34.6501 28.9159 35.1337 29.4587 34.9302 28.6642C34.7546 27.9803 35.1144 27.8763 35.3062 27.4784C35.1732 27.4382 34.9672 28.0558 34.7214 27.9456C34.4752 27.8351 34.3076 27.33 34.4025 26.8281C34.0486 27.4852 34.594 27.8183 34.3004 27.8093C34.0068 27.8001 33.7408 27.088 33.8184 26.5586Z" fill="url(#paint5_linear_119_274)" stroke="#2B2A29" stroke-width="0.1" stroke-miterlimit="22.9256" stroke-linecap="square"/>
<path fill-rule="evenodd" clip-rule="evenodd" d="M27.6042 22.0039C27.6835 22.1183 27.8881 22.076 28.1378 22.052C28.3877 22.028 28.2627 21.8714 28.5238 21.6064C28.8153 21.5322 27.536 21.6846 27.6042 22.0039Z" fill="#005493" stroke="#2B2A29" stroke-width="0.1" stroke-miterlimit="22.9256" stroke-linecap="square"/>
<path fill-rule="evenodd" clip-rule="evenodd" d="M26.0938 20.5219C26.0938 20.5219 26.7523 21.2566 27.2973 21.2446C27.8426 21.2325 28.1718 21.112 28.2965 20.7385C28.336 20.6211 28.4104 19.3518 28.4419 19.1887C28.3696 19.0662 28.1604 20.0141 28.0476 19.7789C27.935 19.5434 27.9267 19.5077 27.9219 19.1849C27.8197 19.5101 27.9447 19.5585 27.729 19.8596C27.5133 20.1607 27.1612 19.6306 27.1044 19.5101C27.1837 19.9076 27.2748 20.0398 27.1612 20.1607C27.0476 20.2812 26.6955 20.0041 26.5137 19.8472C26.3323 19.6907 26.9451 20.3172 26.7069 20.5098C26.4684 20.7024 26.0938 20.5219 26.0938 20.5219Z" fill="#2F2483" stroke="#2B2A29" stroke-width="0.1" stroke-miterlimit="22.9256" stroke-linecap="square"/>
<path fill-rule="evenodd" clip-rule="evenodd" d="M26.0938 20.5218C26.1021 20.5218 26.8458 21.2964 27.3101 21.2977C27.5715 21.2984 27.8339 21.2164 28.0334 21.1048C28.193 21.0159 28.3768 20.734 28.399 20.632C28.5195 20.0834 28.4412 19.8218 28.4558 19.1887C28.461 18.9497 28.3273 19.8424 28.2414 20.0882C28.1552 20.3344 27.9447 19.6426 27.8879 19.5221C27.8312 19.4016 27.9901 20.2327 27.6833 20.4617C27.3769 20.6904 27.0064 20.3024 26.8247 20.1459C26.6429 19.9893 27.1837 20.5819 26.9455 20.7745C26.7069 20.9675 26.0938 20.5218 26.0938 20.5218Z" fill="url(#paint6_linear_119_274)" stroke="#2B2A29" stroke-width="0.1" stroke-miterlimit="22.9256" stroke-linecap="square"/>
<path fill-rule="evenodd" clip-rule="evenodd" d="M28.0379 21.7285C28.0943 21.7285 28.1418 21.8174 28.1418 21.8772C28.1418 21.9366 28.0961 22.0148 28.0396 22.0148C27.9835 22.0148 27.9375 21.9366 27.9375 21.8772C27.9375 21.8174 27.9818 21.7285 28.0379 21.7285Z" fill="#FEFEFE" stroke="#2B2A29" stroke-width="0.1" stroke-miterlimit="22.9256" stroke-linecap="square"/>
<path fill-rule="evenodd" clip-rule="evenodd" d="M20.1468 10.1607L19.7552 10.4346L18.7557 9.20348L18.1875 9.60071C18.4756 10.0103 18.5895 10.4161 18.5299 10.8212C18.4707 11.225 18.2585 11.5549 17.8922 11.811C17.5071 12.0805 17.0858 12.1777 16.627 12.1032C16.1696 12.0287 15.7656 11.7757 15.4152 11.3438C15.0506 10.895 14.892 10.4552 14.9388 10.0251C14.9859 9.59556 15.2068 9.24262 15.6001 8.96762C15.9581 8.71734 16.3445 8.61812 16.7603 8.67065C17.1768 8.72283 17.5632 8.92711 17.9181 9.28485L18.4946 8.88145L17.5286 7.69183L17.9202 7.41786L20.1468 10.1607ZM17.6702 9.72225C17.3887 9.37549 17.0844 9.16675 16.7569 9.09568C16.4293 9.02427 16.126 9.08641 15.8459 9.28211C15.5599 9.48226 15.4093 9.73804 15.3944 10.0494C15.3799 10.3612 15.5191 10.6973 15.8116 11.0574C16.089 11.399 16.3916 11.6098 16.7188 11.6888C17.047 11.7674 17.3538 11.707 17.6401 11.5068C17.9309 11.3033 18.0805 11.0423 18.0874 10.7251C18.0947 10.4086 17.9559 10.0742 17.6702 9.72225ZM14.9575 14.2565L13.8118 13.1929C13.6418 13.3505 13.5559 13.4882 13.5556 13.6049C13.5535 13.7223 13.6193 13.9335 13.7515 14.2394C13.8502 14.4656 13.9118 14.6335 13.9347 14.7434C13.9586 14.8525 13.9513 14.97 13.9129 15.0949C13.8741 15.2206 13.8035 15.3315 13.6999 15.4276C13.5871 15.532 13.5151 15.5965 13.4853 15.6199L13.1858 15.3414C13.1965 15.3315 13.2197 15.3109 13.2557 15.28C13.2945 15.246 13.3184 15.225 13.327 15.2171C13.4378 15.1142 13.4925 15.0136 13.4925 14.914C13.4939 14.8134 13.442 14.6489 13.3374 14.4217C13.2246 14.1755 13.1612 13.9946 13.1491 13.8792C13.137 13.7639 13.1605 13.6355 13.2214 13.4954C13.0023 13.6107 12.6806 13.6197 12.2561 13.5242L10.8459 13.2159L11.2749 12.818L12.4216 13.0717C12.727 13.138 12.9573 13.1696 13.1145 13.1675C13.2716 13.1651 13.4219 13.0978 13.5656 12.9643L12.3413 11.8279L12.6966 11.4983L13.9208 12.6347C14.0354 12.5286 14.1061 12.4064 14.1334 12.2701C14.1608 12.1327 14.1334 11.9185 14.0514 11.626L14.0372 11.5724L13.7636 10.5074L14.1937 10.1085L14.5264 11.4169C14.6268 11.8155 14.6164 12.1145 14.4935 12.3147C14.6261 12.2628 14.7535 12.2385 14.8764 12.2429C14.9997 12.2464 15.205 12.3058 15.4931 12.4204C15.7548 12.5245 15.9359 12.5736 16.037 12.5681C16.1388 12.5629 16.2423 12.5111 16.3483 12.4125L16.4837 12.2804L16.7832 12.5584C16.7728 12.5725 16.7077 12.6354 16.5872 12.7473C16.4733 12.853 16.35 12.9231 16.2198 12.957C16.0886 12.9917 15.964 12.9979 15.8459 12.9763C15.7275 12.9546 15.5436 12.8983 15.295 12.8067C14.9606 12.6817 14.7328 12.6206 14.6105 12.6233C14.489 12.6264 14.3412 12.7061 14.167 12.8633L15.3127 13.9269L14.9575 14.2565ZM10.7095 13.6135L13.6643 15.6803L13.3693 16.0439L12.1557 15.1948L10.9986 16.6203L12.2122 17.4694L11.9172 17.8326L8.96241 15.7658L9.2574 15.4022L10.65 16.3762L11.8071 14.9511L10.4145 13.9767L10.7095 13.6135ZM10.2518 17.1648C10.7888 17.4412 11.1295 17.7914 11.2732 18.2154C11.4169 18.6394 11.3629 19.0634 11.1098 19.4871C10.9443 19.7641 10.7234 19.9777 10.4481 20.1267C10.1722 20.2757 9.87162 20.343 9.54651 20.3286C9.22208 20.3145 8.89732 20.2232 8.57393 20.0566C8.2457 19.8877 7.9881 19.6756 7.80321 19.4194C7.61763 19.1633 7.52553 18.8883 7.52657 18.5944C7.5283 18.2999 7.6069 18.0231 7.7627 17.7622C7.93167 17.479 8.15568 17.264 8.43613 17.1178C8.71623 16.9702 9.01815 16.9049 9.34119 16.9214C9.66353 16.9375 9.96753 17.0189 10.2518 17.1648ZM10.0001 17.5713C9.60987 17.3705 9.24528 17.3101 8.90459 17.3887C8.56354 17.4683 8.3056 17.6548 8.13006 17.9486C7.9514 18.248 7.91747 18.5522 8.02896 18.8619C8.14045 19.1716 8.40393 19.4345 8.8208 19.6488C9.08359 19.784 9.33842 19.8603 9.58425 19.8791C9.83042 19.8977 10.0548 19.8551 10.258 19.7521C10.4609 19.6481 10.6219 19.4977 10.74 19.2996C10.9082 19.0177 10.9488 18.7225 10.8612 18.4121C10.7743 18.1024 10.4869 17.8216 10.0001 17.5713ZM7.92405 19.9753L8.34438 20.1408L7.79906 21.3338L7.37873 21.1683L7.92405 19.9753ZM9.81276 21.9353L9.66803 22.3751L7.14779 22.8307L9.00673 24.3825L8.86442 24.8144L6.51868 22.8019C6.22507 22.5495 6.04192 22.3593 5.96782 22.2316C5.89407 22.1025 5.88715 21.946 5.94774 21.7623C5.98444 21.65 6.05853 21.5213 6.16829 21.3743L6.56854 21.488C6.45774 21.5838 6.38088 21.6964 6.33829 21.8265C6.30298 21.9326 6.31025 22.0342 6.35803 22.1324C6.40616 22.2302 6.54465 22.3617 6.77524 22.5289L9.81276 21.9353ZM5.34356 24.2325L8.96275 24.9466L8.67261 26.2138C8.62137 26.4366 8.57082 26.6049 8.52096 26.7178C8.45379 26.8768 8.3655 27.0042 8.25643 27.0996C8.14841 27.1944 8.01095 27.2613 7.84615 27.2998C7.68065 27.3382 7.50857 27.3396 7.32887 27.3042C7.02141 27.2435 6.78113 27.101 6.60939 26.8778C6.4387 26.6533 6.40685 26.3038 6.51557 25.829L6.71327 24.9672L5.24177 24.6768L5.34356 24.2325ZM7.14017 25.0513L6.94143 25.9203C6.87565 26.2076 6.88604 26.4229 6.97398 26.5661C7.06192 26.7092 7.20977 26.8016 7.41889 26.8428C7.57054 26.8727 7.70834 26.863 7.8323 26.8133C7.9566 26.7631 8.04869 26.6842 8.10998 26.5743C8.14841 26.5036 8.19065 26.368 8.23705 26.1661L8.43371 25.3064L7.14017 25.0513ZM4.8062 26.6842L8.42678 28.1818L8.39908 28.6703L4.62478 29.8946L4.65421 29.3772L5.79609 29.0315L5.87676 27.5971L4.77885 27.1665L4.8062 26.6842ZM6.26766 27.7474L6.20222 28.911L7.24543 28.6023C7.56189 28.5086 7.82191 28.4396 8.0255 28.3967C7.7904 28.3414 7.55912 28.2683 7.32956 28.1773L6.26766 27.7474ZM8.36481 30.4398L8.48599 32.588L4.79132 32.7675L4.76569 32.3133L8.02411 32.1547L7.95417 30.9153L6.05126 31.008C5.66521 31.0269 5.3813 31.0238 5.19953 30.9991C5.01775 30.974 4.87372 30.9098 4.76777 30.8078C4.66182 30.7048 4.60435 30.5706 4.595 30.4055C4.58946 30.3056 4.60227 30.1847 4.63482 30.0422L5.0728 30.0978C5.04337 30.1744 5.02987 30.2393 5.03264 30.2929C5.03853 30.3959 5.08527 30.4704 5.17044 30.5184C5.257 30.5655 5.45435 30.5812 5.7632 30.5661L8.36481 30.4398ZM8.58709 32.967L8.66361 33.4164L7.10313 33.6458L7.24127 34.4553C7.30567 34.8337 7.30498 35.1138 7.2392 35.2975C7.17376 35.4812 7.06539 35.6219 6.91547 35.7201C6.76485 35.8183 6.60351 35.8801 6.43074 35.9055C6.14821 35.9471 5.88542 35.8935 5.64201 35.7462C5.39896 35.5982 5.23553 35.2807 5.15244 34.7931L4.93258 33.5043L8.58709 32.967ZM5.42008 33.8933L5.5603 34.7145C5.61709 35.0479 5.71819 35.2556 5.86291 35.338C6.00695 35.4197 6.16864 35.4479 6.34799 35.4214C6.49444 35.3998 6.61251 35.3452 6.70219 35.2566C6.79151 35.1684 6.84137 35.0613 6.85037 34.9353C6.85938 34.8086 6.83964 34.6002 6.78978 34.308L6.68695 33.7069L5.42008 33.8933ZM7.58301 38.4523L7.60759 38.9213C7.19384 38.9391 6.84622 38.8581 6.56577 38.6792C6.28601 38.4993 6.09039 38.2387 5.97752 37.8965C5.86083 37.5421 5.84352 37.2328 5.92558 36.9671C6.00798 36.701 6.17729 36.4682 6.43351 36.2694C6.69041 36.07 6.98748 35.9223 7.32506 35.8262C7.69346 35.7218 8.03623 35.6957 8.35373 35.7486C8.67088 35.8015 8.9406 35.9282 9.16253 36.1294C9.38447 36.3299 9.5427 36.575 9.63826 36.8648C9.74663 37.1937 9.74767 37.4951 9.64103 37.7705C9.53439 38.0458 9.33288 38.2738 9.03477 38.4544L8.78514 38.0578C9.01781 37.9081 9.16876 37.745 9.2387 37.5662C9.30899 37.3883 9.30726 37.1896 9.23489 36.9695C9.1518 36.7171 9.01746 36.5252 8.83118 36.3924C8.64422 36.2598 8.43059 36.1901 8.18823 36.1843C7.94621 36.1778 7.70834 36.2076 7.47533 36.2739C7.17376 36.3594 6.92516 36.4744 6.72711 36.6193C6.52976 36.7645 6.40338 36.9386 6.34868 37.1422C6.29432 37.3458 6.30021 37.5473 6.36634 37.7475C6.44632 37.9905 6.59001 38.1749 6.79636 38.3012C7.00341 38.4272 7.26586 38.4774 7.58301 38.4523ZM10.1562 38.4423L10.3473 38.8605L8.85611 39.4483C8.94337 39.6395 9.04447 39.758 9.16011 39.8043C9.2754 39.85 9.51223 39.8743 9.87093 39.8754C10.1337 39.875 10.3245 39.885 10.4429 39.9063C10.5606 39.9265 10.6756 39.977 10.786 40.0567C10.8968 40.1373 10.9813 40.2403 11.0391 40.367C11.1129 40.5284 11.1499 40.6135 11.151 40.6235L10.7608 40.7773C10.7542 40.7625 10.7421 40.7344 10.7244 40.6918C10.705 40.6455 10.6932 40.6173 10.6884 40.607C10.6271 40.4728 10.5471 40.388 10.4478 40.3509C10.3477 40.3121 10.1638 40.2949 9.89759 40.3001C9.56139 40.3073 9.33877 40.2891 9.2297 40.2451C9.12168 40.2008 9.02127 40.137 8.92952 40.0532C8.96241 40.2812 8.85127 40.562 8.59748 40.8964L7.76132 41.9947L7.52345 41.4753L8.20658 40.5823C8.39562 40.3368 8.51507 40.1456 8.56666 40.0106C8.61687 39.875 8.60648 39.7298 8.5355 39.5746L6.94178 40.2026L6.75066 39.7844L10.1562 38.4423ZM7.79317 41.9937L11.6966 41.3558L11.9681 41.775L9.57663 44.7492L9.28891 44.3049L10.0274 43.4257L9.23074 42.1945L8.06116 42.4077L7.79317 41.9937ZM9.64518 42.1163L10.2916 43.115L10.9706 42.3174C11.1766 42.0757 11.3507 41.8835 11.4934 41.7424C11.2652 41.8182 11.0294 41.878 10.7843 41.9212L9.64518 42.1163ZM11.5931 47.182L14.5479 45.1148L13.5608 43.8988C13.3624 43.6543 13.1847 43.4871 13.0286 43.3972C12.8724 43.3072 12.6962 43.2712 12.4999 43.2884C12.3036 43.3066 12.1242 43.3728 11.9618 43.4865C11.752 43.6334 11.6267 43.8191 11.5855 44.0461C11.5439 44.2727 11.6104 44.5312 11.7849 44.8216C11.6572 44.7602 11.5491 44.7214 11.4598 44.7056C11.2694 44.673 11.0564 44.6644 10.8224 44.6792L9.63099 44.7647L10.0015 45.2213L10.911 45.1536C11.1738 45.1361 11.3812 45.1282 11.5308 45.1317C11.6804 45.1344 11.7963 45.1492 11.8774 45.1777C11.9594 45.2055 12.0301 45.2422 12.0906 45.2875C12.1336 45.3229 12.1928 45.3868 12.269 45.4805L12.6107 45.9014L11.2988 46.8191L11.5931 47.182ZM12.949 45.6645L12.3157 44.8841C12.1814 44.7186 12.0941 44.5755 12.0557 44.4564C12.0165 44.3365 12.0183 44.2243 12.0598 44.1189C12.1017 44.0135 12.1699 43.9276 12.2658 43.8607C12.4054 43.7632 12.5581 43.7292 12.7249 43.7608C12.8911 43.7917 13.0566 43.9091 13.2221 44.1127L13.9267 44.9806L12.949 45.6645ZM14.9142 50.1442L17.0117 47.8237L16.0779 47.0965L16.3587 46.7858L18.6047 48.5357L18.3243 48.8461L17.3863 48.1158L15.2888 50.436L14.9142 50.1442ZM17.3745 49.8036C17.718 49.3309 18.1231 49.0463 18.5909 48.9505C19.0586 48.8547 19.5087 48.9415 19.9415 49.2124C20.2244 49.3896 20.4342 49.6127 20.5703 49.8802C20.7057 50.1483 20.7521 50.4319 20.7081 50.7313C20.6645 51.0303 20.5384 51.3225 20.3317 51.6068C20.1216 51.8958 19.8716 52.1156 19.5807 52.2642C19.2892 52.4136 18.9863 52.4747 18.6712 52.4479C18.3551 52.4208 18.0649 52.324 17.7987 52.1575C17.5092 51.9762 17.2984 51.7506 17.1654 51.4784C17.0318 51.2064 16.9881 50.9215 17.0338 50.6242C17.0792 50.3275 17.1928 50.0536 17.3745 49.8036ZM17.7886 50.0714C17.5393 50.4151 17.4424 50.7471 17.4974 51.0688C17.5532 51.3912 17.7305 51.6459 18.0307 51.8337C18.336 52.0253 18.6598 52.083 19.0018 52.0071C19.3439 51.9309 19.649 51.7098 19.9156 51.3434C20.0835 51.112 20.1877 50.883 20.2289 50.6571C20.2704 50.4312 20.2441 50.2201 20.1513 50.023C20.0575 49.8263 19.91 49.6646 19.7082 49.5379C19.4201 49.358 19.1067 49.2945 18.7661 49.3487C18.4261 49.4019 18.0999 49.6433 17.7886 50.0714ZM19.8809 53.2451L21.5027 50.1579L22.7571 50.7261C22.9777 50.826 23.1411 50.9122 23.247 50.9843C23.3973 51.0835 23.5091 51.1937 23.5825 51.3149C23.6552 51.4351 23.6919 51.5755 23.6923 51.7331C23.6926 51.8914 23.6521 52.0466 23.5718 52.1997C23.434 52.462 23.2269 52.6443 22.952 52.7449C22.6764 52.8441 22.3032 52.7881 21.833 52.5756L20.9799 52.189L20.3206 53.4442L19.8809 53.2451ZM21.1713 51.8248L22.0317 52.2144C22.3157 52.3428 22.5435 52.3854 22.7145 52.3411C22.8856 52.2965 23.0175 52.1856 23.1113 52.0074C23.1792 51.878 23.2024 51.7516 23.1802 51.6277C23.1584 51.5038 23.0978 51.4015 22.9981 51.3201C22.933 51.2682 22.8018 51.1972 22.602 51.1069L21.7509 50.7217L21.1713 51.8248ZM24.3342 51.3314L26.582 52.0909L26.4327 52.4719L24.6444 51.8677L23.5285 54.7142L23.0687 54.5587L24.3342 51.3314ZM25.6433 53.6952C25.7711 53.1373 26.0321 52.7329 26.4268 52.4812C26.8219 52.2296 27.2741 52.1537 27.7848 52.2546C28.1186 52.3205 28.4032 52.4541 28.6372 52.6549C28.8713 52.8565 29.0288 53.1033 29.1088 53.3962C29.1888 53.6883 29.1898 54.0035 29.1129 54.3389C29.035 54.6799 28.8917 54.9706 28.6819 55.2096C28.4721 55.4492 28.2158 55.6113 27.9125 55.6961C27.6089 55.7809 27.3007 55.7922 26.9864 55.7301C26.645 55.6628 26.3583 55.5268 26.1253 55.3205C25.8916 55.1152 25.7365 54.8663 25.6586 54.5745C25.5807 54.2837 25.5758 53.9901 25.6433 53.6952ZM26.1357 53.7996C26.0429 54.2047 26.0868 54.5463 26.2679 54.8254C26.4497 55.1052 26.717 55.2796 27.0708 55.3493C27.4316 55.4207 27.755 55.3617 28.0413 55.1722C28.328 54.9827 28.5216 54.672 28.6206 54.2394C28.6833 53.9661 28.6871 53.7179 28.6344 53.494C28.5818 53.2702 28.4721 53.0834 28.3066 52.933C28.1404 52.7833 27.9382 52.6845 27.7 52.6374C27.3603 52.5705 27.0438 52.6209 26.7499 52.7895C26.4563 52.9571 26.2513 53.2942 26.1357 53.7996ZM29.356 56.0559L29.7427 52.6402L31.1235 52.7747C31.4047 52.8022 31.6259 52.8592 31.788 52.9444C31.9507 53.0302 32.0712 53.1497 32.1512 53.3028C32.2308 53.4556 32.2626 53.6104 32.2446 53.768C32.2284 53.9136 32.1698 54.0468 32.0694 54.1673C31.9701 54.2878 31.8288 54.3794 31.6477 54.4423C31.8638 54.5243 32.0224 54.6445 32.1259 54.8017C32.2294 54.9597 32.2696 55.1382 32.2471 55.337C32.2291 55.4966 32.1754 55.6418 32.0871 55.7723C31.9985 55.9028 31.8967 55.9999 31.781 56.0641C31.6657 56.1283 31.5248 56.1709 31.3593 56.1936C31.1938 56.2159 30.994 56.2155 30.7593 56.1929L29.356 56.0559ZM30.0675 54.1233L30.8635 54.2009C31.0785 54.2219 31.235 54.2236 31.3323 54.2064C31.4597 54.1841 31.5594 54.1371 31.6308 54.0636C31.7024 53.9901 31.7454 53.8936 31.7589 53.7745C31.7717 53.6616 31.754 53.5586 31.7052 53.4669C31.656 53.3745 31.5788 53.3072 31.4743 53.265C31.3694 53.2224 31.1841 53.1885 30.9196 53.1627L30.1845 53.091L30.0675 54.1233ZM29.8888 55.7002L30.805 55.7895C30.9625 55.8049 31.0737 55.8101 31.1384 55.806C31.2527 55.7981 31.3496 55.7761 31.4299 55.7397C31.5103 55.704 31.5792 55.6463 31.6373 55.5684C31.6945 55.4898 31.7301 55.3967 31.7426 55.2875C31.7571 55.1605 31.7343 55.0465 31.6747 54.9449C31.6152 54.8443 31.5252 54.7688 31.4043 54.7183C31.2842 54.6689 31.1066 54.6321 30.8725 54.6095L30.0218 54.5264L29.8888 55.7002ZM32.3724 54.7231C32.3298 54.1542 32.4603 53.6986 32.7654 53.3557C33.0701 53.0127 33.4824 52.8242 34.0032 52.7902C34.3435 52.7682 34.6569 52.8242 34.9415 52.9571C35.2261 53.091 35.4508 53.288 35.6149 53.5489C35.7787 53.8095 35.8732 54.112 35.8988 54.4539C35.9251 54.8021 35.8739 55.1179 35.743 55.4012C35.6125 55.6855 35.4141 55.9069 35.1482 56.0659C34.8812 56.2252 34.5883 56.3148 34.2677 56.3354C33.9197 56.358 33.6036 56.301 33.3187 56.1623C33.0327 56.0247 32.8097 55.8248 32.6483 55.5646C32.487 55.3047 32.3952 55.0239 32.3724 54.7231ZM32.8765 54.6977C32.9077 55.1107 33.0517 55.4276 33.3086 55.6497C33.5662 55.8722 33.8751 55.9714 34.2358 55.9481C34.6039 55.9241 34.8971 55.785 35.1163 55.5292C35.3355 55.2738 35.4293 54.9253 35.3961 54.4842C35.3749 54.2061 35.305 53.9661 35.188 53.7642C35.071 53.5627 34.9103 53.4113 34.7064 53.309C34.5017 53.2077 34.2784 53.1644 34.0354 53.1802C33.6888 53.2029 33.4 53.332 33.1674 53.5692C32.9347 53.8058 32.8377 54.1824 32.8765 54.6977ZM36.2426 55.144L36.1633 54.7265L37.5386 54.5013L37.6179 54.9188L36.2426 55.144ZM37.3796 52.6058L40.1904 51.9068L41.1481 55.2244L40.6723 55.3428L39.8275 52.4167L37.9655 52.8798L38.8099 55.806L38.3373 55.9234L37.3796 52.6058ZM41.9482 55.0349L40.6221 51.8285L41.925 51.3644C42.1542 51.2827 42.3339 51.2305 42.4627 51.2078C42.6435 51.1735 42.8062 51.1728 42.952 51.2058C43.0963 51.238 43.2317 51.3088 43.3564 51.4162C43.4813 51.524 43.5762 51.6572 43.6417 51.8162C43.7545 52.0888 43.7569 52.3535 43.6486 52.6089C43.5388 52.8637 43.2404 53.0789 42.7522 53.253L41.8658 53.5685L42.4049 54.8721L41.9482 55.0349ZM41.7093 53.1902L42.6029 52.8719C42.8979 52.7665 43.087 52.6412 43.1684 52.4946C43.2501 52.3483 43.2528 52.1829 43.176 51.9978C43.1206 51.8632 43.0368 51.7613 42.9243 51.6919C42.8114 51.6222 42.6898 51.5937 42.5572 51.6057C42.4724 51.6147 42.3267 51.6552 42.1193 51.7293L41.2353 52.0442L41.7093 53.1902ZM44.0686 52.4915C43.7708 51.9927 43.6818 51.5285 43.802 51.098C43.9225 50.6678 44.2102 50.3347 44.6669 50.0999C44.965 49.9464 45.2745 49.874 45.593 49.8829C45.9119 49.8925 46.2052 49.9832 46.4728 50.1552C46.7398 50.3269 46.9631 50.5641 47.1421 50.8642C47.3242 51.169 47.4215 51.4756 47.4322 51.7836C47.4433 52.0926 47.3644 52.371 47.1958 52.6196C47.0261 52.8685 46.8014 53.0645 46.5206 53.2094C46.2152 53.3663 45.9029 53.4384 45.5813 53.4247C45.2596 53.412 44.9663 53.3186 44.7018 53.1459C44.4373 52.9735 44.2261 52.7552 44.0686 52.4915ZM44.5142 52.2704C44.7302 52.6326 45.0051 52.8637 45.3389 52.9643C45.6737 53.0645 45.9988 53.0333 46.3153 52.8705C46.6376 52.7047 46.8402 52.463 46.9226 52.1458C47.0046 51.8282 46.9312 51.4756 46.7003 51.0887C46.5545 50.8446 46.3818 50.6547 46.1841 50.5181C45.986 50.3811 45.7713 50.3069 45.5401 50.2942C45.3088 50.2826 45.0865 50.331 44.8732 50.4408C44.5696 50.597 44.3667 50.8278 44.2638 51.134C44.1603 51.4392 44.2441 51.8186 44.5142 52.2704ZM48.6139 52.1303L46.3361 49.4239L46.917 49.0026L49.2198 50.4185C49.4335 50.5507 49.5927 50.6503 49.6963 50.7186C49.6468 50.596 49.5765 50.4137 49.4861 50.1717L48.5994 47.7825L49.1187 47.4058L51.3966 50.1126L51.0244 50.3821L49.118 48.1169L50.1772 50.9967L49.8292 51.2494L47.0469 49.5568L48.9861 51.8608L48.6139 52.1303ZM49.4172 47.2895L49.7575 46.9623L50.8942 47.9809L51.5074 47.3914C51.9097 47.0048 52.2511 46.8194 52.5316 46.8352C52.812 46.851 53.0495 46.9461 53.2448 47.1212C53.4505 47.3056 53.562 47.5325 53.581 47.8007C53.5997 48.0695 53.4252 48.3812 53.0572 48.7349L52.0787 49.6756L49.4172 47.2895ZM52.1199 49.0799L52.7421 48.4815C52.9557 48.2762 53.0738 48.0939 53.0949 47.9342C53.1178 47.7742 53.0464 47.6215 52.8834 47.4755C52.7719 47.3756 52.6496 47.3204 52.5167 47.309C52.3824 47.2977 52.2594 47.3272 52.1466 47.3976C52.0334 47.4683 51.8692 47.6067 51.6525 47.8151L51.1972 48.2528L52.1199 49.0799ZM51.6629 45.131L52.0029 44.8041L54.6644 47.1899L54.3244 47.5167L51.6629 45.131ZM52.2169 44.5669L52.5046 44.1995L55.1443 45.98L55.8669 45.0568L53.2272 43.2763L53.5145 42.9086L56.1546 44.6891L56.8772 43.7659L54.2371 41.9854L54.5249 41.6181L57.5181 43.6368L55.2101 46.5856L52.2169 44.5669ZM54.7042 41.1271L55.7921 39.2279L59.0591 40.8405L58.8289 41.2421L55.9479 39.8201L55.3202 40.9156L57.0025 41.7461C57.3439 41.9147 57.5859 42.0531 57.7279 42.1612C57.8698 42.2694 57.9578 42.3933 57.9917 42.5317C58.0253 42.6704 58.0004 42.8129 57.9166 42.9591C57.866 43.0473 57.7881 43.1445 57.6811 43.2513L57.3366 42.9941C57.4041 42.9426 57.4516 42.8935 57.4789 42.8462C57.5309 42.7552 57.5326 42.669 57.4859 42.5869C57.4377 42.5052 57.2774 42.3971 57.0042 42.2625L54.7042 41.1271ZM59.4258 40.1717L55.9275 39.0535L56.7982 36.7058L57.2113 36.8376L56.4998 38.7561L57.571 39.0984L58.2372 37.3018L58.6478 37.433L57.9813 39.2296L59.1724 39.6103L59.9119 37.6163L60.3246 37.7485L59.4258 40.1717ZM60.5203 37.1054L56.9301 36.2746L57.0489 35.8331L58.5232 36.1743L58.9885 34.4426L57.5139 34.1014L57.6327 33.6598L61.2224 34.4907L61.104 34.9322L59.412 34.5405L58.947 36.2725L60.6387 36.6639L60.5203 37.1054ZM61.3575 33.7512L57.6714 33.4518L57.7144 32.9986L59.2281 33.1215L59.3957 31.3434L57.882 31.2205L57.9245 30.767L61.6106 31.0664L61.5676 31.5199L59.8309 31.3788L59.6633 33.1569L61.4 33.2976L61.3575 33.7512ZM61.6043 30.6901L57.8802 29.4308L57.8709 28.9415L61.5441 27.4759L61.5538 27.994L60.4406 28.4128L60.4676 29.8489L61.5953 30.2074L61.6043 30.6901ZM60.0663 29.7243L60.0445 28.5594L59.027 28.935C58.7181 29.0486 58.464 29.1341 58.2642 29.1904C58.5028 29.2306 58.7392 29.2883 58.975 29.3645L60.0663 29.7243ZM61.0199 24.4272L57.3761 25.0235L57.6611 26.5232C57.7182 26.8246 57.795 27.0484 57.8899 27.1944C57.9851 27.3403 58.1243 27.4467 58.3078 27.514C58.4917 27.5806 58.6838 27.5971 58.884 27.5645C59.1429 27.5219 59.3455 27.4093 59.493 27.2242C59.6408 27.0402 59.708 26.7817 59.6948 26.449C59.7783 26.5582 59.8558 26.6378 59.9275 26.6897C60.0812 26.7992 60.2668 26.8963 60.4825 26.9818L61.586 27.4079L61.4793 26.8449L60.6359 26.5218C60.3928 26.4267 60.2045 26.3463 60.0729 26.2801C59.9407 26.2149 59.8448 26.1527 59.7862 26.093C59.727 26.0339 59.682 25.9714 59.6502 25.9052C59.6294 25.8557 59.6076 25.774 59.5858 25.6583L59.4871 25.1392L61.1051 24.8745L61.0199 24.4272ZM59.0695 25.2075L59.2523 26.1699C59.2911 26.3738 59.2987 26.5383 59.2749 26.6608C59.251 26.7841 59.1945 26.8833 59.1059 26.9595C59.0173 27.0357 58.9144 27.0835 58.7964 27.103C58.6243 27.1312 58.4716 27.0969 58.3383 26.9983C58.2053 26.9008 58.115 26.7264 58.0675 26.4751L57.8643 25.4049L59.0695 25.2075ZM56.7075 22.5018L55.5241 20.0343L58.904 18.6373L59.1045 19.0552L56.1234 20.287L56.9076 21.9223L59.8887 20.6901L60.0878 21.1048L56.7075 22.5018ZM58.7579 18.3105L54.833 18.8217L54.5771 18.3936L57.079 15.499L57.3498 15.9522L56.5787 16.8071L57.329 18.063L58.5059 17.8882L58.7579 18.3105ZM56.9115 18.1279L56.3031 17.1089L55.5947 17.8837C55.3794 18.1189 55.1983 18.3054 55.0504 18.4416C55.2814 18.3733 55.5192 18.3215 55.7658 18.2858L56.9115 18.1279ZM53.7192 17.0227L52.2923 15.3277L55.208 13.2132L55.5096 13.5719L52.9384 15.4369L53.7614 16.4147L55.263 15.3256C55.5677 15.1045 55.8021 14.9559 55.9662 14.8797C56.1307 14.8031 56.2882 14.7787 56.4382 14.8062C56.5884 14.834 56.7186 14.9133 56.8284 15.0438C56.8948 15.1227 56.9585 15.2285 57.0202 15.3624L56.6272 15.5502C56.6036 15.4716 56.5749 15.4115 56.5393 15.3692C56.4707 15.2879 56.3866 15.2515 56.2868 15.2577C56.1871 15.2652 56.0154 15.3572 55.7716 15.534L53.7192 17.0227ZM54.9604 12.8733L51.2851 14.2507L50.9257 13.8929L52.5988 10.5225L52.9796 10.9012L52.454 11.9037L53.5093 12.9543L54.6059 12.5203L54.9604 12.8733ZM53.1212 13.1109L52.2653 12.2587L51.7799 13.1699C51.6324 13.4463 51.5053 13.6677 51.3973 13.8336C51.6033 13.7151 51.8208 13.6114 52.0507 13.5215L53.1212 13.1109ZM51.9084 10.0034L49.7676 12.2896L50.6875 13.0319L50.4009 13.3378L48.1877 11.5522L48.4744 11.2459L49.3982 11.9916L51.5389 9.70542L51.9084 10.0034ZM50.6747 8.9635L47.4675 11.1254L47.0254 10.859L47.7705 7.21289L48.2386 7.4951L47.99 8.58584L49.2877 9.36794L50.2385 8.70051L50.6747 8.9635ZM48.9519 9.60689L47.8993 8.97243L47.6659 9.96532C47.595 10.2668 47.5292 10.5105 47.4675 10.6956C47.6369 10.5342 47.8204 10.3849 48.0201 10.2458L48.9519 9.60689Z" fill="#2B2A29"/>
<path d="M19.7656 6.40459L20.4394 8.10611C21.1657 8.34163 21.9072 8.55859 22.6501 8.77595C23.8511 9.12735 25.0557 9.4798 26.2052 9.91337C26.2211 9.91935 26.2381 9.92569 26.2561 9.9324C26.5729 10.0509 27.1883 10.2809 27.3236 10.5578C27.4514 10.8192 27.2983 11.2711 27.1943 11.5782C27.1822 11.6139 27.1708 11.6478 27.1605 11.6791C27.0703 11.9553 26.9698 12.227 26.8693 12.4986C26.7402 12.8475 26.6111 13.1964 26.504 13.5547C26.3237 14.1654 26.2233 15.4429 27.0078 15.6802C27.067 15.6981 27.178 15.7144 27.2849 15.7301C27.4059 15.7478 27.5216 15.7648 27.5514 15.7825C27.6988 15.8696 27.3101 16.2917 27.1911 16.4209C27.1787 16.4343 27.1693 16.4445 27.1636 16.4509L26.794 16.8706C26.3453 17.3801 25.8966 17.8895 25.4484 18.4L25.3476 18.515H41.0341C40.8936 18.3503 40.6863 18.1305 40.4567 17.887C39.8938 17.2902 39.1966 16.551 39.0191 16.1313C38.8705 15.7805 39.0448 15.7279 39.2632 15.662C39.4052 15.6192 39.5659 15.5707 39.6686 15.4309C40.1353 14.6502 39.56 13.0977 39.1694 12.0436C39.0943 11.8411 39.0261 11.6569 38.9734 11.5002C38.9597 11.4595 38.9386 11.4021 38.914 11.3349C38.8182 11.0736 38.6686 10.6655 38.6926 10.5276C38.7935 9.95189 40.5943 9.42171 41.236 9.23277C41.2656 9.22407 41.2927 9.21609 41.317 9.20887C42.0698 8.98158 42.8686 8.82656 43.6561 8.6737C43.9393 8.61875 44.221 8.56407 44.4986 8.50642L45.7017 8.25546L46.5195 6.30469C45.7911 6.50174 45.0539 6.6891 44.3151 6.87686C42.8605 7.24652 41.3997 7.61776 39.9878 8.06766C39.0662 8.3612 38.0029 8.75327 37.3703 9.51648C36.5982 10.4479 37.1719 11.975 37.612 12.9346C37.7349 13.2028 37.8831 13.6384 37.6133 13.8722C37.3339 14.1143 36.8058 13.5985 36.4524 13.2532C36.3522 13.1553 36.266 13.0711 36.2035 13.0218C35.5325 12.4924 34.2362 11.9699 33.3803 11.9167C32.5569 11.8655 31.5999 12.1714 30.8562 12.5017C30.4011 12.7098 30.0514 12.9997 29.6951 13.2951C29.4942 13.4617 29.2911 13.63 29.0658 13.7864C28.8262 13.9526 28.4932 14.0882 28.4163 13.681C28.3492 13.325 28.5671 12.7349 28.766 12.1963C28.877 11.8955 28.9822 11.6107 29.0285 11.3917C29.2937 10.1393 28.5133 9.61467 27.5483 9.03583C26.6872 8.51947 25.9196 8.20087 24.9574 7.92037C23.2271 7.41549 21.4971 6.91027 19.7672 6.40505L19.7656 6.40459Z" fill="#2F2483"/>
<path d="M21.0048 9.14157L25.3552 10.1788L25.0505 11.2451L21.8361 10.7552L21.0048 9.14157Z" fill="#2F2483"/>
<path d="M24.9392 11.8789L22.1686 11.4755L23.1384 12.7722L24.9672 12.8876L24.9392 11.8789Z" fill="#2F2483"/>
<path d="M23.7476 13.464H25.2163L25.5915 14.8023C24.7622 14.4676 24.1476 14.0218 23.7476 13.464Z" fill="#2F2483"/>
<path d="M25.5915 14.8023C25.6049 14.8077 25.6183 14.8131 25.6318 14.8184L25.6041 14.8473L25.5915 14.8023Z" fill="#2F2483"/>
<path d="M40.7829 10.1788L45.1333 9.14157L44.302 10.7552L41.0875 11.2451L40.7829 10.1788Z" fill="#2F2483"/>
<path d="M43.9694 11.4755L41.1985 11.8789L41.1708 12.8876L42.9996 12.7722L43.9694 11.4755Z" fill="#2F2483"/>
<path d="M40.9215 13.464H42.3899C41.9903 14.0218 41.3757 14.4675 40.5464 14.8022L40.9215 13.464Z" fill="#2F2483"/>
<path d="M40.5464 14.8022C40.5329 14.8076 40.5193 14.813 40.5057 14.8184L40.5337 14.8473L40.5464 14.8022Z" fill="#2F2483"/>
<defs>
<linearGradient id="paint0_linear_119_274" x1="26.7335" y1="25.3956" x2="24.1948" y2="27.9559" gradientUnits="userSpaceOnUse">
<stop stop-color="#834335"/>
<stop offset="0.121569" stop-color="#E6AC2A"/>
<stop offset="0.239216" stop-color="#FEFEFE"/>
<stop offset="0.521569" stop-color="#E6A833"/>
<stop offset="1" stop-color="#883D39"/>
</linearGradient>
<linearGradient id="paint1_linear_119_274" x1="22.8454" y1="41.1596" x2="41.1685" y2="27.6755" gradientUnits="userSpaceOnUse">
<stop stop-color="#834335"/>
<stop offset="0.180392" stop-color="#E6AC2A"/>
<stop offset="0.290196" stop-color="#FEFEFE"/>
<stop offset="0.411765" stop-color="#C27531"/>
<stop offset="0.580392" stop-color="#E6A833"/>
<stop offset="0.701961" stop-color="#EDDECC"/>
<stop offset="1" stop-color="#883D39"/>
</linearGradient>
<linearGradient id="paint2_linear_119_274" x1="29.2685" y1="19.2281" x2="34.807" y2="49.9487" gradientUnits="userSpaceOnUse">
<stop stop-color="#834335"/>
<stop offset="0.121569" stop-color="#E6AC2A"/>
<stop offset="0.239216" stop-color="#FEFEFE"/>
<stop offset="0.439216" stop-color="#E6A833"/>
<stop offset="0.670588" stop-color="#FEFEFE"/>
<stop offset="0.811765" stop-color="#E6AC2A"/>
<stop offset="1" stop-color="#834335"/>
</linearGradient>
<linearGradient id="paint3_linear_119_274" x1="29.0005" y1="24.7878" x2="31.0119" y2="26.4105" gradientUnits="userSpaceOnUse">
<stop stop-color="#834335"/>
<stop offset="0.501961" stop-color="#E6AC2A"/>
<stop offset="0.85098" stop-color="#FEFEFE"/>
<stop offset="0.960784" stop-color="#E6A833"/>
<stop offset="1" stop-color="#883D39"/>
</linearGradient>
<linearGradient id="paint4_linear_119_274" x1="29.8577" y1="30.9224" x2="31.2898" y2="33.1547" gradientUnits="userSpaceOnUse">
<stop stop-color="#834335"/>
<stop offset="0.0117647" stop-color="#E6AC2A"/>
<stop offset="0.0784314" stop-color="#FEFEFE"/>
<stop offset="0.568627" stop-color="#E6A833"/>
<stop offset="0.878431" stop-color="#BD6F32"/>
<stop offset="1" stop-color="#883D39"/>
</linearGradient>
<linearGradient id="paint5_linear_119_274" x1="33.3565" y1="27.2415" x2="35.5681" y2="29.4715" gradientUnits="userSpaceOnUse">
<stop stop-color="#834335"/>
<stop offset="0.611765" stop-color="#E6AC2A"/>
<stop offset="0.678431" stop-color="#E6A833"/>
<stop offset="0.811765" stop-color="#FEFEFE"/>
<stop offset="1" stop-color="#883D39"/>
</linearGradient>
<linearGradient id="paint6_linear_119_274" x1="25.9431" y1="20.69" x2="28.5994" y2="19.5422" gradientUnits="userSpaceOnUse">
<stop stop-color="#834335"/>
<stop offset="0.121569" stop-color="#E6AC2A"/>
<stop offset="0.431373" stop-color="#FEFEFE"/>
<stop offset="0.658824" stop-color="#E6A833"/>
<stop offset="1" stop-color="#883D39"/>
</linearGradient>
</defs>
</svg>
