<svg width="149" height="95" viewBox="0 0 149 95" fill="none" xmlns="http://www.w3.org/2000/svg">
<path fill-rule="evenodd" clip-rule="evenodd" d="M6.22669 82.6807C6.81286 82.6679 7.39511 82.7789 7.93508 83.0065C8.47504 83.2341 8.96047 83.573 9.3594 84.0011C10.2612 84.9607 10.9855 86.3424 10.9855 88.5034C10.9855 89.7624 10.8044 91.2632 9.77951 92.5259C9.38705 92.9864 8.89708 93.3547 8.34479 93.6042C7.7925 93.8537 7.19159 93.9782 6.58523 93.9689H6.22307V94.5714C7.09984 94.5941 7.97074 94.4227 8.77299 94.0696C9.57524 93.7165 10.2888 93.1905 10.8624 92.5295C11.9528 91.3097 12.5345 89.7212 12.4885 88.0885C12.4885 86.7645 12.1879 84.9643 10.6777 83.6439C9.45135 82.6063 7.88605 82.0519 6.27739 82.0854H6.21945V82.6807H6.22669ZM1.51857 87.9045C1.51857 89.9428 2.11976 91.3245 2.90203 92.2337C3.29873 92.7422 3.79994 93.1604 4.37207 93.4603C4.9442 93.7602 5.57405 93.9348 6.21945 93.9725V94.575H6.15788C4.95188 94.575 2.89841 94.3333 1.44976 92.5331C0.485727 91.3454 -0.0272089 89.8573 0.00111311 88.3302C-0.0205238 86.9073 0.47028 85.5238 1.38457 84.4304C2.17047 83.3481 3.6155 82.1468 6.20858 82.089V82.6807C6.20858 82.6644 6.20209 82.6488 6.19055 82.6373C6.179 82.6258 6.16334 82.6193 6.14701 82.6193C5.51889 82.6033 4.8943 82.7179 4.31312 82.9558C3.73195 83.1937 3.20695 83.5497 2.77166 84.0011C1.88436 84.9607 1.52582 86.2811 1.52582 87.9045H1.51857Z" fill="#1B2665"/>
<path fill-rule="evenodd" clip-rule="evenodd" d="M24.6843 83.2029C24.7011 83.0943 24.6786 82.9832 24.6208 82.8896C24.561 82.7665 24.4377 82.7665 24.3106 82.7665H18.2202C18.0932 82.7665 17.9699 82.7665 17.9064 82.8896C17.7831 82.953 17.7831 83.0761 17.7831 83.2029V91.7031C17.7893 92.4106 17.8518 93.1165 17.9699 93.8141C18.0334 94.1237 18.2202 94.2468 18.7172 94.3102H18.9638C19.1506 94.3102 19.4009 94.2468 19.4009 94.4333C19.4009 94.5601 19.2141 94.5601 19.2141 94.5601H19.0908C18.904 94.5601 18.6537 94.4967 18.4668 94.4967H15.8513C15.6879 94.5329 15.5216 94.5541 15.3544 94.5601C15.3378 94.5601 15.3215 94.5568 15.3063 94.5504C15.2911 94.544 15.2773 94.5346 15.2658 94.5227C15.2543 94.5109 15.2453 94.4969 15.2393 94.4815C15.2334 94.4662 15.2306 94.4497 15.2311 94.4333C15.2311 94.3102 15.2946 94.3102 15.4179 94.3102H15.6645C15.8005 94.3036 15.9303 94.2509 16.0322 94.1606C16.1341 94.0704 16.2021 93.9482 16.225 93.8141C16.3818 92.9959 16.4445 92.1625 16.4118 91.3301V84.3815C16.4196 83.9256 16.3984 83.4697 16.3483 83.0164C16.342 82.8537 16.2769 82.6987 16.1652 82.58C15.9993 82.4569 15.8077 82.3727 15.6047 82.3339H15.2946C15.2778 82.3344 15.261 82.3315 15.2454 82.3253C15.2297 82.3191 15.2155 82.3098 15.2036 82.2979C15.1917 82.286 15.1824 82.2718 15.1762 82.2562C15.17 82.2406 15.167 82.2239 15.1675 82.2071C15.1675 82.084 15.2946 82.084 15.3544 82.084H15.9148C16.1652 82.084 16.7854 82.1474 17.3459 82.1474H25.5661C25.8762 82.1474 26.2499 82.1474 26.9971 82.084H27.1204C27.2438 82.084 27.3073 82.1474 27.3073 82.2071C27.3073 82.2667 27.2438 82.3339 27.1204 82.3339H26.9971C26.56 82.3936 26.3732 82.457 26.2499 82.7665C26.1275 83.127 26.0644 83.5049 26.063 83.8855V91.345C26.063 91.7814 26.063 93.333 26.2499 93.829C26.3134 94.1386 26.5002 94.2617 26.9971 94.3251H27.2213C27.4082 94.3251 27.6585 94.2617 27.6585 94.4482C27.6585 94.575 27.5352 94.575 27.4717 94.575H27.4082C27.1616 94.575 26.9112 94.5116 26.6609 94.5116H24.1089C23.9665 94.5452 23.8215 94.5664 23.6754 94.575C23.636 94.5715 23.5982 94.5581 23.5655 94.5359C23.5328 94.5137 23.5063 94.4835 23.4886 94.4482C23.4886 94.3251 23.6119 94.3251 23.6754 94.3251H23.9856C24.1107 94.3065 24.2266 94.2482 24.316 94.1589C24.4055 94.0696 24.4639 93.954 24.4825 93.829C24.64 93.1585 24.7029 92.4693 24.6693 91.7814L24.6843 83.2029Z" fill="#1B2665"/>
<path fill-rule="evenodd" clip-rule="evenodd" d="M36.5919 82.6858C37.1752 82.6728 37.7547 82.7836 38.2921 83.0111C38.8294 83.2385 39.3124 83.5773 39.7093 84.0052C40.6067 84.9641 41.3274 86.3448 41.2698 88.5042C41.2698 89.7624 41.0896 91.262 40.0697 92.5238C39.691 92.983 39.2139 93.3511 38.6736 93.6008C38.1333 93.8504 37.5437 93.9751 36.9487 93.9658H36.5883V94.5678C37.4519 94.5907 38.3096 94.4193 39.0981 94.0661C39.8866 93.713 40.5856 93.1871 41.1436 92.5274C42.2507 91.3177 42.8518 89.7294 42.8231 88.0897C42.8515 87.2598 42.7014 86.4336 42.3831 85.6667C42.0648 84.8999 41.5856 84.2103 40.9779 83.6447C39.7685 82.5914 38.2054 82.035 36.6027 82.0874V82.6858H36.5919ZM31.9068 87.9058C31.8033 89.4606 32.2725 90.9994 33.2258 92.2318C33.6316 92.7418 34.1407 93.1603 34.7195 93.4597C35.2984 93.7592 35.934 93.9329 36.5847 93.9694V94.5714H36.4621C35.5785 94.6023 34.6992 94.4351 33.8885 94.082C33.0779 93.729 32.3564 93.199 31.777 92.531C30.8436 91.33 30.3364 89.8524 30.3354 88.3312C30.3435 86.9137 30.8299 85.5405 31.7158 84.4342C32.5555 83.3527 33.9934 82.1523 36.5739 82.0946V82.6858C36.5739 82.6245 36.5126 82.6245 36.4513 82.6245C35.8355 82.6099 35.2236 82.7253 34.6554 82.9632C34.0872 83.2011 33.5755 83.5562 33.1537 84.0052C32.2744 84.9641 31.914 86.2836 31.914 87.9058H31.9068Z" fill="#1B2665"/>
<path fill-rule="evenodd" clip-rule="evenodd" d="M46.9161 84.5102C46.9161 83.267 46.8525 82.8937 46.7927 82.7705C46.7129 82.6568 46.6113 82.5601 46.4939 82.4857C46.3765 82.4114 46.2455 82.361 46.1086 82.3374H45.8768C45.7534 82.3374 45.5029 82.3374 45.5029 82.2105C45.5029 82.1508 45.5665 82.0873 45.6899 82.0873H45.7534C46.5011 82.1508 46.9347 82.1508 47.432 82.1508H48.303C48.6943 82.0964 49.0895 82.0751 49.4844 82.0873C51.29 82.0873 52.1611 82.5241 52.7218 83.0206C52.9823 83.2811 53.188 83.591 53.3266 83.9321C53.4653 84.2732 53.5342 84.6386 53.5293 85.0067C53.5515 85.5105 53.469 86.0134 53.2869 86.4837C53.1048 86.954 52.8271 87.3816 52.4714 87.7394C51.6003 88.6727 50.5423 88.9191 49.361 88.9191H49.2376C49.1741 88.9191 48.9871 88.9191 48.9871 88.7959C48.9871 88.6727 49.1741 88.6727 49.2376 88.6727H49.4245C49.9427 88.6657 50.45 88.5244 50.897 88.2626C51.3439 88.0008 51.7151 87.6276 51.9742 87.1795C52.1688 86.7728 52.2539 86.3224 52.2209 85.8728C52.2737 85.4201 52.2227 84.9614 52.0718 84.5313C51.9209 84.1012 51.674 83.711 51.3498 83.3902C50.768 82.8723 50.017 82.5843 49.2376 82.5801H49.0507C48.6769 82.5801 48.303 82.5801 48.303 83.0169V91.342C48.284 92.1727 48.3252 93.0036 48.4264 93.8284C48.5535 94.1382 48.7404 94.2614 49.2376 94.3249H49.7348C49.7984 94.3249 49.8582 94.3249 49.8582 94.4481C49.8582 94.6347 49.2974 94.575 49.0507 94.5115H47.3721C46.9761 94.5056 46.5802 94.5268 46.1871 94.575H45.8768C45.7534 94.5115 45.7534 94.4481 45.7534 94.4481C45.7534 94.3249 45.817 94.3249 45.8768 94.3249H46.0637C46.374 94.2614 46.6245 94.2614 46.7478 93.8284C46.8114 93.6417 46.9347 93.1452 46.9347 91.342L46.9161 84.5102Z" fill="#1B2665"/>
<path fill-rule="evenodd" clip-rule="evenodd" d="M59.3461 84.5741C59.41 84.5741 59.41 84.6327 59.4701 84.695L61.0333 89.0894C61.0333 89.1516 61.0333 89.2102 60.9093 89.2102H59.3461V89.7595H61.1611C61.1775 89.759 61.1939 89.7618 61.2092 89.7677C61.2244 89.7736 61.2383 89.7824 61.2499 89.7938C61.2616 89.8051 61.2707 89.8186 61.2767 89.8335C61.2828 89.8484 61.2856 89.8643 61.2851 89.8803L62.8484 93.8426C62.8587 93.987 62.8369 94.1319 62.7845 94.2674C62.7244 94.3297 62.5966 94.2674 62.5966 94.3919C62.5966 94.5164 62.7845 94.5127 62.9123 94.5127C63.0964 94.5127 63.7841 94.575 64.0396 94.575H65.5878C65.7118 94.575 66.0237 94.575 66.0237 94.4505C66.0237 94.3919 66.0237 94.3919 65.9636 94.3297H65.4751C64.6596 94.2088 64.3477 93.5973 64.1599 93.1102C63.9118 92.6232 63.4722 91.7113 61.597 86.8336C61.2851 85.984 60.9732 85.1893 60.6576 84.3984C60.4095 83.7868 60.1578 83.2412 59.9699 82.6296C59.9097 82.4465 59.7219 82.084 59.5941 82.084C59.4663 82.084 59.4062 82.2048 59.3423 82.3879V84.5851L59.3461 84.5741ZM57.7828 89.2029H59.3461V89.7522H57.5949C57.531 89.7522 57.4709 89.7522 57.4709 89.9353L56.5315 92.7989C56.3808 93.1035 56.2964 93.4351 56.2834 93.773C56.2803 93.8457 56.2926 93.9182 56.3196 93.986C56.3465 94.0538 56.3876 94.1154 56.4402 94.167C56.4928 94.2185 56.5557 94.259 56.6251 94.2857C56.6945 94.3125 56.7688 94.3249 56.8434 94.3223H57.0313C57.0479 94.3218 57.0644 94.3246 57.0799 94.3305C57.0953 94.3363 57.1095 94.3451 57.1214 94.3564C57.1333 94.3677 57.1428 94.3812 57.1492 94.3961C57.1557 94.411 57.159 94.427 57.159 94.4432C57.159 94.5677 56.9711 94.5677 56.9072 94.5677C56.7194 94.5677 56.4713 94.5054 56.2196 94.5054H55.4079C54.8859 94.4826 54.3629 94.5034 53.8446 94.5677H53.7206C53.5928 94.5677 53.5327 94.5054 53.5327 94.4432C53.5327 94.2601 53.7807 94.3223 54.0325 94.3223C54.5323 94.2601 55.0321 94.1392 55.5356 92.7989L59.2258 82.7468C59.286 82.6223 59.2859 82.5015 59.3498 82.3806V84.5778C59.3175 84.5795 59.287 84.5928 59.2641 84.6151C59.2413 84.6374 59.2276 84.6672 59.2258 84.6986L57.7227 89.093C57.7189 89.1443 57.6588 89.2029 57.7828 89.2029Z" fill="#1B2665"/>
<path fill-rule="evenodd" clip-rule="evenodd" d="M71.7514 84.5097C71.7514 83.2665 71.6953 82.8931 71.6425 82.7699C71.5791 82.6484 71.4909 82.5457 71.3854 82.4703C71.2798 82.395 71.16 82.3493 71.0357 82.3369H70.8708C70.7058 82.3369 70.4849 82.3369 70.4849 82.2099C70.4849 82.1502 70.5409 82.0867 70.6498 82.0867H70.7586C71.2334 82.135 71.7101 82.1562 72.1868 82.1502H73.0113C73.3389 82.0971 73.67 82.0759 74.0008 82.0867C75.6499 82.0867 76.4151 82.5235 76.9098 83.0201C77.3528 83.562 77.6061 84.2682 77.6223 85.0063C77.6345 86.0195 77.3001 86.9988 76.6889 87.7391C76.3328 88.1468 75.9035 88.463 75.4301 88.6666C74.9566 88.8701 74.4501 88.9562 73.9447 88.9189H73.8392C73.7303 88.9189 73.5654 88.9189 73.5654 88.7957C73.5654 88.6725 73.7303 88.6725 73.8392 88.6725H74.0041C74.4527 88.6578 74.8903 88.5127 75.275 88.2511C75.6597 87.9896 75.9785 87.6204 76.2007 87.1791C76.3876 86.7765 76.4818 86.3271 76.4745 85.8724C76.4745 85.0025 76.3656 84.1326 75.706 83.3897C75.1868 82.8809 74.5258 82.5954 73.8392 82.5833H73.6743C73.2917 82.5833 73.0146 82.5833 73.0146 83.0201L72.9585 91.3419C72.9585 91.7787 72.9585 93.3318 73.1235 93.8283C73.1762 94.1382 73.3411 94.2614 73.7831 94.3249H74.2778C74.2923 94.3243 74.3066 94.3272 74.32 94.3332C74.3334 94.3392 74.3456 94.3482 74.3558 94.3598C74.366 94.3713 74.374 94.3851 74.3793 94.4003C74.3846 94.4155 74.3871 94.4317 74.3867 94.4481C74.3867 94.6347 73.8952 94.575 73.6215 94.5115H72.1901C71.8231 94.5054 71.4562 94.5266 71.0917 94.575H70.8708C70.8102 94.5429 70.7545 94.5001 70.7058 94.4481C70.7058 94.3249 70.7586 94.3249 70.8147 94.3249H70.9796C71.2534 94.2614 71.4743 94.2614 71.5832 93.8283C71.6393 93.6416 71.7481 93.1451 71.7481 91.3419L71.7514 84.5097Z" fill="#1B2665"/>
<path fill-rule="evenodd" clip-rule="evenodd" d="M86.0742 82.6816C86.702 82.6686 87.3255 82.7795 87.9038 83.0071C88.482 83.2347 89.0018 83.5737 89.4289 84.0019C90.3984 84.9614 91.1741 86.3431 91.1741 88.5039C91.1741 89.7628 90.9801 91.2635 89.8167 92.526C89.4096 92.9851 88.8968 93.3532 88.3161 93.603C87.7354 93.8527 87.1017 93.9778 86.462 93.969H86.0742V94.5714C87.0132 94.5948 87.9461 94.4238 88.8053 94.0707C89.6645 93.7176 90.4286 93.1912 91.0422 92.5296C92.2127 91.3113 92.8372 89.7223 92.7874 88.089C92.8154 87.2581 92.6513 86.4314 92.306 85.6646C91.9608 84.8979 91.4425 84.2091 90.7862 83.6448C89.5011 82.599 87.8393 82.0425 86.1324 82.0864H86.0665V82.6816H86.0742ZM81.0326 87.905C81.0326 89.9432 81.6802 91.3248 82.5179 92.2338C82.9419 92.7422 83.478 93.1604 84.09 93.4603C84.702 93.7601 85.3759 93.9348 86.0665 93.9726V94.575H86.0044C84.713 94.575 82.514 94.3333 80.9628 92.5332C79.9053 91.3587 79.3527 89.8617 79.4115 88.3307C79.3901 86.9076 79.917 85.5243 80.8968 84.4312C81.7345 83.349 83.2858 82.1477 86.0587 82.09V82.6816C86.0592 82.6737 86.058 82.6658 86.0551 82.6584C86.0523 82.651 86.0478 82.6442 86.042 82.6384C86.0361 82.6327 86.0291 82.6281 86.0213 82.625C86.0135 82.6219 86.0051 82.6203 85.9967 82.6203C85.3233 82.599 84.6528 82.7112 84.0296 82.9494C83.4064 83.1876 82.8449 83.5464 82.3822 84.0019C81.4281 84.9614 81.0403 86.2817 81.0403 87.905H81.0326Z" fill="#1B2665"/>
<path fill-rule="evenodd" clip-rule="evenodd" d="M104.983 85.5648C104.861 85.5648 104.861 85.3845 104.861 85.2619C104.897 84.824 104.787 84.3866 104.549 84.0178C104.311 83.6491 103.958 83.3699 103.545 83.2239C102.713 82.8754 101.816 82.7118 100.915 82.7442C99.8363 82.7442 98.4634 82.9245 97.4463 83.884C96.4903 84.7244 96.0087 86.1023 96.0087 87.8516C96.0087 91.0979 98.1651 93.8536 101.928 93.8536C103.064 93.8536 104.199 93.6119 104.681 92.7138C104.837 92.3662 104.957 92.0036 105.04 91.6317C105.04 91.574 105.04 91.5127 105.163 91.5127C105.285 91.5127 105.281 91.693 105.281 91.7544C105.281 92.2341 104.983 93.8536 104.803 94.0917C104.624 94.3297 103.488 94.575 101.694 94.575C100.138 94.575 98.1004 94.3947 96.4903 92.8942C94.9952 91.5127 94.5747 89.7705 94.5747 88.151C94.5751 87.3463 94.7341 86.5496 95.0425 85.8067C95.3509 85.0639 95.8026 84.3896 96.3717 83.8227C97.5074 82.6216 99.06 82.0841 101.155 82.0841C101.817 82.0807 102.478 82.1411 103.128 82.2645C103.451 82.299 103.771 82.3581 104.084 82.4412C104.264 82.4412 104.383 82.5025 104.562 82.5025C104.922 82.5638 105.04 82.5025 105.163 82.5638C105.22 82.5638 105.22 82.6216 105.281 82.6829V82.8019C105.171 83.4558 105.131 84.1197 105.163 84.7821C105.17 85.1428 105.17 85.5648 104.983 85.5648Z" fill="#1B2665"/>
<path fill-rule="evenodd" clip-rule="evenodd" d="M118.352 85.5648C118.233 85.5648 118.295 85.3845 118.233 85.2619C118.269 84.824 118.16 84.3866 117.922 84.0178C117.684 83.6491 117.331 83.3699 116.918 83.2239C116.09 82.8721 115.195 82.7083 114.296 82.7442C113.218 82.7442 111.903 82.9245 110.829 83.884C109.873 84.7244 109.392 86.1023 109.392 87.8516C109.392 91.0979 111.605 93.8536 115.37 93.8536C116.509 93.8536 117.644 93.6119 118.122 92.7138C118.261 92.3654 118.361 92.0024 118.42 91.6317C118.423 91.601 118.436 91.5721 118.458 91.5503C118.479 91.5285 118.508 91.5152 118.539 91.5127C118.661 91.5127 118.661 91.693 118.661 91.7544C118.661 92.2341 118.42 93.8536 118.241 94.0917C118.004 94.3333 116.926 94.575 115.072 94.575C113.52 94.575 111.544 94.3947 109.873 92.8942C108.378 91.5127 107.958 89.7705 107.958 88.151C107.958 87.3463 108.117 86.5495 108.425 85.8066C108.734 85.0638 109.185 84.3895 109.754 83.8227C110.951 82.6216 112.445 82.0841 114.536 82.0841C115.199 82.0807 115.861 82.1411 116.513 82.2645C116.836 82.2936 117.156 82.3528 117.468 82.4412C117.648 82.4412 117.766 82.5025 117.946 82.5025C118.363 82.5638 118.485 82.5025 118.542 82.5639C118.574 82.5655 118.603 82.5785 118.626 82.6003C118.648 82.6222 118.662 82.6516 118.665 82.6829V82.8019C118.552 83.4555 118.511 84.1196 118.542 84.7821C118.532 85.1428 118.607 85.5648 118.352 85.5648Z" fill="#1B2665"/>
<path fill-rule="evenodd" clip-rule="evenodd" d="M131.526 82.5007C131.65 82.3211 131.829 82.084 132.011 82.084C132.135 82.084 132.317 82.1415 132.317 82.5618V91.349C132.255 93.2027 132.437 93.6805 132.619 93.8637C132.739 94.0397 133.042 94.0397 133.224 94.1008H133.406C133.65 94.1008 133.832 94.0397 133.832 94.2193C133.832 94.3415 133.708 94.3415 133.65 94.3415H133.588C132.984 94.3415 132.375 94.2804 131.829 94.2804H131.465C131.019 94.2728 130.574 94.2932 130.131 94.3415H130.007C129.887 94.2804 129.825 94.2193 129.887 94.1619C129.887 94.1008 129.949 94.1008 130.007 94.1008H130.31C130.437 94.0542 130.56 93.994 130.674 93.9212C130.736 93.8637 130.856 93.6841 130.918 93.1452C130.97 92.5479 130.99 91.9484 130.98 91.349L131.038 84.4155L123.225 94.2158C123.163 94.3379 122.981 94.575 122.798 94.575C122.678 94.575 122.558 94.5175 122.558 94.0972V84.7137C122.558 83.5174 122.496 83.1581 122.434 82.9785C122.314 82.7414 122.132 82.6193 121.706 82.5618H121.462C121.43 82.5592 121.4 82.5454 121.378 82.523C121.356 82.5005 121.343 82.4709 121.341 82.4396C121.341 82.3211 121.462 82.3211 121.523 82.3211H121.644C122.008 82.3211 122.736 82.3822 123.101 82.3822H123.407C123.647 82.3822 123.95 82.3822 124.74 82.3211H124.86C124.892 82.3228 124.921 82.3359 124.943 82.3577C124.965 82.3796 124.979 82.4088 124.98 82.4396C124.98 82.5618 124.86 82.5618 124.678 82.5618L124.496 82.6193C124.379 82.619 124.265 82.653 124.167 82.717C124.07 82.781 123.994 82.872 123.95 82.9785C123.865 83.3717 123.825 83.7729 123.829 84.1748V92.186L131.526 82.5007Z" fill="#1B2665"/>
<path fill-rule="evenodd" clip-rule="evenodd" d="M146.7 82.5007C146.82 82.3211 147.002 82.084 147.184 82.084C147.304 82.084 147.486 82.1415 147.486 82.5618L147.424 91.349C147.424 93.2027 147.544 93.6805 147.726 93.8637C147.908 94.0469 148.214 94.0397 148.392 94.1008H148.574C148.756 94.1008 149 94.0397 149 94.2193C149 94.3415 148.88 94.3415 148.818 94.3415H148.756C148.152 94.3415 147.544 94.2804 146.936 94.2804H146.634C146.169 94.274 145.703 94.2944 145.24 94.3415H145.182C145 94.2804 145 94.2193 145 94.1619C145.03 94.1268 145.073 94.1048 145.12 94.1008H145.484C145.611 94.0527 145.733 93.9925 145.848 93.9212C146.009 93.694 146.093 93.4224 146.088 93.1452C146.14 92.5479 146.16 91.9484 146.15 91.349V84.4155L138.387 94.2158C138.267 94.3379 138.143 94.575 137.961 94.575C137.841 94.575 137.721 94.5175 137.721 94.0972V84.7137C137.721 83.5174 137.659 83.1581 137.601 82.9785C137.477 82.7414 137.295 82.6193 136.873 82.5618H136.629C136.597 82.5592 136.568 82.5454 136.546 82.523C136.524 82.5005 136.51 82.4709 136.509 82.4396C136.509 82.3211 136.571 82.3211 136.691 82.3211H136.753C137.175 82.3211 137.903 82.3822 138.267 82.3822H138.507C138.809 82.3822 139.053 82.3822 139.901 82.3211H139.963C140.083 82.3211 140.141 82.3822 140.141 82.4396C140.141 82.5618 140.021 82.5618 139.839 82.5618L139.599 82.6193C139.492 82.6284 139.39 82.6669 139.305 82.7304C139.219 82.7939 139.153 82.8799 139.115 82.9785C139.053 83.0971 138.991 83.3378 138.991 84.1748V92.186L146.7 82.5007Z" fill="#1B2665"/>
<path fill-rule="evenodd" clip-rule="evenodd" d="M35.6885 39.8816L118.665 1.78418V65.1315L109.187 51.6752H35.6885V39.8816Z" fill="#1B2665"/>
<path fill-rule="evenodd" clip-rule="evenodd" d="M119.557 0L76.9272 19.7762H30.491L30.3354 68.7006H119.557V0Z" fill="#1B2665"/>
<path fill-rule="evenodd" clip-rule="evenodd" d="M35.6885 39.8816L118.665 1.78418V65.1315L109.187 51.6752H35.6885V39.8816Z" fill="white"/>
<path fill-rule="evenodd" clip-rule="evenodd" d="M35.6885 43.6054L115.606 19.6289L118.665 65.1319L109.187 51.5425H35.6885V43.6054Z" fill="#3B6FB6"/>
<path fill-rule="evenodd" clip-rule="evenodd" d="M35.6885 47.8356L111.786 38.3652L118.665 65.1317L109.187 51.7485H35.6885V47.8356Z" fill="#E3001F"/>
</svg>
