<svg width="111" height="111" viewBox="0 0 111 111" fill="none" xmlns="http://www.w3.org/2000/svg">
<path d="M74 74H93.3186L111 56.3186L111 56.3114H91.6886V37H91.6814L74 54.6814V74Z" fill="#2764E0"/>
<path d="M74 111H93.3186L111 93.3186L111 93.3114H91.6886V74H91.6814L74 91.6814V111Z" fill="#2764E0"/>
<path d="M74 37H93.3186L111 19.3186L111 19.3114H91.6886V-3.8147e-06H91.6814L74 17.6814V37Z" fill="#2764E0"/>
<path d="M37 111H56.3186L74 93.3186L74 93.3114H54.6886V74H54.6814L37 91.6814V111Z" fill="#2764E0"/>
<path d="M74 37H54.6814L37 54.6814L37 54.6886H56.3114V74H56.3186L74 56.3186V37Z" fill="white"/>
<path d="M37 37H56.3186L74 19.3186L74 19.3114H54.6886V-3.8147e-06H54.6814L37 17.6814V37Z" fill="#2764E0"/>
<path d="M-3.8147e-06 74H19.3186L37 56.3186L37 56.3114H17.6886V37H17.6814L-3.8147e-06 54.6814V74Z" fill="#2764E0"/>
<path d="M-3.8147e-06 111H19.3186L37 93.3186L37 93.3114H17.6886V74H17.6814L-3.8147e-06 91.6814V111Z" fill="#2764E0"/>
<path d="M-3.8147e-06 37H19.3186L37 19.3186L37 19.3114H17.6886V-3.8147e-06H17.6814L-3.8147e-06 17.6814V37Z" fill="#2764E0"/>
</svg>
