<svg width="24" height="24" viewBox="0 0 24 24" fill="none" xmlns="http://www.w3.org/2000/svg">
<path fill-rule="evenodd" clip-rule="evenodd" d="M17.6631 8.49221C18.163 9.0863 18.0992 9.98411 17.5206 10.4974L10.1903 17L6.46263 13.5839C5.89212 13.0612 5.84243 12.1624 6.35164 11.5767C6.86085 10.991 7.73613 10.94 8.30661 11.4627L10.22 13.2162L15.7102 8.34589C16.2888 7.83262 17.1631 7.89813 17.6631 8.49221Z" fill="#21BA72"/>
<path fill-rule="evenodd" clip-rule="evenodd" d="M0 12C0 5.37258 5.37258 0 12 0C18.6274 0 24 5.37258 24 12C24 18.6274 18.6274 24 12 24C5.37258 24 0 18.6274 0 12ZM12 2.66666C6.84534 2.66666 2.66666 6.84534 2.66666 12C2.66666 17.1546 6.84534 21.3334 12 21.3334C17.1546 21.3334 21.3334 17.1546 21.3334 12C21.3334 6.84534 17.1546 2.66666 12 2.66666Z" fill="#21BA72"/>
</svg>
